<svg width="208" height="239" viewBox="0 0 208 239" fill="none" xmlns="http://www.w3.org/2000/svg">
<g clip-path="url(#clip0)" filter="url(#filter0_d)">
<path d="M6 58.8131L104 2.30863L202 58.8131V171.818L104 228.322L6 171.818V58.8131Z" stroke="#504A40" stroke-width="4"/>
<path d="M29.6757 60.8108H178.324V66.1261C178.324 71.6489 173.847 76.1261 168.324 76.1261H39.6757C34.1528 76.1261 29.6757 71.649 29.6757 66.1261V60.8108Z" fill="#504A40"/>
<path d="M52.1982 76.5765H155.802V90.1092C155.802 91.5303 155.197 92.8842 154.139 93.8327L133.352 112.462C132.435 113.284 131.247 113.739 130.015 113.739H77.9848C76.7532 113.739 75.5649 113.284 74.6478 112.462L53.8612 93.8327C52.8029 92.8842 52.1982 91.5303 52.1982 90.1092V76.5765Z" fill="#BA2525"/>
<rect x="102.649" y="139.64" width="3.15315" height="54.0541" fill="#BA2525"/>
<rect x="102.649" y="139.64" width="3.15315" height="54.0541" fill="#BA2525"/>
<rect x="52.2588" y="119.369" width="3.15315" height="54.0541" transform="rotate(40 52.2588 119.369)" fill="#BA2525"/>
<rect x="52.2588" y="119.369" width="3.15315" height="54.0541" transform="rotate(40 52.2588 119.369)" fill="#BA2525"/>
<rect width="3.15315" height="54.0541" transform="matrix(-0.766044 0.642788 0.642788 0.766044 158.217 117.568)" fill="#BA2525"/>
<rect width="3.15315" height="54.0541" transform="matrix(-0.766044 0.642788 0.642788 0.766044 158.217 117.568)" fill="#BA2525"/>
</g>
<defs>
<filter id="filter0_d" x="0" y="0" width="208" height="238.631" filterUnits="userSpaceOnUse" color-interpolation-filters="sRGB">
<feFlood flood-opacity="0" result="BackgroundImageFix"/>
<feColorMatrix in="SourceAlpha" type="matrix" values="0 0 0 0 0 0 0 0 0 0 0 0 0 0 0 0 0 0 127 0"/>
<feOffset dy="4"/>
<feGaussianBlur stdDeviation="2"/>
<feColorMatrix type="matrix" values="0 0 0 0 0 0 0 0 0 0 0 0 0 0 0 0 0 0 0.25 0"/>
<feBlend mode="normal" in2="BackgroundImageFix" result="effect1_dropShadow"/>
<feBlend mode="normal" in="SourceGraphic" in2="effect1_dropShadow" result="shape"/>
</filter>
<clipPath id="clip0">
<rect width="200" height="230.631" fill="white" transform="translate(4)"/>
</clipPath>
</defs>
</svg>
