<svg width="232" height="103" viewBox="0 0 232 103" fill="none" xmlns="http://www.w3.org/2000/svg">
<g clip-path="url(#clip0)">
<g filter="url(#filter0_d)">
<path d="M183 14.9922L207 1.15431L231 14.9922V42.6655L207 56.5033L183 42.6655V14.9922Z" stroke="#423D33" stroke-width="2"/>
</g>
<g filter="url(#filter1_d)">
<path fill-rule="evenodd" clip-rule="evenodd" d="M188.727 16.5455C188.727 15.1396 189.867 14 191.273 14C192.679 14 193.818 15.1396 193.818 16.5455V20.3636C193.818 20.4081 193.817 20.4524 193.815 20.4963L227 28.0909V35.4545L193.702 21.125C193.676 21.21 193.645 21.2932 193.61 21.3741L226.727 40.4545L220.091 44.2727L193.337 21.853C193.309 21.8916 193.28 21.9294 193.25 21.9664L216.273 46.5455L210.091 50.2727L192.718 22.4594C192.638 22.5146 192.555 22.5653 192.469 22.6112L205.545 51.3636L197.636 46.4545L191.814 22.8514C191.733 22.869 191.65 22.8827 191.566 22.8924L193.909 44.5455L187 40.4545L190.711 22.8469C189.575 22.5912 188.727 21.5764 188.727 20.3636V16.5455ZM191.273 21.2727C191.775 21.2727 192.182 20.8657 192.182 20.3636C192.182 19.8616 191.775 19.4545 191.273 19.4545C190.771 19.4545 190.364 19.8616 190.364 20.3636C190.364 20.8657 190.771 21.2727 191.273 21.2727Z" fill="#D80000"/>
</g>
<g filter="url(#filter2_d)">
<path d="M131 14.9922L155 1.15431L179 14.9922V42.6655L155 56.5033L131 42.6655V14.9922Z" stroke="#423D33" stroke-width="2"/>
</g>
<g filter="url(#filter3_d)">
<path fill-rule="evenodd" clip-rule="evenodd" d="M163.173 18.0139C162.47 19.2406 161.759 20.4811 161.759 22.3793C161.759 23.3699 162.439 24.9252 163.256 26.7926C165.59 32.1311 169.041 40.0194 160.898 44.5506C180.083 42.0483 174.82 26.4232 172.742 20.2518C172.677 20.0596 172.615 19.8766 172.558 19.7034C172.558 28.8072 170.192 28.9519 169.186 29.0134C169.03 29.023 168.907 29.0305 168.83 29.0689C165.048 29.0689 165.978 26.1095 167.095 22.552C167.728 20.5364 168.422 18.3287 168.353 16.3586C168.123 12.0772 165.772 10.0512 163.288 9C165.498 13.9594 164.347 15.9674 163.173 18.0139ZM154.018 9.57343L146.277 17.9833V12.8227H141.976V21.8059L135 28.8778H141.976V44.4551H153.253C147.613 40.0236 149.945 36.2506 152.024 32.8857C153.397 30.6631 154.661 28.6185 153.444 26.6798C157.402 27.5315 156.606 30.2478 155.889 32.6948C155.239 34.9157 154.653 36.9146 157.745 37.0965C161.55 37.0965 160.562 34.514 159.259 31.1106C157.684 26.992 155.648 21.6712 161.09 18.27V17.0276L154.018 9.57343Z" fill="#D80000"/>
</g>
<g filter="url(#filter4_d)">
<path d="M79 14.9922L103 1.15431L127 14.9922V42.6655L103 56.5033L79 42.6655V14.9922Z" stroke="#423D33" stroke-width="2"/>
</g>
<g filter="url(#filter5_d)">
<path fill-rule="evenodd" clip-rule="evenodd" d="M95.1772 28.5461V40.5135H84V24.0863H95.1772V25.5565L123.164 17L124 19.7341L95.1772 28.5461Z" fill="#D80000"/>
<circle cx="89.3348" cy="29.2515" r="1.94755" fill="#DE911D"/>
<path d="M99.919 24.425L101.274 24.0016L100.512 26.7112L99.0723 27.1346L99.919 24.425Z" fill="#DE911D"/>
<path d="M107.371 22.1387L108.726 21.7153L107.963 24.425L106.524 24.8483L107.371 22.1387Z" fill="#DE911D"/>
<path d="M113.806 20.1065L115.161 19.6831L114.398 22.3927L112.959 22.8161L113.806 20.1065Z" fill="#DE911D"/>
<path d="M120.411 18.0743L121.766 17.6509L121.003 20.3605L119.564 20.7839L120.411 18.0743Z" fill="#DE911D"/>
</g>
<g filter="url(#filter6_d)">
<path d="M27 14.9922L51 1.15431L75 14.9922V42.6655L51 56.5033L27 42.6655V14.9922Z" stroke="#423D33" stroke-width="2"/>
</g>
<g filter="url(#filter7_d)">
<path fill-rule="evenodd" clip-rule="evenodd" d="M68.9413 28.0669C70.0564 28.0669 70.3348 26.5177 69.2895 26.1295L42.187 16.0629C41.6671 15.8698 41.0894 16.1366 40.8994 16.6575L39.0967 21.5983C38.9811 21.915 39.0329 22.2686 39.2345 22.5388L42.5355 26.9653C42.6512 27.1204 42.8094 27.2386 42.991 27.3056L49.0836 29.5537C48.9868 29.7877 48.9334 30.0442 48.9334 30.3131C48.9334 30.8652 49.1585 31.3647 49.522 31.7248L47.8419 36.1018L47.81 36.1015C46.9235 36.1015 46.1725 36.6821 45.9167 37.4838H35.11V36.6199C35.11 36.1427 34.7232 35.7559 34.2461 35.7559C34.0517 35.7559 33.8722 35.8202 33.7279 35.9285V35.0648C33.7279 34.5877 33.3411 34.2009 32.8639 34.2009C32.3868 34.2009 32 34.5877 32 35.0648V41.6307C32 42.1079 32.3868 42.4947 32.8639 42.4947C33.3411 42.4947 33.7279 42.1079 33.7279 41.6307V40.7669C33.8722 40.8753 34.0517 40.9395 34.2461 40.9395C34.7232 40.9395 35.11 40.5527 35.11 40.0756V39.0389H46.0646C46.4016 39.6566 47.0569 40.0756 47.81 40.0756C48.9075 40.0756 49.7971 39.186 49.7971 38.0886C49.7971 37.5293 49.5661 37.024 49.1942 36.6629L50.8692 32.2995C50.8862 32.3 50.9033 32.3002 50.9204 32.3002C51.8029 32.3002 52.5511 31.7248 52.8102 30.9288L58.4893 33.0243C58.7325 33.114 59.001 33.1058 59.2382 33.0014L64.9294 30.4973C65.1952 30.3804 65.397 30.1536 65.4824 29.8761L65.8219 28.7728C65.951 28.3532 66.3386 28.0669 66.7776 28.0669H68.9413ZM69.1489 28.4989H66.4707L65.866 30.7451L59.6456 33.5097L66.3843 36.1015L67.2483 33.6825L68.1986 34.1145L69.7537 30.054L68.717 29.7084L69.1489 28.4989ZM70.5312 29.622L71.9999 30.1404L70.0128 35.5832L68.5441 34.9784L70.5312 29.622ZM64.3976 29.0669C64.6362 29.0669 64.8296 28.8349 64.8296 28.5486C64.8296 28.2623 64.6362 28.0302 64.3976 28.0302C64.1591 28.0302 63.9657 28.2623 63.9657 28.5486C63.9657 28.8349 64.1591 29.0669 64.3976 29.0669Z" fill="#D80000"/>
</g>
<g filter="url(#filter8_d)">
<path d="M157 59.9922L181 46.1543L205 59.9922V87.6655L181 101.503L157 87.6655V59.9922Z" stroke="#423D33" stroke-width="2"/>
</g>
<g filter="url(#filter9_d)">
<path d="M175.5 80L174 79C175 77.5 175 77 176.5 73L176.5 72.999C177 71.5 177 71.4997 177 70C177 68.5 177.5 66.5 179 65.5C181 65 182.5 64 182 68.5C180 84.5 181 89.5 183 90C184.5 90 187.5 88 191.5 78L193 79C192 82 186 94.5 181.5 94C177.5 93.5 175.5 89 176.5 78L175.5 80Z" fill="#D80000"/>
</g>
<g filter="url(#filter10_d)">
<circle cx="181" cy="58" r="3" fill="#D80000"/>
</g>
<g filter="url(#filter11_d)">
<path d="M105 59.9922L129 46.1543L153 59.9922V87.6655L129 101.503L105 87.6655V59.9922Z" stroke="#423D33" stroke-width="2"/>
</g>
<g filter="url(#filter12_d)">
<path fill-rule="evenodd" clip-rule="evenodd" d="M140.915 55.3008L137.51 63.445C138.65 64.2137 139.726 65.0794 140.726 66.0346L139.041 68.8382L147.056 69.7061L151.585 76.3754L146.605 84.6629L142.076 77.9937L134.061 77.1258L132.011 80.5379C131.057 79.6262 130.033 78.796 128.951 78.054L127.191 80.983C128.99 82.3397 130.385 84.0823 131.148 85.9552C131.809 87.5775 131.957 89.203 131.599 90.6496C129.659 89.134 126.993 87.3049 123.946 85.4353L118.732 92.155C118.996 92.3748 119.09 92.7182 118.938 92.9717C118.766 93.2578 118.345 93.321 117.999 93.1129C117.653 92.9047 117.511 92.5041 117.683 92.218C117.838 91.9605 118.194 91.8836 118.516 92.0227L121.855 84.1821C118.959 82.4866 116.262 81.0767 114.101 80.1007C115.208 79.1175 116.704 78.4929 118.434 78.3161C120.373 78.118 122.48 78.4949 124.459 79.3739L126.225 76.4346C125.128 75.8759 123.987 75.3994 122.812 75.0106L124.862 71.5986L120.333 64.9293L112.318 64.0614L117.298 55.7739L125.313 56.6418L129.842 63.311L131.527 60.5074C132.802 60.9294 134.037 61.4546 135.219 62.0762L140.915 55.3008ZM124.272 57.4265L117.281 56.7503L116.409 58.2006L123.401 58.8768L124.272 57.4265ZM128.988 63.785L125.109 57.929L124.237 59.3793L128.117 65.2353L128.988 63.785ZM122.779 59.9127L115.787 59.2365L114.915 60.6868L121.907 61.3631L122.779 59.9127ZM127.494 66.2712L123.615 60.4152L122.743 61.8656L126.623 67.7215L127.494 66.2712ZM121.285 62.399L114.293 61.7228L113.421 63.1731L120.413 63.8493L121.285 62.399ZM126 68.7575L122.121 62.9015L121.249 64.3518L125.129 70.2078L126 68.7575ZM139.023 69.8146L146.015 70.4908L145.144 71.9412L138.152 71.2649L139.023 69.8146ZM146.851 70.9933L150.731 76.8493L149.86 78.2996L145.98 72.4437L146.851 70.9933ZM137.529 72.3009L144.521 72.9771L143.65 74.4274L136.658 73.7512L137.529 72.3009ZM145.357 73.4796L149.237 79.3355L148.366 80.7859L144.486 74.9299L145.357 73.4796ZM136.035 74.7871L143.027 75.4634L142.156 76.9137L135.164 76.2375L136.035 74.7871ZM143.864 75.9659L147.743 81.8218L146.872 83.2722L142.992 77.4162L143.864 75.9659Z" fill="#D80000"/>
</g>
<g filter="url(#filter13_d)">
<path d="M53 59.9922L77 46.1543L101 59.9922V87.6655L77 101.503L53 87.6655V59.9922Z" stroke="#423D33" stroke-width="2"/>
</g>
<g filter="url(#filter14_d)">
<path fill-rule="evenodd" clip-rule="evenodd" d="M59 61C57.8954 61 57 61.8954 57 63V70.7204C57 71.825 57.8954 72.7204 59 72.7204H95C96.1046 72.7204 97 71.825 97 70.7204V63C97 61.8954 96.1046 61 95 61H59ZM85.8494 61.8602C85.2971 61.8602 84.8494 62.3079 84.8494 62.8602V64.8387C84.8494 65.391 85.2971 65.8387 85.8494 65.8387H95.1397C95.692 65.8387 96.1397 65.391 96.1397 64.8387V62.8602C96.1397 62.3079 95.692 61.8602 95.1397 61.8602H85.8494Z" fill="#D80000"/>
<rect x="57.5376" y="66.2688" width="39.0323" height="5.80645" rx="1" fill="#504A40"/>
<path d="M57.8895 67.6135C57.9338 67.0963 58.3666 66.6989 58.8858 66.6989H95.2219C95.7411 66.6989 96.1739 67.0963 96.2183 67.6135L96.3694 69.377C96.4195 69.9608 95.9591 70.4624 95.3731 70.4624H58.7346C58.1487 70.4624 57.6883 69.9608 57.7383 69.377L57.8895 67.6135Z" fill="#D80000"/>
<path d="M94.1082 76.5983C94.3022 76.6423 94.3564 76.8899 94.1939 77.0047C92.4853 78.2105 90.0802 79.2191 87.1952 79.936C84.077 80.7108 80.5153 81.1157 76.8909 81.1074C73.2665 81.0991 69.7156 80.678 66.6177 79.8889C63.7541 79.1596 61.3771 78.1412 59.7003 76.9291C59.538 76.8118 59.5948 76.5633 59.7903 76.5202C59.8604 76.5047 59.9333 76.5216 59.99 76.5657C61.6207 77.8343 64.0293 78.898 66.9686 79.6467C69.9617 80.409 73.3927 80.8159 76.8946 80.824C80.3965 80.832 83.8378 80.4408 86.8506 79.6921C89.8108 78.9566 92.248 77.9032 93.9117 76.6412C93.9678 76.5986 94.0395 76.5827 94.1082 76.5983Z" fill="#D80000"/>
<path d="M94.1082 79.6091C94.3022 79.653 94.3564 79.9007 94.1939 80.0154C92.4853 81.2213 90.0802 82.2299 87.1952 82.9467C84.077 83.7216 80.5153 84.1264 76.8909 84.1182C73.2665 84.1099 69.7156 83.6887 66.6177 82.8997C63.7541 82.1703 61.3771 81.152 59.7003 79.9398C59.538 79.8225 59.5948 79.5741 59.7903 79.5309C59.8604 79.5154 59.9333 79.5323 59.99 79.5764C61.6207 80.845 64.0293 81.9088 66.9686 82.6574C69.9617 83.4198 73.3927 83.8267 76.8946 83.8347C80.3965 83.8427 83.8378 83.4515 86.8506 82.7029C89.8108 81.9673 92.248 80.9139 93.9117 79.652C93.9678 79.6094 94.0395 79.5935 94.1082 79.6091Z" fill="#D64545"/>
<path d="M94.1082 82.6198C94.3022 82.6638 94.3564 82.9115 94.1939 83.0262C92.4853 84.232 90.0802 85.2406 87.1952 85.9575C84.077 86.7323 80.5153 87.1372 76.8909 87.1289C73.2665 87.1206 69.7156 86.6995 66.6177 85.9104C63.7541 85.1811 61.3771 84.1627 59.7003 82.9506C59.538 82.8333 59.5948 82.5849 59.7903 82.5417C59.8604 82.5262 59.9333 82.5431 59.99 82.5872C61.6207 83.8558 64.0293 84.9195 66.9686 85.6682C69.9617 86.4305 73.3927 86.8375 76.8946 86.8455C80.3965 86.8535 83.8378 86.4623 86.8506 85.7137C89.8108 84.9781 92.248 83.9247 93.9117 82.6627C93.9678 82.6202 94.0395 82.6043 94.1082 82.6198Z" fill="#D80000"/>
</g>
<g filter="url(#filter15_d)">
<path d="M1 59.9922L25 46.1543L49 59.9922V87.6655L25 101.503L1 87.6655V59.9922Z" stroke="#423D33" stroke-width="2"/>
</g>
<g filter="url(#filter16_d)">
<path fill-rule="evenodd" clip-rule="evenodd" d="M15.7697 56.9086L20.012 61.9644C20.5543 62.6107 21.6384 62.3007 22.1379 61.6208C26.3557 55.8797 42.9835 75.696 36.5974 78.8531C35.8412 79.227 35.3477 80.2408 35.89 80.887L40.1324 85.9429C40.3952 86.2562 40.8458 86.3793 41.2154 86.2045C52.3544 80.9372 22.8215 45.7412 15.7001 55.7966C15.4638 56.1303 15.5068 56.5954 15.7697 56.9086ZM9 88.9338H11.25V71.8713H9V88.9338ZM16.425 88.9338V82.2541H20.4445C22.3742 82.2541 23.8547 81.8088 24.8859 80.9181C25.925 80.0197 26.4445 78.7424 26.4445 77.0861C26.4445 75.5158 25.9133 74.2541 24.8508 73.3009C23.7961 72.3478 22.3352 71.8713 20.468 71.8713H14.175V88.9338H16.425ZM20.468 80.4142H16.425V73.7228H20.5969C21.7141 73.7463 22.593 74.0627 23.2336 74.672C23.8742 75.2814 24.1945 76.0939 24.1945 77.1095C24.1945 78.1799 23.8742 79.0002 23.2336 79.5705C22.593 80.133 21.6711 80.4142 20.468 80.4142Z" fill="#D80000"/>
</g>
</g>
<defs>
<filter id="filter0_d" x="172" y="-10" width="70" height="77.6577" filterUnits="userSpaceOnUse" color-interpolation-filters="sRGB">
<feFlood flood-opacity="0" result="BackgroundImageFix"/>
<feColorMatrix in="SourceAlpha" type="matrix" values="0 0 0 0 0 0 0 0 0 0 0 0 0 0 0 0 0 0 127 0"/>
<feOffset/>
<feGaussianBlur stdDeviation="5"/>
<feColorMatrix type="matrix" values="0 0 0 0 0 0 0 0 0 0 0 0 0 0 0 0 0 0 0.25 0"/>
<feBlend mode="normal" in2="BackgroundImageFix" result="effect1_dropShadow"/>
<feBlend mode="normal" in="SourceGraphic" in2="effect1_dropShadow" result="shape"/>
</filter>
<filter id="filter1_d" x="183" y="14" width="48" height="45.3636" filterUnits="userSpaceOnUse" color-interpolation-filters="sRGB">
<feFlood flood-opacity="0" result="BackgroundImageFix"/>
<feColorMatrix in="SourceAlpha" type="matrix" values="0 0 0 0 0 0 0 0 0 0 0 0 0 0 0 0 0 0 127 0"/>
<feOffset dy="4"/>
<feGaussianBlur stdDeviation="2"/>
<feColorMatrix type="matrix" values="0 0 0 0 0 0 0 0 0 0 0 0 0 0 0 0 0 0 0.25 0"/>
<feBlend mode="normal" in2="BackgroundImageFix" result="effect1_dropShadow"/>
<feBlend mode="normal" in="SourceGraphic" in2="effect1_dropShadow" result="shape"/>
</filter>
<filter id="filter2_d" x="120" y="-10" width="70" height="77.6577" filterUnits="userSpaceOnUse" color-interpolation-filters="sRGB">
<feFlood flood-opacity="0" result="BackgroundImageFix"/>
<feColorMatrix in="SourceAlpha" type="matrix" values="0 0 0 0 0 0 0 0 0 0 0 0 0 0 0 0 0 0 127 0"/>
<feOffset/>
<feGaussianBlur stdDeviation="5"/>
<feColorMatrix type="matrix" values="0 0 0 0 0 0 0 0 0 0 0 0 0 0 0 0 0 0 0.25 0"/>
<feBlend mode="normal" in2="BackgroundImageFix" result="effect1_dropShadow"/>
<feBlend mode="normal" in="SourceGraphic" in2="effect1_dropShadow" result="shape"/>
</filter>
<filter id="filter3_d" x="131" y="9" width="48" height="43.5506" filterUnits="userSpaceOnUse" color-interpolation-filters="sRGB">
<feFlood flood-opacity="0" result="BackgroundImageFix"/>
<feColorMatrix in="SourceAlpha" type="matrix" values="0 0 0 0 0 0 0 0 0 0 0 0 0 0 0 0 0 0 127 0"/>
<feOffset dy="4"/>
<feGaussianBlur stdDeviation="2"/>
<feColorMatrix type="matrix" values="0 0 0 0 0 0 0 0 0 0 0 0 0 0 0 0 0 0 0.25 0"/>
<feBlend mode="normal" in2="BackgroundImageFix" result="effect1_dropShadow"/>
<feBlend mode="normal" in="SourceGraphic" in2="effect1_dropShadow" result="shape"/>
</filter>
<filter id="filter4_d" x="68" y="-10" width="70" height="77.6577" filterUnits="userSpaceOnUse" color-interpolation-filters="sRGB">
<feFlood flood-opacity="0" result="BackgroundImageFix"/>
<feColorMatrix in="SourceAlpha" type="matrix" values="0 0 0 0 0 0 0 0 0 0 0 0 0 0 0 0 0 0 127 0"/>
<feOffset/>
<feGaussianBlur stdDeviation="5"/>
<feColorMatrix type="matrix" values="0 0 0 0 0 0 0 0 0 0 0 0 0 0 0 0 0 0 0.25 0"/>
<feBlend mode="normal" in2="BackgroundImageFix" result="effect1_dropShadow"/>
<feBlend mode="normal" in="SourceGraphic" in2="effect1_dropShadow" result="shape"/>
</filter>
<filter id="filter5_d" x="80" y="17" width="48.0001" height="31.5135" filterUnits="userSpaceOnUse" color-interpolation-filters="sRGB">
<feFlood flood-opacity="0" result="BackgroundImageFix"/>
<feColorMatrix in="SourceAlpha" type="matrix" values="0 0 0 0 0 0 0 0 0 0 0 0 0 0 0 0 0 0 127 0"/>
<feOffset dy="4"/>
<feGaussianBlur stdDeviation="2"/>
<feColorMatrix type="matrix" values="0 0 0 0 0 0 0 0 0 0 0 0 0 0 0 0 0 0 0.25 0"/>
<feBlend mode="normal" in2="BackgroundImageFix" result="effect1_dropShadow"/>
<feBlend mode="normal" in="SourceGraphic" in2="effect1_dropShadow" result="shape"/>
</filter>
<filter id="filter6_d" x="16" y="-10" width="70" height="77.6577" filterUnits="userSpaceOnUse" color-interpolation-filters="sRGB">
<feFlood flood-opacity="0" result="BackgroundImageFix"/>
<feColorMatrix in="SourceAlpha" type="matrix" values="0 0 0 0 0 0 0 0 0 0 0 0 0 0 0 0 0 0 127 0"/>
<feOffset/>
<feGaussianBlur stdDeviation="5"/>
<feColorMatrix type="matrix" values="0 0 0 0 0 0 0 0 0 0 0 0 0 0 0 0 0 0 0.25 0"/>
<feBlend mode="normal" in2="BackgroundImageFix" result="effect1_dropShadow"/>
<feBlend mode="normal" in="SourceGraphic" in2="effect1_dropShadow" result="shape"/>
</filter>
<filter id="filter7_d" x="28" y="16" width="47.9999" height="34.4947" filterUnits="userSpaceOnUse" color-interpolation-filters="sRGB">
<feFlood flood-opacity="0" result="BackgroundImageFix"/>
<feColorMatrix in="SourceAlpha" type="matrix" values="0 0 0 0 0 0 0 0 0 0 0 0 0 0 0 0 0 0 127 0"/>
<feOffset dy="4"/>
<feGaussianBlur stdDeviation="2"/>
<feColorMatrix type="matrix" values="0 0 0 0 0 0 0 0 0 0 0 0 0 0 0 0 0 0 0.25 0"/>
<feBlend mode="normal" in2="BackgroundImageFix" result="effect1_dropShadow"/>
<feBlend mode="normal" in="SourceGraphic" in2="effect1_dropShadow" result="shape"/>
</filter>
<filter id="filter8_d" x="146" y="35" width="70" height="77.6577" filterUnits="userSpaceOnUse" color-interpolation-filters="sRGB">
<feFlood flood-opacity="0" result="BackgroundImageFix"/>
<feColorMatrix in="SourceAlpha" type="matrix" values="0 0 0 0 0 0 0 0 0 0 0 0 0 0 0 0 0 0 127 0"/>
<feOffset/>
<feGaussianBlur stdDeviation="5"/>
<feColorMatrix type="matrix" values="0 0 0 0 0 0 0 0 0 0 0 0 0 0 0 0 0 0 0.25 0"/>
<feBlend mode="normal" in2="BackgroundImageFix" result="effect1_dropShadow"/>
<feBlend mode="normal" in="SourceGraphic" in2="effect1_dropShadow" result="shape"/>
</filter>
<filter id="filter9_d" x="170" y="65.0426" width="27" height="36.972" filterUnits="userSpaceOnUse" color-interpolation-filters="sRGB">
<feFlood flood-opacity="0" result="BackgroundImageFix"/>
<feColorMatrix in="SourceAlpha" type="matrix" values="0 0 0 0 0 0 0 0 0 0 0 0 0 0 0 0 0 0 127 0"/>
<feOffset dy="4"/>
<feGaussianBlur stdDeviation="2"/>
<feColorMatrix type="matrix" values="0 0 0 0 0 0 0 0 0 0 0 0 0 0 0 0 0 0 0.25 0"/>
<feBlend mode="normal" in2="BackgroundImageFix" result="effect1_dropShadow"/>
<feBlend mode="normal" in="SourceGraphic" in2="effect1_dropShadow" result="shape"/>
</filter>
<filter id="filter10_d" x="174" y="55" width="14" height="14" filterUnits="userSpaceOnUse" color-interpolation-filters="sRGB">
<feFlood flood-opacity="0" result="BackgroundImageFix"/>
<feColorMatrix in="SourceAlpha" type="matrix" values="0 0 0 0 0 0 0 0 0 0 0 0 0 0 0 0 0 0 127 0"/>
<feOffset dy="4"/>
<feGaussianBlur stdDeviation="2"/>
<feColorMatrix type="matrix" values="0 0 0 0 0 0 0 0 0 0 0 0 0 0 0 0 0 0 0.25 0"/>
<feBlend mode="normal" in2="BackgroundImageFix" result="effect1_dropShadow"/>
<feBlend mode="normal" in="SourceGraphic" in2="effect1_dropShadow" result="shape"/>
</filter>
<filter id="filter11_d" x="94" y="35" width="70" height="77.6577" filterUnits="userSpaceOnUse" color-interpolation-filters="sRGB">
<feFlood flood-opacity="0" result="BackgroundImageFix"/>
<feColorMatrix in="SourceAlpha" type="matrix" values="0 0 0 0 0 0 0 0 0 0 0 0 0 0 0 0 0 0 127 0"/>
<feOffset/>
<feGaussianBlur stdDeviation="5"/>
<feColorMatrix type="matrix" values="0 0 0 0 0 0 0 0 0 0 0 0 0 0 0 0 0 0 0.25 0"/>
<feBlend mode="normal" in2="BackgroundImageFix" result="effect1_dropShadow"/>
<feBlend mode="normal" in="SourceGraphic" in2="effect1_dropShadow" result="shape"/>
</filter>
<filter id="filter12_d" x="97" y="45" width="65.0585" height="66.5002" filterUnits="userSpaceOnUse" color-interpolation-filters="sRGB">
<feFlood flood-opacity="0" result="BackgroundImageFix"/>
<feColorMatrix in="SourceAlpha" type="matrix" values="0 0 0 0 0 0 0 0 0 0 0 0 0 0 0 0 0 0 127 0"/>
<feOffset dy="4"/>
<feGaussianBlur stdDeviation="2"/>
<feColorMatrix type="matrix" values="0 0 0 0 0 0 0 0 0 0 0 0 0 0 0 0 0 0 0.25 0"/>
<feBlend mode="normal" in2="BackgroundImageFix" result="effect1_dropShadow"/>
<feBlend mode="normal" in="SourceGraphic" in2="effect1_dropShadow" result="shape"/>
</filter>
<filter id="filter13_d" x="42" y="35" width="70" height="77.6577" filterUnits="userSpaceOnUse" color-interpolation-filters="sRGB">
<feFlood flood-opacity="0" result="BackgroundImageFix"/>
<feColorMatrix in="SourceAlpha" type="matrix" values="0 0 0 0 0 0 0 0 0 0 0 0 0 0 0 0 0 0 127 0"/>
<feOffset/>
<feGaussianBlur stdDeviation="5"/>
<feColorMatrix type="matrix" values="0 0 0 0 0 0 0 0 0 0 0 0 0 0 0 0 0 0 0.25 0"/>
<feBlend mode="normal" in2="BackgroundImageFix" result="effect1_dropShadow"/>
<feBlend mode="normal" in="SourceGraphic" in2="effect1_dropShadow" result="shape"/>
</filter>
<filter id="filter14_d" x="53" y="61" width="48" height="34.1291" filterUnits="userSpaceOnUse" color-interpolation-filters="sRGB">
<feFlood flood-opacity="0" result="BackgroundImageFix"/>
<feColorMatrix in="SourceAlpha" type="matrix" values="0 0 0 0 0 0 0 0 0 0 0 0 0 0 0 0 0 0 127 0"/>
<feOffset dy="4"/>
<feGaussianBlur stdDeviation="2"/>
<feColorMatrix type="matrix" values="0 0 0 0 0 0 0 0 0 0 0 0 0 0 0 0 0 0 0.25 0"/>
<feBlend mode="normal" in2="BackgroundImageFix" result="effect1_dropShadow"/>
<feBlend mode="normal" in="SourceGraphic" in2="effect1_dropShadow" result="shape"/>
</filter>
<filter id="filter15_d" x="-10" y="35" width="70" height="77.6577" filterUnits="userSpaceOnUse" color-interpolation-filters="sRGB">
<feFlood flood-opacity="0" result="BackgroundImageFix"/>
<feColorMatrix in="SourceAlpha" type="matrix" values="0 0 0 0 0 0 0 0 0 0 0 0 0 0 0 0 0 0 127 0"/>
<feOffset/>
<feGaussianBlur stdDeviation="5"/>
<feColorMatrix type="matrix" values="0 0 0 0 0 0 0 0 0 0 0 0 0 0 0 0 0 0 0.25 0"/>
<feBlend mode="normal" in2="BackgroundImageFix" result="effect1_dropShadow"/>
<feBlend mode="normal" in="SourceGraphic" in2="effect1_dropShadow" result="shape"/>
</filter>
<filter id="filter16_d" x="5" y="54" width="42.6986" height="42.9338" filterUnits="userSpaceOnUse" color-interpolation-filters="sRGB">
<feFlood flood-opacity="0" result="BackgroundImageFix"/>
<feColorMatrix in="SourceAlpha" type="matrix" values="0 0 0 0 0 0 0 0 0 0 0 0 0 0 0 0 0 0 127 0"/>
<feOffset dy="4"/>
<feGaussianBlur stdDeviation="2"/>
<feColorMatrix type="matrix" values="0 0 0 0 0 0 0 0 0 0 0 0 0 0 0 0 0 0 0.25 0"/>
<feBlend mode="normal" in2="BackgroundImageFix" result="effect1_dropShadow"/>
<feBlend mode="normal" in="SourceGraphic" in2="effect1_dropShadow" result="shape"/>
</filter>
<clipPath id="clip0">
<rect width="232" height="103" fill="white"/>
</clipPath>
</defs>
</svg>
