<svg width="104" height="240" viewBox="0 0 104 240" fill="none" xmlns="http://www.w3.org/2000/svg">
<g clip-path="url(#clip0)">
<g filter="url(#filter0_d)">
<path d="M1 196.992L25 183.154L49 196.992V224.666L25 238.503L1 224.666V196.992Z" stroke="#423D33" stroke-width="2"/>
</g>
<g filter="url(#filter1_d)">
<path fill-rule="evenodd" clip-rule="evenodd" d="M6.72727 198.545C6.72727 197.14 7.86691 196 9.27273 196C10.6785 196 11.8182 197.14 11.8182 198.545V202.364C11.8182 202.408 11.817 202.452 11.8148 202.496L45 210.091V217.455L11.7024 203.125C11.6757 203.21 11.6448 203.293 11.6097 203.374L44.7273 222.455L38.0909 226.273L11.3372 203.853C11.3093 203.892 11.2803 203.929 11.2503 203.966L34.2727 228.545L28.0909 232.273L10.7178 204.459C10.638 204.515 10.5548 204.565 10.4688 204.611L23.5455 233.364L15.6364 228.455L9.81425 204.851C9.73289 204.869 9.65008 204.883 9.56603 204.892L11.9091 226.545L5 222.455L8.71103 204.847C7.57547 204.591 6.72727 203.576 6.72727 202.364V198.545ZM9.27273 203.273C9.7748 203.273 10.1818 202.866 10.1818 202.364C10.1818 201.862 9.7748 201.455 9.27273 201.455C8.77065 201.455 8.36364 201.862 8.36364 202.364C8.36364 202.866 8.77065 203.273 9.27273 203.273Z" fill="#D80000"/>
</g>
<g filter="url(#filter2_d)">
<path d="M53 105.992L77 92.1543L101 105.992V133.666L77 147.503L53 133.666V105.992Z" stroke="#423D33" stroke-width="2"/>
</g>
<g filter="url(#filter3_d)">
<path fill-rule="evenodd" clip-rule="evenodd" d="M85.1733 109.014C84.4699 110.241 83.7585 111.481 83.7585 113.379C83.7585 114.37 84.4388 115.925 85.2555 117.793C87.5904 123.131 91.0406 131.019 82.8984 135.551C102.083 133.048 96.8203 117.423 94.7416 111.252C94.6769 111.06 94.6152 110.877 94.5575 110.703C94.5575 119.807 92.1923 119.952 91.1861 120.013C91.0304 120.023 90.9073 120.03 90.8304 120.069C87.0483 120.069 87.9778 117.109 89.0952 113.552C89.7283 111.536 90.4217 109.329 90.3526 107.359C90.1232 103.077 87.7723 101.051 85.2876 100C87.4984 104.959 86.3469 106.967 85.1733 109.014ZM76.0177 100.573L68.2768 108.983V103.823H63.9763V112.806L57 119.878H63.9763V135.455H75.2532C69.6131 131.024 71.9445 127.251 74.0239 123.886C75.3973 121.663 76.6607 119.619 75.4443 117.68C79.4021 118.531 78.6062 121.248 77.8893 123.695C77.2386 125.916 76.653 127.915 79.7448 128.097C83.5499 128.097 82.5617 125.514 81.2595 122.111C79.6836 117.992 77.6476 112.671 83.0896 109.27V108.028L76.0177 100.573Z" fill="#D80000"/>
</g>
<g filter="url(#filter4_d)">
<path d="M53 14.9922L77 1.15431L101 14.9922V42.6655L77 56.5033L53 42.6655V14.9922Z" stroke="#423D33" stroke-width="2"/>
</g>
<g filter="url(#filter5_d)">
<path fill-rule="evenodd" clip-rule="evenodd" d="M69.1772 28.5461V40.5135H58V24.0863H69.1772V25.5565L97.1642 17L98.0001 19.7341L69.1772 28.5461Z" fill="#D80000"/>
<circle cx="63.3348" cy="29.2515" r="1.94755" fill="#DE911D"/>
<path d="M73.919 24.425L75.2738 24.0016L74.5118 26.7112L73.0723 27.1346L73.919 24.425Z" fill="#DE911D"/>
<path d="M81.3707 22.1387L82.7255 21.7153L81.9634 24.425L80.5239 24.8483L81.3707 22.1387Z" fill="#DE911D"/>
<path d="M87.8057 20.1065L89.1606 19.6831L88.3985 22.3927L86.959 22.8161L87.8057 20.1065Z" fill="#DE911D"/>
<path d="M94.4107 18.0743L95.7655 17.6509L95.0035 20.3605L93.564 20.7839L94.4107 18.0743Z" fill="#DE911D"/>
</g>
<g filter="url(#filter6_d)">
<path d="M1 14.9922L25 1.15431L49 14.9922V42.6655L25 56.5033L1 42.6655V14.9922Z" stroke="#423D33" stroke-width="2"/>
</g>
<g filter="url(#filter7_d)">
<path fill-rule="evenodd" clip-rule="evenodd" d="M42.9413 28.0669C44.0564 28.0669 44.3348 26.5177 43.2895 26.1295L16.187 16.0629C15.6671 15.8698 15.0894 16.1366 14.8994 16.6575L13.0967 21.5983C12.9811 21.915 13.0329 22.2686 13.2345 22.5388L16.5355 26.9653C16.6512 27.1204 16.8094 27.2386 16.991 27.3056L23.0836 29.5537C22.9868 29.7877 22.9334 30.0442 22.9334 30.3131C22.9334 30.8652 23.1585 31.3647 23.522 31.7248L21.8419 36.1018L21.81 36.1015C20.9235 36.1015 20.1725 36.6821 19.9167 37.4838H9.11004V36.6199C9.11004 36.1427 8.72324 35.7559 8.2461 35.7559C8.05167 35.7559 7.87224 35.8202 7.72787 35.9285V35.0648C7.72787 34.5877 7.34107 34.2009 6.86394 34.2009C6.3868 34.2009 6 34.5877 6 35.0648V41.6307C6 42.1079 6.3868 42.4947 6.86394 42.4947C7.34107 42.4947 7.72787 42.1079 7.72787 41.6307V40.7669C7.87224 40.8753 8.05167 40.9395 8.2461 40.9395C8.72324 40.9395 9.11004 40.5527 9.11004 40.0756V39.0389H20.0646C20.4016 39.6566 21.0569 40.0756 21.81 40.0756C22.9075 40.0756 23.7971 39.186 23.7971 38.0886C23.7971 37.5293 23.5661 37.024 23.1942 36.6629L24.8692 32.2995C24.8862 32.3 24.9033 32.3002 24.9204 32.3002C25.8029 32.3002 26.5511 31.7248 26.8102 30.9288L32.4893 33.0243C32.7325 33.114 33.001 33.1058 33.2382 33.0014L38.9294 30.4973C39.1952 30.3804 39.397 30.1536 39.4824 29.8761L39.8219 28.7728C39.951 28.3532 40.3386 28.0669 40.7776 28.0669H42.9413ZM43.1489 28.4989H40.4707L39.866 30.7451L33.6456 33.5097L40.3843 36.1015L41.2483 33.6825L42.1986 34.1145L43.7537 30.054L42.717 29.7084L43.1489 28.4989ZM44.5312 29.622L45.9999 30.1404L44.0128 35.5832L42.5441 34.9784L44.5312 29.622ZM38.3976 29.0669C38.6362 29.0669 38.8296 28.8349 38.8296 28.5486C38.8296 28.2623 38.6362 28.0302 38.3976 28.0302C38.1591 28.0302 37.9657 28.2623 37.9657 28.5486C37.9657 28.8349 38.1591 29.0669 38.3976 29.0669Z" fill="#D80000"/>
</g>
<g filter="url(#filter8_d)">
<path d="M53 196.992L77 183.154L101 196.992V224.666L77 238.503L53 224.666V196.992Z" stroke="#423D33" stroke-width="2"/>
</g>
<g filter="url(#filter9_d)">
<path d="M71.5 217L70 216C71 214.5 70.9999 214 72.5001 210L72.5004 209.999C73.0001 208.5 73.0002 208.5 73.0001 207C73 205.5 73.4999 203.5 75 202.5C77.0001 202 78.5001 201 78 205.5C76 221.5 77 226.5 79 227C80.5 227 83.5 225 87.5 215L89 216C88 219 82 231.5 77.5 231C73.5 230.5 71.5 226 72.5 215L71.5 217Z" fill="#D80000"/>
</g>
<g filter="url(#filter10_d)">
<circle cx="77" cy="195" r="3" fill="#D80000"/>
</g>
<g filter="url(#filter11_d)">
<path d="M27 150.992L51 137.154L75 150.992V178.666L51 192.503L27 178.666V150.992Z" stroke="#423D33" stroke-width="2"/>
</g>
<g filter="url(#filter12_d)">
<path fill-rule="evenodd" clip-rule="evenodd" d="M62.9151 146.301L59.5098 154.445C60.6496 155.214 61.7257 156.079 62.7255 157.035L61.0409 159.838L69.0558 160.706L73.5849 167.375L68.6052 175.663L64.0761 168.994L56.0613 168.126L54.0111 171.538C53.0569 170.626 52.0331 169.796 50.9508 169.054L49.1909 171.983C50.9898 173.34 52.3848 175.082 53.1478 176.955C53.8087 178.578 53.9568 180.203 53.5987 181.65C51.6587 180.134 48.9926 178.305 45.9458 176.435L40.7317 183.155C40.9961 183.375 41.0898 183.718 40.9375 183.972C40.7656 184.258 40.3455 184.321 39.9991 184.113C39.6527 183.905 39.5112 183.504 39.6831 183.218C39.8379 182.96 40.1939 182.884 40.5161 183.023L43.8553 175.182C40.9591 173.487 38.2617 172.077 36.1014 171.101C37.2083 170.118 38.7039 169.493 40.4343 169.316C42.373 169.118 44.4803 169.495 46.4587 170.374L48.2248 167.435C47.1279 166.876 45.9874 166.399 44.8122 166.011L46.8624 162.599L42.3333 155.929L34.3185 155.061L39.2981 146.774L47.313 147.642L51.8421 154.311L53.5266 151.507C54.8021 151.929 56.0368 152.455 57.2192 153.076L62.9151 146.301ZM46.2725 148.426L39.2806 147.75L38.4092 149.201L45.401 149.877L46.2725 148.426ZM50.9883 154.785L47.1087 148.929L46.2373 150.379L50.1168 156.235L50.9883 154.785ZM44.7785 150.913L37.7867 150.237L36.9152 151.687L43.9071 152.363L44.7785 150.913ZM49.4943 157.271L45.6148 151.415L44.7433 152.866L48.6229 158.722L49.4943 157.271ZM43.2846 153.399L36.2928 152.723L35.4213 154.173L42.4132 154.849L43.2846 153.399ZM48.0003 159.757L44.1208 153.902L43.2493 155.352L47.1289 161.208L48.0003 159.757ZM61.0233 160.815L68.0151 161.491L67.1437 162.941L60.1518 162.265L61.0233 160.815ZM68.8515 161.993L72.731 167.849L71.8596 169.3L67.98 163.444L68.8515 161.993ZM59.5294 163.301L66.5212 163.977L65.6498 165.427L58.6579 164.751L59.5294 163.301ZM67.3575 164.48L71.237 170.336L70.3656 171.786L66.486 165.93L67.3575 164.48ZM58.0354 165.787L65.0272 166.463L64.1558 167.914L57.164 167.237L58.0354 165.787ZM65.8635 166.966L69.7431 172.822L68.8716 174.272L64.9921 168.416L65.8635 166.966Z" fill="#D80000"/>
</g>
<g filter="url(#filter13_d)">
<path d="M27 59.9922L51 46.1543L75 59.9922V87.6655L51 101.503L27 87.6655V59.9922Z" stroke="#423D33" stroke-width="2"/>
</g>
<g filter="url(#filter14_d)">
<path fill-rule="evenodd" clip-rule="evenodd" d="M33 61C31.8954 61 31 61.8954 31 63V70.7204C31 71.825 31.8954 72.7204 33 72.7204H69C70.1046 72.7204 71 71.825 71 70.7204V63C71 61.8954 70.1046 61 69 61H33ZM59.8494 61.8602C59.2971 61.8602 58.8494 62.3079 58.8494 62.8602V64.8387C58.8494 65.391 59.2971 65.8387 59.8494 65.8387H69.1397C69.692 65.8387 70.1397 65.391 70.1397 64.8387V62.8602C70.1397 62.3079 69.692 61.8602 69.1397 61.8602H59.8494Z" fill="#D80000"/>
<rect x="31.5376" y="66.2688" width="39.0323" height="5.80645" rx="1" fill="#504A40"/>
<path d="M31.8895 67.6135C31.9338 67.0963 32.3666 66.6989 32.8858 66.6989H69.2219C69.7411 66.6989 70.1739 67.0963 70.2183 67.6135L70.3694 69.377C70.4195 69.9608 69.9591 70.4624 69.3731 70.4624H32.7346C32.1487 70.4624 31.6883 69.9608 31.7383 69.377L31.8895 67.6135Z" fill="#D80000"/>
<path d="M68.1082 76.5983C68.3022 76.6423 68.3564 76.8899 68.1939 77.0047C66.4853 78.2105 64.0802 79.2191 61.1952 79.936C58.077 80.7108 54.5153 81.1157 50.8909 81.1074C47.2665 81.0991 43.7156 80.678 40.6177 79.8889C37.7541 79.1596 35.3771 78.1412 33.7003 76.9291C33.538 76.8118 33.5948 76.5633 33.7903 76.5202V76.5202C33.8604 76.5047 33.9333 76.5216 33.99 76.5657C35.6207 77.8343 38.0293 78.898 40.9686 79.6467C43.9617 80.409 47.3927 80.8159 50.8946 80.824C54.3965 80.832 57.8378 80.4408 60.8506 79.6921C63.8108 78.9566 66.248 77.9032 67.9117 76.6412C67.9678 76.5986 68.0395 76.5827 68.1082 76.5983V76.5983Z" fill="#D80000"/>
<path d="M68.1082 79.6091C68.3022 79.653 68.3564 79.9007 68.1939 80.0154C66.4853 81.2213 64.0802 82.2299 61.1952 82.9467C58.077 83.7216 54.5153 84.1264 50.8909 84.1182C47.2665 84.1099 43.7156 83.6887 40.6177 82.8997C37.7541 82.1703 35.3771 81.152 33.7003 79.9398C33.538 79.8225 33.5948 79.5741 33.7903 79.5309V79.5309C33.8604 79.5154 33.9333 79.5323 33.99 79.5764C35.6207 80.845 38.0293 81.9088 40.9686 82.6574C43.9617 83.4198 47.3927 83.8267 50.8946 83.8347C54.3965 83.8427 57.8378 83.4515 60.8506 82.7029C63.8108 81.9673 66.248 80.9139 67.9117 79.652C67.9678 79.6094 68.0395 79.5935 68.1082 79.6091V79.6091Z" fill="#D64545"/>
<path d="M68.1082 82.6198C68.3022 82.6638 68.3564 82.9115 68.1939 83.0262C66.4853 84.232 64.0802 85.2406 61.1952 85.9575C58.077 86.7323 54.5153 87.1372 50.8909 87.1289C47.2665 87.1206 43.7156 86.6995 40.6177 85.9104C37.7541 85.1811 35.3771 84.1627 33.7003 82.9506C33.538 82.8333 33.5948 82.5849 33.7903 82.5417V82.5417C33.8604 82.5262 33.9333 82.5431 33.99 82.5872C35.6207 83.8558 38.0293 84.9195 40.9686 85.6682C43.9617 86.4305 47.3927 86.8375 50.8946 86.8455C54.3965 86.8535 57.8378 86.4623 60.8506 85.7137C63.8108 84.9781 66.248 83.9247 67.9117 82.6627C67.9678 82.6202 68.0395 82.6043 68.1082 82.6198V82.6198Z" fill="#D80000"/>
</g>
<g filter="url(#filter15_d)">
<path d="M1 105.992L25 92.1543L49 105.992V133.666L25 147.503L1 133.666V105.992Z" stroke="#423D33" stroke-width="2"/>
</g>
<g filter="url(#filter16_d)">
<path fill-rule="evenodd" clip-rule="evenodd" d="M15.7697 102.909L20.012 107.964C20.5543 108.611 21.6384 108.301 22.1379 107.621C26.3557 101.88 42.9835 121.696 36.5974 124.853C35.8412 125.227 35.3477 126.241 35.89 126.887L40.1324 131.943C40.3952 132.256 40.8458 132.379 41.2154 132.205C52.3544 126.937 22.8215 91.7412 15.7001 101.797C15.4638 102.13 15.5068 102.595 15.7697 102.909ZM9 134.934H11.25V117.871H9V134.934ZM16.425 134.934V128.254H20.4445C22.3742 128.254 23.8547 127.809 24.8859 126.918C25.925 126.02 26.4445 124.742 26.4445 123.086C26.4445 121.516 25.9133 120.254 24.8508 119.301C23.7961 118.348 22.3352 117.871 20.468 117.871H14.175V134.934H16.425ZM20.468 126.414H16.425V119.723H20.5969C21.7141 119.746 22.593 120.063 23.2336 120.672C23.8742 121.281 24.1945 122.094 24.1945 123.11C24.1945 124.18 23.8742 125 23.2336 125.57C22.593 126.133 21.6711 126.414 20.468 126.414Z" fill="#D80000"/>
</g>
</g>
<defs>
<filter id="filter0_d" x="-10" y="172" width="70" height="77.6577" filterUnits="userSpaceOnUse" color-interpolation-filters="sRGB">
<feFlood flood-opacity="0" result="BackgroundImageFix"/>
<feColorMatrix in="SourceAlpha" type="matrix" values="0 0 0 0 0 0 0 0 0 0 0 0 0 0 0 0 0 0 127 0"/>
<feOffset/>
<feGaussianBlur stdDeviation="5"/>
<feColorMatrix type="matrix" values="0 0 0 0 0 0 0 0 0 0 0 0 0 0 0 0 0 0 0.25 0"/>
<feBlend mode="normal" in2="BackgroundImageFix" result="effect1_dropShadow"/>
<feBlend mode="normal" in="SourceGraphic" in2="effect1_dropShadow" result="shape"/>
</filter>
<filter id="filter1_d" x="1" y="196" width="48" height="45.3636" filterUnits="userSpaceOnUse" color-interpolation-filters="sRGB">
<feFlood flood-opacity="0" result="BackgroundImageFix"/>
<feColorMatrix in="SourceAlpha" type="matrix" values="0 0 0 0 0 0 0 0 0 0 0 0 0 0 0 0 0 0 127 0"/>
<feOffset dy="4"/>
<feGaussianBlur stdDeviation="2"/>
<feColorMatrix type="matrix" values="0 0 0 0 0 0 0 0 0 0 0 0 0 0 0 0 0 0 0.25 0"/>
<feBlend mode="normal" in2="BackgroundImageFix" result="effect1_dropShadow"/>
<feBlend mode="normal" in="SourceGraphic" in2="effect1_dropShadow" result="shape"/>
</filter>
<filter id="filter2_d" x="42" y="81" width="70" height="77.6577" filterUnits="userSpaceOnUse" color-interpolation-filters="sRGB">
<feFlood flood-opacity="0" result="BackgroundImageFix"/>
<feColorMatrix in="SourceAlpha" type="matrix" values="0 0 0 0 0 0 0 0 0 0 0 0 0 0 0 0 0 0 127 0"/>
<feOffset/>
<feGaussianBlur stdDeviation="5"/>
<feColorMatrix type="matrix" values="0 0 0 0 0 0 0 0 0 0 0 0 0 0 0 0 0 0 0.25 0"/>
<feBlend mode="normal" in2="BackgroundImageFix" result="effect1_dropShadow"/>
<feBlend mode="normal" in="SourceGraphic" in2="effect1_dropShadow" result="shape"/>
</filter>
<filter id="filter3_d" x="53" y="100" width="48" height="43.5506" filterUnits="userSpaceOnUse" color-interpolation-filters="sRGB">
<feFlood flood-opacity="0" result="BackgroundImageFix"/>
<feColorMatrix in="SourceAlpha" type="matrix" values="0 0 0 0 0 0 0 0 0 0 0 0 0 0 0 0 0 0 127 0"/>
<feOffset dy="4"/>
<feGaussianBlur stdDeviation="2"/>
<feColorMatrix type="matrix" values="0 0 0 0 0 0 0 0 0 0 0 0 0 0 0 0 0 0 0.25 0"/>
<feBlend mode="normal" in2="BackgroundImageFix" result="effect1_dropShadow"/>
<feBlend mode="normal" in="SourceGraphic" in2="effect1_dropShadow" result="shape"/>
</filter>
<filter id="filter4_d" x="42" y="-10" width="70" height="77.6577" filterUnits="userSpaceOnUse" color-interpolation-filters="sRGB">
<feFlood flood-opacity="0" result="BackgroundImageFix"/>
<feColorMatrix in="SourceAlpha" type="matrix" values="0 0 0 0 0 0 0 0 0 0 0 0 0 0 0 0 0 0 127 0"/>
<feOffset/>
<feGaussianBlur stdDeviation="5"/>
<feColorMatrix type="matrix" values="0 0 0 0 0 0 0 0 0 0 0 0 0 0 0 0 0 0 0.25 0"/>
<feBlend mode="normal" in2="BackgroundImageFix" result="effect1_dropShadow"/>
<feBlend mode="normal" in="SourceGraphic" in2="effect1_dropShadow" result="shape"/>
</filter>
<filter id="filter5_d" x="54" y="17" width="48.0001" height="31.5135" filterUnits="userSpaceOnUse" color-interpolation-filters="sRGB">
<feFlood flood-opacity="0" result="BackgroundImageFix"/>
<feColorMatrix in="SourceAlpha" type="matrix" values="0 0 0 0 0 0 0 0 0 0 0 0 0 0 0 0 0 0 127 0"/>
<feOffset dy="4"/>
<feGaussianBlur stdDeviation="2"/>
<feColorMatrix type="matrix" values="0 0 0 0 0 0 0 0 0 0 0 0 0 0 0 0 0 0 0.25 0"/>
<feBlend mode="normal" in2="BackgroundImageFix" result="effect1_dropShadow"/>
<feBlend mode="normal" in="SourceGraphic" in2="effect1_dropShadow" result="shape"/>
</filter>
<filter id="filter6_d" x="-10" y="-10" width="70" height="77.6577" filterUnits="userSpaceOnUse" color-interpolation-filters="sRGB">
<feFlood flood-opacity="0" result="BackgroundImageFix"/>
<feColorMatrix in="SourceAlpha" type="matrix" values="0 0 0 0 0 0 0 0 0 0 0 0 0 0 0 0 0 0 127 0"/>
<feOffset/>
<feGaussianBlur stdDeviation="5"/>
<feColorMatrix type="matrix" values="0 0 0 0 0 0 0 0 0 0 0 0 0 0 0 0 0 0 0.25 0"/>
<feBlend mode="normal" in2="BackgroundImageFix" result="effect1_dropShadow"/>
<feBlend mode="normal" in="SourceGraphic" in2="effect1_dropShadow" result="shape"/>
</filter>
<filter id="filter7_d" x="2" y="16" width="47.9999" height="34.4947" filterUnits="userSpaceOnUse" color-interpolation-filters="sRGB">
<feFlood flood-opacity="0" result="BackgroundImageFix"/>
<feColorMatrix in="SourceAlpha" type="matrix" values="0 0 0 0 0 0 0 0 0 0 0 0 0 0 0 0 0 0 127 0"/>
<feOffset dy="4"/>
<feGaussianBlur stdDeviation="2"/>
<feColorMatrix type="matrix" values="0 0 0 0 0 0 0 0 0 0 0 0 0 0 0 0 0 0 0.25 0"/>
<feBlend mode="normal" in2="BackgroundImageFix" result="effect1_dropShadow"/>
<feBlend mode="normal" in="SourceGraphic" in2="effect1_dropShadow" result="shape"/>
</filter>
<filter id="filter8_d" x="42" y="172" width="70" height="77.6577" filterUnits="userSpaceOnUse" color-interpolation-filters="sRGB">
<feFlood flood-opacity="0" result="BackgroundImageFix"/>
<feColorMatrix in="SourceAlpha" type="matrix" values="0 0 0 0 0 0 0 0 0 0 0 0 0 0 0 0 0 0 127 0"/>
<feOffset/>
<feGaussianBlur stdDeviation="5"/>
<feColorMatrix type="matrix" values="0 0 0 0 0 0 0 0 0 0 0 0 0 0 0 0 0 0 0.25 0"/>
<feBlend mode="normal" in2="BackgroundImageFix" result="effect1_dropShadow"/>
<feBlend mode="normal" in="SourceGraphic" in2="effect1_dropShadow" result="shape"/>
</filter>
<filter id="filter9_d" x="66" y="202.043" width="27" height="36.972" filterUnits="userSpaceOnUse" color-interpolation-filters="sRGB">
<feFlood flood-opacity="0" result="BackgroundImageFix"/>
<feColorMatrix in="SourceAlpha" type="matrix" values="0 0 0 0 0 0 0 0 0 0 0 0 0 0 0 0 0 0 127 0"/>
<feOffset dy="4"/>
<feGaussianBlur stdDeviation="2"/>
<feColorMatrix type="matrix" values="0 0 0 0 0 0 0 0 0 0 0 0 0 0 0 0 0 0 0.25 0"/>
<feBlend mode="normal" in2="BackgroundImageFix" result="effect1_dropShadow"/>
<feBlend mode="normal" in="SourceGraphic" in2="effect1_dropShadow" result="shape"/>
</filter>
<filter id="filter10_d" x="70" y="192" width="14" height="14" filterUnits="userSpaceOnUse" color-interpolation-filters="sRGB">
<feFlood flood-opacity="0" result="BackgroundImageFix"/>
<feColorMatrix in="SourceAlpha" type="matrix" values="0 0 0 0 0 0 0 0 0 0 0 0 0 0 0 0 0 0 127 0"/>
<feOffset dy="4"/>
<feGaussianBlur stdDeviation="2"/>
<feColorMatrix type="matrix" values="0 0 0 0 0 0 0 0 0 0 0 0 0 0 0 0 0 0 0.25 0"/>
<feBlend mode="normal" in2="BackgroundImageFix" result="effect1_dropShadow"/>
<feBlend mode="normal" in="SourceGraphic" in2="effect1_dropShadow" result="shape"/>
</filter>
<filter id="filter11_d" x="16" y="126" width="70" height="77.6577" filterUnits="userSpaceOnUse" color-interpolation-filters="sRGB">
<feFlood flood-opacity="0" result="BackgroundImageFix"/>
<feColorMatrix in="SourceAlpha" type="matrix" values="0 0 0 0 0 0 0 0 0 0 0 0 0 0 0 0 0 0 127 0"/>
<feOffset/>
<feGaussianBlur stdDeviation="5"/>
<feColorMatrix type="matrix" values="0 0 0 0 0 0 0 0 0 0 0 0 0 0 0 0 0 0 0.25 0"/>
<feBlend mode="normal" in2="BackgroundImageFix" result="effect1_dropShadow"/>
<feBlend mode="normal" in="SourceGraphic" in2="effect1_dropShadow" result="shape"/>
</filter>
<filter id="filter12_d" x="19" y="136" width="65.0585" height="66.5002" filterUnits="userSpaceOnUse" color-interpolation-filters="sRGB">
<feFlood flood-opacity="0" result="BackgroundImageFix"/>
<feColorMatrix in="SourceAlpha" type="matrix" values="0 0 0 0 0 0 0 0 0 0 0 0 0 0 0 0 0 0 127 0"/>
<feOffset dy="4"/>
<feGaussianBlur stdDeviation="2"/>
<feColorMatrix type="matrix" values="0 0 0 0 0 0 0 0 0 0 0 0 0 0 0 0 0 0 0.25 0"/>
<feBlend mode="normal" in2="BackgroundImageFix" result="effect1_dropShadow"/>
<feBlend mode="normal" in="SourceGraphic" in2="effect1_dropShadow" result="shape"/>
</filter>
<filter id="filter13_d" x="16" y="35" width="70" height="77.6577" filterUnits="userSpaceOnUse" color-interpolation-filters="sRGB">
<feFlood flood-opacity="0" result="BackgroundImageFix"/>
<feColorMatrix in="SourceAlpha" type="matrix" values="0 0 0 0 0 0 0 0 0 0 0 0 0 0 0 0 0 0 127 0"/>
<feOffset/>
<feGaussianBlur stdDeviation="5"/>
<feColorMatrix type="matrix" values="0 0 0 0 0 0 0 0 0 0 0 0 0 0 0 0 0 0 0.25 0"/>
<feBlend mode="normal" in2="BackgroundImageFix" result="effect1_dropShadow"/>
<feBlend mode="normal" in="SourceGraphic" in2="effect1_dropShadow" result="shape"/>
</filter>
<filter id="filter14_d" x="27" y="61" width="48" height="34.1291" filterUnits="userSpaceOnUse" color-interpolation-filters="sRGB">
<feFlood flood-opacity="0" result="BackgroundImageFix"/>
<feColorMatrix in="SourceAlpha" type="matrix" values="0 0 0 0 0 0 0 0 0 0 0 0 0 0 0 0 0 0 127 0"/>
<feOffset dy="4"/>
<feGaussianBlur stdDeviation="2"/>
<feColorMatrix type="matrix" values="0 0 0 0 0 0 0 0 0 0 0 0 0 0 0 0 0 0 0.25 0"/>
<feBlend mode="normal" in2="BackgroundImageFix" result="effect1_dropShadow"/>
<feBlend mode="normal" in="SourceGraphic" in2="effect1_dropShadow" result="shape"/>
</filter>
<filter id="filter15_d" x="-10" y="81" width="70" height="77.6577" filterUnits="userSpaceOnUse" color-interpolation-filters="sRGB">
<feFlood flood-opacity="0" result="BackgroundImageFix"/>
<feColorMatrix in="SourceAlpha" type="matrix" values="0 0 0 0 0 0 0 0 0 0 0 0 0 0 0 0 0 0 127 0"/>
<feOffset/>
<feGaussianBlur stdDeviation="5"/>
<feColorMatrix type="matrix" values="0 0 0 0 0 0 0 0 0 0 0 0 0 0 0 0 0 0 0.25 0"/>
<feBlend mode="normal" in2="BackgroundImageFix" result="effect1_dropShadow"/>
<feBlend mode="normal" in="SourceGraphic" in2="effect1_dropShadow" result="shape"/>
</filter>
<filter id="filter16_d" x="5" y="100" width="42.6986" height="42.9338" filterUnits="userSpaceOnUse" color-interpolation-filters="sRGB">
<feFlood flood-opacity="0" result="BackgroundImageFix"/>
<feColorMatrix in="SourceAlpha" type="matrix" values="0 0 0 0 0 0 0 0 0 0 0 0 0 0 0 0 0 0 127 0"/>
<feOffset dy="4"/>
<feGaussianBlur stdDeviation="2"/>
<feColorMatrix type="matrix" values="0 0 0 0 0 0 0 0 0 0 0 0 0 0 0 0 0 0 0.25 0"/>
<feBlend mode="normal" in2="BackgroundImageFix" result="effect1_dropShadow"/>
<feBlend mode="normal" in="SourceGraphic" in2="effect1_dropShadow" result="shape"/>
</filter>
<clipPath id="clip0">
<rect width="104" height="240" fill="white"/>
</clipPath>
</defs>
</svg>
