<svg width="208" height="239" viewBox="0 0 208 239" fill="none" xmlns="http://www.w3.org/2000/svg">
<g filter="url(#filter0_d)">
<path d="M6 58.8131L104 2.30863L202 58.8131V171.818L104 228.322L6 171.818V58.8131Z" stroke="#504A40" stroke-width="4"/>
<path fill-rule="evenodd" clip-rule="evenodd" d="M78.6666 65H76.9999V81.6665H71.6665V87H55V88.6667H71.6665V90H55V91.6666H71.6665V93.0001H55V94.6668H71.6665V96.0001H55V97.6668H71.6665V99.0001H55V100.667H71.6665V102H55V103.667H71.6665V105H55V106.667H71.6665V108H55V109.667H71.6665V111H55V112.667H71.6665V114H55V115.667H71.6665V117H55V118.667H71.6665V120H55V121.667H71.6665V123H55V124.667H71.6665V126H55V127.666H71.6665V129H55V130.667H71.6665V132H55V133.667H71.6665V135H55V136.667H71.6665V138H55V139.667H71.6665V141H55V142.666H71.6665V148.333H138.333V142.666H155V141H138.333V81.6665H132.667V65H131V81.6665H129.667V65H128V81.6665H126.667V65H125V81.6665H123.667V65H122V81.6665H120.666V65H119V81.6665H117.667V65H116V81.6665H114.667V65H113V81.6665H111.667V65H110V81.6665H108.667V65H107V81.6665H105.666V65H104V81.6665H102.667V65H101V81.6665H99.6665V65H97.9999V81.6665H96.6667V65H95.0001V81.6665H93.6666V65H91.9999V81.6665H90.6668V65H89.0001V81.6665H87.6666V65H86V81.6665H84.6665V65H82.9998V81.6665H81.6667V65H80V81.6665H78.6666V65ZM76.9999 148.333H78.6666V165H76.9999V148.333ZM80 148.333H81.6667V165H80V148.333ZM82.9998 148.333H84.6665V165H82.9998V148.333ZM86 148.333H87.6666V165H86V148.333ZM89.0001 148.333H90.6668V165H89.0001V148.333ZM91.9999 148.333H93.6666V165H91.9999V148.333ZM95.0001 148.333H96.6667V165H95.0001V148.333ZM97.9999 148.333H99.6665V165H97.9999V148.333ZM101 148.333H102.667V165H101V148.333ZM104 148.333H105.666V165H104V148.333ZM107 148.333H108.667V165H107V148.333ZM110 148.333H111.667V165H110V148.333ZM113 148.333H114.667V165H113V148.333ZM116 148.333H117.667V165H116V148.333ZM119 148.333H120.666V165H119V148.333ZM122 148.333H123.667V165H122V148.333ZM125 148.333H126.667V165H125V148.333ZM128 148.333H129.667V165H128V148.333ZM138.333 138V139.667H155V138H138.333ZM138.333 136.667V135H155V136.667H138.333ZM138.333 132V133.667H155V132H138.333ZM138.333 130.667V129H155V130.667H138.333ZM138.333 126V127.666H155V126H138.333ZM138.333 124.667V123H155V124.667H138.333ZM138.333 120V121.667H155V120H138.333ZM138.333 118.667V117H155V118.667H138.333ZM138.333 114V115.667H155V114H138.333ZM138.333 112.667V111H155V112.667H138.333ZM138.333 108V109.667H155V108H138.333ZM138.333 106.667V105H155V106.667H138.333ZM138.333 102V103.667H155V102H138.333ZM138.333 100.667V99.0001H155V100.667H138.333ZM138.333 96.0001V97.6668H155V96.0001H138.333ZM138.333 94.6668V93.0001H155V94.6668H138.333ZM138.333 90V91.6666H155V90H138.333ZM138.333 88.6667V87H155V88.6667H138.333ZM131 148.333H132.667V165H131V148.333ZM80 87H81.5H128.938H130.438V88.5V132.015V133.515H128.938H117.881V130.515H127.438V90H83V130.515H92.5571V133.515H81.5H80V132.015V88.5V87ZM100.761 98.4139H99.2608V99.9139V101.624H93.6272H92.1272V103.124V120.958V122.458H93.6272H94.9806V138.614V140.114H96.4806H100.687V143.786H103.687V138.614V133.442H100.687V137.114H97.9806V120.958V119.458H97.9804V117.821H100.761H102.261V116.321V114.611H107.821V116.321V117.821H109.321H112.101V120.958H112.101V120.958V137.114H109.394V133.442H106.394V138.614V143.786H109.394V140.114H113.601H115.101V138.614V122.458H116.455H117.955V120.958V103.124V101.624H116.455H111.534V99.9139V98.4139H110.034H100.761ZM114.955 114.821V104.624H110.034H108.534V103.124V101.414H102.261V103.124V104.624H100.761H95.1272V114.821H96.4804H99.2606V113.111V111.611H100.761H109.321H110.821V113.111V114.821H113.601H114.955Z" fill="#504A40"/>
<g filter="url(#filter1_d)">
<path d="M158.562 183.934H50.0584C47.297 183.934 45.0584 181.696 45.0584 178.934V91.5256C45.0584 88.7641 42.8198 86.5256 40.0584 86.5256H33.9423C29.1431 86.5256 27.1004 80.4209 30.9331 77.5325L101.589 24.2845C103.381 22.934 105.853 22.9427 107.636 24.3057L177.268 77.5538C181.066 80.4582 179.012 86.5256 174.23 86.5256H168.562C165.801 86.5256 163.562 88.7641 163.562 91.5256V178.934C163.562 181.696 161.323 183.934 158.562 183.934Z" stroke="#D64545" stroke-width="5"/>
</g>
</g>
<defs>
<filter id="filter0_d" x="0" y="0" width="208" height="238.631" filterUnits="userSpaceOnUse" color-interpolation-filters="sRGB">
<feFlood flood-opacity="0" result="BackgroundImageFix"/>
<feColorMatrix in="SourceAlpha" type="matrix" values="0 0 0 0 0 0 0 0 0 0 0 0 0 0 0 0 0 0 127 0"/>
<feOffset dy="4"/>
<feGaussianBlur stdDeviation="2"/>
<feColorMatrix type="matrix" values="0 0 0 0 0 0 0 0 0 0 0 0 0 0 0 0 0 0 0.25 0"/>
<feBlend mode="normal" in2="BackgroundImageFix" result="effect1_dropShadow"/>
<feBlend mode="normal" in="SourceGraphic" in2="effect1_dropShadow" result="shape"/>
</filter>
<filter id="filter1_d" x="22.4277" y="20.7775" width="163.317" height="173.657" filterUnits="userSpaceOnUse" color-interpolation-filters="sRGB">
<feFlood flood-opacity="0" result="BackgroundImageFix"/>
<feColorMatrix in="SourceAlpha" type="matrix" values="0 0 0 0 0 0 0 0 0 0 0 0 0 0 0 0 0 0 127 0"/>
<feOffset dy="4"/>
<feGaussianBlur stdDeviation="2"/>
<feColorMatrix type="matrix" values="0 0 0 0 0 0 0 0 0 0 0 0 0 0 0 0 0 0 0.25 0"/>
<feBlend mode="normal" in2="BackgroundImageFix" result="effect1_dropShadow"/>
<feBlend mode="normal" in="SourceGraphic" in2="effect1_dropShadow" result="shape"/>
</filter>
</defs>
</svg>
