<svg width="208" height="241" viewBox="0 0 208 241" fill="none" xmlns="http://www.w3.org/2000/svg">
<g filter="url(#filter0_d)">
<path d="M6 59.3996L104 2.31457L202 59.3996V173.6L104 230.685L6 173.6V59.3996Z" stroke="#857F72" stroke-width="4"/>
<rect x="28.5225" y="61.1602" width="150.955" height="98.3926" rx="3" fill="#C4C4C4" stroke="#504A40" stroke-width="4"/>
<rect x="95.4414" y="161.553" width="16.6667" height="29.5801" fill="#504A40"/>
<path d="M101.676 180.521C103.131 179.757 104.869 179.757 106.324 180.521L119.201 187.28C123.825 189.708 122.1 196.708 116.877 196.708H91.1234C85.9006 196.708 84.1751 189.708 88.7994 187.28L101.676 180.521Z" fill="#504A40"/>
<rect x="31.5271" y="64.666" width="44.4955" height="24.0293" fill="#C4C4C4" stroke="#504A40"/>
<rect x="81.527" y="64.666" width="44.4955" height="24.0293" fill="#C4C4C4" stroke="#504A40"/>
<rect x="131.527" y="64.666" width="44.4955" height="24.0293" fill="#C4C4C4" stroke="#504A40"/>
<rect x="31.5271" y="98.3417" width="44.4955" height="24.0293" fill="#C4C4C4" stroke="#504A40"/>
<rect x="81.527" y="98.3417" width="44.4955" height="24.0293" fill="#C4C4C4" stroke="#504A40"/>
<rect x="131.527" y="98.3417" width="44.4955" height="24.0293" fill="#C4C4C4" stroke="#504A40"/>
<rect x="31.5271" y="132.018" width="44.4955" height="24.0293" fill="#C4C4C4" stroke="#504A40"/>
<rect x="81.527" y="132.018" width="44.4955" height="24.0293" fill="#C4C4C4" stroke="#504A40"/>
<rect x="131.527" y="132.018" width="44.4955" height="24.0293" fill="#C4C4C4" stroke="#504A40"/>
<path d="M98.8695 101.602L114.269 110.584L98.8695 119.566V101.602Z" fill="#63921A"/>
<path d="M98.8695 101.602L114.269 110.584L98.8695 119.566V101.602Z" fill="#63921A"/>
<path d="M98.8695 101.602L114.269 110.584L98.8695 119.566V101.602Z" stroke="#625D52"/>
</g>
<defs>
<filter id="filter0_d" x="0" y="0" width="208" height="241" filterUnits="userSpaceOnUse" color-interpolation-filters="sRGB">
<feFlood flood-opacity="0" result="BackgroundImageFix"/>
<feColorMatrix in="SourceAlpha" type="matrix" values="0 0 0 0 0 0 0 0 0 0 0 0 0 0 0 0 0 0 127 0"/>
<feOffset dy="4"/>
<feGaussianBlur stdDeviation="2"/>
<feColorMatrix type="matrix" values="0 0 0 0 0 0 0 0 0 0 0 0 0 0 0 0 0 0 0.25 0"/>
<feBlend mode="normal" in2="BackgroundImageFix" result="effect1_dropShadow"/>
<feBlend mode="normal" in="SourceGraphic" in2="effect1_dropShadow" result="shape"/>
</filter>
</defs>
</svg>
