<svg width="208" height="241" viewBox="0 0 208 241" fill="none" xmlns="http://www.w3.org/2000/svg">
<g filter="url(#filter0_d)">
<path d="M6 59.3996L104 2.31457L202 59.3996V173.6L104 230.685L6 173.6V59.3996Z" stroke="#857F72" stroke-width="4"/>
<rect x="79.2252" y="66.4414" width="66.6667" height="118.32" rx="5" fill="#504A40"/>
<rect x="82.8289" y="70.082" width="59.009" height="99.6621" fill="#C4C4C4"/>
<ellipse cx="111.883" cy="176.798" rx="6.08108" ry="6.14355" fill="#C4C4C4"/>
<path d="M87.6831 54.6386C87.6191 53.9194 86.9825 53.3849 86.2685 53.4923C81.568 54.1993 77.1968 56.3931 73.7927 59.7755C70.3812 63.1652 68.135 67.5559 67.3619 72.3041C67.2473 73.0076 67.7641 73.6443 68.4728 73.7208C69.1837 73.7975 69.8176 73.2814 69.9378 72.5766C70.645 68.4316 72.6217 64.602 75.6053 61.6374C78.584 58.6777 82.3993 56.7461 86.5056 56.0975C87.217 55.9851 87.747 55.3559 87.6831 54.6386Z" fill="#C4C4C4"/>
<path d="M85.982 47.0136C85.982 46.182 85.3073 45.5034 84.477 45.5502C81.4422 45.7212 78.454 46.4084 75.6392 47.5863C72.3601 48.9584 69.3807 50.9697 66.871 53.5052C64.3613 56.0406 62.3705 59.0507 61.0123 62.3635C59.8425 65.2166 59.1616 68.2463 58.9952 71.3228C58.9508 72.1447 59.6222 72.8125 60.4454 72.8125C61.2685 72.8125 61.9311 72.1446 61.9811 71.323C62.1441 68.6422 62.7462 66.0037 63.7662 63.5159C64.9747 60.5685 66.7459 57.8904 68.9788 55.6346C71.2117 53.3788 73.8625 51.5894 76.7799 50.3685C79.233 49.342 81.8341 48.7343 84.4772 48.5669C85.3072 48.5143 85.982 47.8452 85.982 47.0136Z" fill="#C4C4C4"/>
<path d="M83.7297 37.8336C83.7297 37.0453 83.0904 36.4031 82.3028 36.4367C78.3534 36.6054 74.4601 37.4732 70.8012 39.0043C66.7024 40.7195 62.9781 43.2336 59.841 46.4029C56.7038 49.5723 54.2154 53.3349 52.5176 57.4758C50.9983 61.1812 50.1388 65.1247 49.9749 69.1247C49.9429 69.9043 50.5785 70.5371 51.3587 70.5371C52.139 70.5371 52.7682 69.9042 52.8031 69.1247C52.9653 65.4998 53.7509 61.9273 55.1281 58.5682C56.6839 54.7736 58.9642 51.3258 61.839 48.4215C64.7137 45.5172 68.1265 43.2134 71.8825 41.6417C75.1985 40.254 78.7247 39.4609 82.3029 39.2941C83.0903 39.2574 83.7297 38.6219 83.7297 37.8336Z" fill="#C4C4C4"/>
<rect x="86.9324" y="96.9766" width="50.3514" height="25.8496" fill="#C4C4C4" stroke="#504A40"/>
<rect x="86.4819" y="70.127" width="50.3514" height="19.4785" fill="#C4C4C4" stroke="#504A40"/>
<rect x="86.9324" y="129.742" width="50.3514" height="25.8496" fill="#C4C4C4" stroke="#504A40"/>
<path d="M106.977 133.912L122.377 142.895L106.977 151.877V133.912Z" fill="#63921A"/>
<path d="M106.977 133.912L122.377 142.895L106.977 151.877V133.912Z" fill="#63921A"/>
<path d="M106.977 133.912L122.377 142.895L106.977 151.877V133.912Z" stroke="#625D52"/>
</g>
<defs>
<filter id="filter0_d" x="0" y="0" width="208" height="241" filterUnits="userSpaceOnUse" color-interpolation-filters="sRGB">
<feFlood flood-opacity="0" result="BackgroundImageFix"/>
<feColorMatrix in="SourceAlpha" type="matrix" values="0 0 0 0 0 0 0 0 0 0 0 0 0 0 0 0 0 0 127 0"/>
<feOffset dy="4"/>
<feGaussianBlur stdDeviation="2"/>
<feColorMatrix type="matrix" values="0 0 0 0 0 0 0 0 0 0 0 0 0 0 0 0 0 0 0.25 0"/>
<feBlend mode="normal" in2="BackgroundImageFix" result="effect1_dropShadow"/>
<feBlend mode="normal" in="SourceGraphic" in2="effect1_dropShadow" result="shape"/>
</filter>
</defs>
</svg>
