<svg width="208" height="239" viewBox="0 0 208 239" fill="none" xmlns="http://www.w3.org/2000/svg">
<g filter="url(#filter0_d)">
<path d="M6 58.8131L104 2.30863L202 58.8131V171.818L104 228.322L6 171.818V58.8131Z" stroke="#504A40" stroke-width="4"/>
<rect x="20.7162" y="64.9144" width="166.568" height="48.0991" rx="9.5" fill="#C4C4C4" stroke="#504A40"/>
<rect x="137.383" y="68.5181" width="46.2973" height="15.6667" rx="4.5" fill="white" stroke="#504A40"/>
<path d="M141.866 81.9189H140.595V73.4902L138.045 74.4268V73.2783L141.668 71.918H141.866V81.9189ZM151.608 74.5635C151.608 75.0602 151.475 75.5023 151.211 75.8896C150.951 76.277 150.598 76.5801 150.151 76.7988C150.671 77.0221 151.081 77.348 151.382 77.7764C151.687 78.2048 151.84 78.6901 151.84 79.2324C151.84 80.0938 151.548 80.7796 150.965 81.29C150.386 81.8005 149.623 82.0557 148.675 82.0557C147.718 82.0557 146.95 81.8005 146.371 81.29C145.797 80.7751 145.51 80.0892 145.51 79.2324C145.51 78.6947 145.656 78.2093 145.947 77.7764C146.244 77.3434 146.651 77.0153 147.171 76.792C146.729 76.5732 146.38 76.2702 146.125 75.8828C145.87 75.4954 145.742 75.0557 145.742 74.5635C145.742 73.7249 146.011 73.0596 146.549 72.5674C147.087 72.0752 147.795 71.8291 148.675 71.8291C149.55 71.8291 150.256 72.0752 150.794 72.5674C151.336 73.0596 151.608 73.7249 151.608 74.5635ZM150.575 79.2051C150.575 78.6491 150.398 78.1956 150.042 77.8447C149.691 77.4938 149.231 77.3184 148.661 77.3184C148.092 77.3184 147.634 77.4915 147.287 77.8379C146.945 78.1842 146.775 78.64 146.775 79.2051C146.775 79.7702 146.941 80.2145 147.274 80.5381C147.611 80.8617 148.078 81.0234 148.675 81.0234C149.267 81.0234 149.732 80.8617 150.069 80.5381C150.407 80.21 150.575 79.7656 150.575 79.2051ZM148.675 72.8682C148.178 72.8682 147.775 73.0231 147.465 73.333C147.16 73.6383 147.007 74.0553 147.007 74.584C147.007 75.0898 147.157 75.5 147.458 75.8145C147.763 76.1243 148.169 76.2793 148.675 76.2793C149.181 76.2793 149.584 76.1243 149.885 75.8145C150.19 75.5 150.343 75.0898 150.343 74.584C150.343 74.0781 150.186 73.6657 149.871 73.3467C149.557 73.0277 149.158 72.8682 148.675 72.8682Z" fill="#504A40"/>
<path fill-rule="evenodd" clip-rule="evenodd" d="M164.811 75.9437H170.658C168.437 71.6393 170.844 69.2162 172.651 68.4685V74.3136C172.816 74.5186 172.972 74.7203 173.119 74.9188C177.553 72.5112 180.042 74.9662 180.802 76.8019H174.301C176.484 81.0796 174.087 83.4891 172.286 84.2343V78.3892C172.198 78.28 172.113 78.1718 172.03 78.0645C167.885 80.0614 165.544 77.7145 164.811 75.9437Z" fill="#504A40"/>
<circle cx="155.351" cy="71.1712" r="1.75225" stroke="#504A40"/>
<rect x="22.4685" y="86.4865" width="163.514" height="24.3243" rx="5" fill="#504A40"/>
<path d="M23.8783 92.8613C24.1 90.2749 26.2642 88.2883 28.8601 88.2883H179.59C182.186 88.2883 184.35 90.2749 184.572 92.8613L185.066 98.6271C185.317 101.546 183.015 104.054 180.085 104.054H28.3658C25.4359 104.054 23.1339 101.546 23.3841 98.6271L23.8783 92.8613Z" fill="#C4C4C4"/>
<path d="M175.669 129.759C176.482 129.943 176.709 130.98 176.028 131.461C168.871 136.513 158.796 140.738 146.709 143.741C133.647 146.987 118.726 148.683 103.543 148.648C88.3595 148.613 73.484 146.849 60.5065 143.544C48.5103 140.488 38.5527 136.222 31.5281 131.144C30.8484 130.653 31.0861 129.612 31.9052 129.431C32.1988 129.367 32.5043 129.437 32.7417 129.622C39.573 134.936 49.6633 139.393 61.9765 142.529C74.5154 145.722 88.8881 147.427 103.558 147.461C118.229 147.494 132.645 145.855 145.266 142.719C157.667 139.638 167.877 135.225 174.846 129.938C175.081 129.76 175.382 129.693 175.669 129.759Z" fill="#C4C4C4"/>
<path d="M175.669 142.371C176.482 142.555 176.709 143.593 176.028 144.073C168.871 149.125 158.796 153.35 146.709 156.353C133.647 159.599 118.726 161.295 103.543 161.261C88.3595 161.226 73.484 159.462 60.5065 156.156C48.5103 153.101 38.5527 148.835 31.5281 143.757C30.8484 143.265 31.0861 142.225 31.9052 142.044C32.1988 141.979 32.5043 142.05 32.7417 142.234C39.573 147.549 49.6633 152.005 61.9765 155.141C74.5154 158.335 88.8881 160.04 103.558 160.073C118.229 160.107 132.645 158.468 145.266 155.332C157.667 152.251 167.877 147.838 174.846 142.551C175.081 142.373 175.382 142.306 175.669 142.371Z" fill="#C4C4C4"/>
<path d="M175.669 154.984C176.482 155.168 176.709 156.206 176.028 156.686C168.871 161.738 158.796 165.963 146.709 168.966C133.647 172.212 118.726 173.908 103.543 173.873C88.3595 173.839 73.484 172.074 60.5065 168.769C48.5103 165.713 38.5527 161.447 31.5281 156.369C30.8484 155.878 31.0861 154.837 31.9052 154.657C32.1988 154.592 32.5043 154.663 32.7417 154.847C39.573 160.162 49.6633 164.618 61.9765 167.754C74.5154 170.948 88.8881 172.652 103.558 172.686C118.229 172.72 132.645 171.081 145.266 167.945C157.667 164.863 167.877 160.45 174.846 155.164C175.081 154.985 175.382 154.919 175.669 154.984Z" fill="#C4C4C4"/>
</g>
<defs>
<filter id="filter0_d" x="0" y="0" width="208" height="238.631" filterUnits="userSpaceOnUse" color-interpolation-filters="sRGB">
<feFlood flood-opacity="0" result="BackgroundImageFix"/>
<feColorMatrix in="SourceAlpha" type="matrix" values="0 0 0 0 0 0 0 0 0 0 0 0 0 0 0 0 0 0 127 0"/>
<feOffset dy="4"/>
<feGaussianBlur stdDeviation="2"/>
<feColorMatrix type="matrix" values="0 0 0 0 0 0 0 0 0 0 0 0 0 0 0 0 0 0 0.25 0"/>
<feBlend mode="normal" in2="BackgroundImageFix" result="effect1_dropShadow"/>
<feBlend mode="normal" in="SourceGraphic" in2="effect1_dropShadow" result="shape"/>
</filter>
</defs>
</svg>
