<svg width="331" height="104" viewBox="0 0 331 104" fill="none" xmlns="http://www.w3.org/2000/svg">
<g id="barrier-system">
<g id="caption">
<g id="body">
<rect x="1" y="31" width="247.816" height="41" fill="#D80000"/>
<rect x="1" y="31" width="247.816" height="41" fill="url(#paint0_linear)"/>
</g>
<path id="top" d="M249.322 31L264.494 22H141.598H18.7011L3.02295 31H249.322Z" fill="url(#paint1_linear)"/>
<path id="bottom" d="M249.322 72H3.02295L18.7011 81H265L249.322 72Z" fill="url(#paint2_linear)"/>
<path id="text" d="M71.805 53.9395C71.6468 55.293 71.1459 56.3389 70.3021 57.0771C69.4642 57.8096 68.348 58.1758 66.9535 58.1758C65.4418 58.1758 64.2289 57.6338 63.3148 56.5498C62.4066 55.4658 61.9525 54.0156 61.9525 52.1992V50.9688C61.9525 49.7793 62.1634 48.7334 62.5853 47.8311C63.013 46.9287 63.6166 46.2373 64.3959 45.7568C65.1752 45.2705 66.0775 45.0273 67.1029 45.0273C68.4623 45.0273 69.5521 45.4082 70.3724 46.1699C71.1927 46.9258 71.6703 47.9746 71.805 49.3164H70.1087C69.9623 48.2969 69.6429 47.5586 69.1507 47.1016C68.6644 46.6445 67.9818 46.416 67.1029 46.416C66.0248 46.416 65.1781 46.8145 64.5629 47.6113C63.9535 48.4082 63.6488 49.542 63.6488 51.0127V52.252C63.6488 53.6406 63.9388 54.7451 64.5189 55.5654C65.099 56.3857 65.9105 56.7959 66.9535 56.7959C67.891 56.7959 68.6087 56.585 69.1068 56.1631C69.6107 55.7354 69.9447 54.9941 70.1087 53.9395H71.805ZM82.1849 45.2031H83.8724V58H82.1849V48.1387L75.8832 58H74.1869V45.2031H75.8832V55.0645L82.1849 45.2031ZM96.3617 53.9395C96.2035 55.293 95.7025 56.3389 94.8587 57.0771C94.0209 57.8096 92.9046 58.1758 91.5101 58.1758C89.9984 58.1758 88.7855 57.6338 87.8714 56.5498C86.9632 55.4658 86.5091 54.0156 86.5091 52.1992V50.9688C86.5091 49.7793 86.7201 48.7334 87.142 47.8311C87.5697 46.9287 88.1732 46.2373 88.9525 45.7568C89.7318 45.2705 90.6341 45.0273 91.6595 45.0273C93.0189 45.0273 94.1087 45.4082 94.9291 46.1699C95.7494 46.9258 96.2269 47.9746 96.3617 49.3164H94.6654C94.5189 48.2969 94.1996 47.5586 93.7074 47.1016C93.2211 46.6445 92.5384 46.416 91.6595 46.416C90.5814 46.416 89.7347 46.8145 89.1195 47.6113C88.5101 48.4082 88.2054 49.542 88.2054 51.0127V52.252C88.2054 53.6406 88.4955 54.7451 89.0755 55.5654C89.6556 56.3857 90.4671 56.7959 91.5101 56.7959C92.4476 56.7959 93.1654 56.585 93.6634 56.1631C94.1673 55.7354 94.5013 54.9941 94.6654 53.9395H96.3617ZM107.251 46.5918H103.138V58H101.459V46.5918H97.3548V45.2031H107.251V46.5918ZM116.383 52.085H110.837V56.6201H117.28V58H109.15V45.2031H117.192V46.5918H110.837V50.7051H116.383V52.085ZM121.56 45.2031L125.744 55.6445L129.927 45.2031H132.116V58H130.428V53.0166L130.586 47.6377L126.385 58H125.093L120.901 47.6641L121.068 53.0166V58H119.38V45.2031H121.56ZM136.862 50.4238H140.043C141.379 50.4414 142.422 50.7842 143.172 51.4521C143.922 52.1201 144.297 53.0283 144.297 54.1768C144.297 55.3311 143.919 56.251 143.163 56.9365C142.408 57.6221 141.376 57.9766 140.07 58H135.174V45.2031H136.862V50.4238ZM136.862 51.8125V56.6201H139.947C140.785 56.6201 141.435 56.3975 141.898 55.9521C142.367 55.5068 142.601 54.9092 142.601 54.1592C142.601 53.4385 142.375 52.8701 141.924 52.4541C141.479 52.0381 140.843 51.8242 140.017 51.8125H136.862ZM147.532 58H145.844V45.2031H147.532V58ZM166.648 61.1377H164.969V58H155.785V61.1465H154.097L154.088 56.6201H155.134C155.685 55.999 156.121 55.167 156.444 54.124C156.772 53.0752 156.977 51.9268 157.059 50.6787L157.34 45.2031H164.995V56.6201H166.665L166.648 61.1377ZM157.059 56.6201H163.299V46.5918H158.966L158.782 50.3535C158.705 51.8242 158.509 53.0781 158.193 54.1152C157.882 55.1523 157.504 55.9873 157.059 56.6201ZM178.302 52.0146C178.302 53.2686 178.091 54.3643 177.669 55.3018C177.247 56.2334 176.65 56.9453 175.876 57.4375C175.103 57.9297 174.201 58.1758 173.169 58.1758C172.161 58.1758 171.268 57.9297 170.489 57.4375C169.709 56.9395 169.103 56.2334 168.669 55.3193C168.242 54.3994 168.022 53.3359 168.01 52.1289V51.2061C168.01 49.9756 168.224 48.8887 168.652 47.9453C169.079 47.002 169.683 46.2812 170.462 45.7832C171.247 45.2793 172.144 45.0273 173.152 45.0273C174.177 45.0273 175.079 45.2764 175.859 45.7744C176.644 46.2666 177.247 46.9844 177.669 47.9277C178.091 48.8652 178.302 49.958 178.302 51.2061V52.0146ZM176.623 51.1885C176.623 49.6709 176.319 48.5078 175.709 47.6992C175.1 46.8848 174.247 46.4775 173.152 46.4775C172.085 46.4775 171.244 46.8848 170.629 47.6992C170.02 48.5078 169.706 49.6328 169.689 51.0742V52.0146C169.689 53.4854 169.996 54.6426 170.612 55.4863C171.233 56.3242 172.085 56.7432 173.169 56.7432C174.259 56.7432 175.103 56.3477 175.701 55.5566C176.298 54.7598 176.606 53.6201 176.623 52.1377V51.1885ZM190.246 53.9395C190.088 55.293 189.587 56.3389 188.744 57.0771C187.906 57.8096 186.789 58.1758 185.395 58.1758C183.883 58.1758 182.67 57.6338 181.756 56.5498C180.848 55.4658 180.394 54.0156 180.394 52.1992V50.9688C180.394 49.7793 180.605 48.7334 181.027 47.8311C181.454 46.9287 182.058 46.2373 182.837 45.7568C183.617 45.2705 184.519 45.0273 185.544 45.0273C186.904 45.0273 187.994 45.4082 188.814 46.1699C189.634 46.9258 190.112 47.9746 190.246 49.3164H188.55C188.404 48.2969 188.084 47.5586 187.592 47.1016C187.106 46.6445 186.423 46.416 185.544 46.416C184.466 46.416 183.619 46.8145 183.004 47.6113C182.395 48.4082 182.09 49.542 182.09 51.0127V52.252C182.09 53.6406 182.38 54.7451 182.96 55.5654C183.54 56.3857 184.352 56.7959 185.395 56.7959C186.332 56.7959 187.05 56.585 187.548 56.1631C188.052 55.7354 188.386 54.9941 188.55 53.9395H190.246ZM201.136 46.5918H197.023V58H195.344V46.5918H191.24V45.2031H201.136V46.5918ZM207.429 52.6299L210.373 45.2031H212.333L207.807 55.8643C207.502 56.5439 207.218 57.0273 206.954 57.3145C206.691 57.5957 206.38 57.8125 206.023 57.9648C205.671 58.1113 205.229 58.1846 204.696 58.1846C204.233 58.1846 203.937 58.1582 203.808 58.1055L203.861 56.7695L204.661 56.8047C205.276 56.8047 205.733 56.5088 206.032 55.917L206.251 55.46L206.585 54.6777L202.226 45.2031H204.116L207.429 52.6299ZM224.128 58H222.432V46.5918H216.121V58H214.434V45.2031H224.128V58ZM234.271 54.6602H228.91L227.705 58H225.965L230.852 45.2031H232.328L237.224 58H235.493L234.271 54.6602ZM229.419 53.2715H233.77L231.59 47.2861L229.419 53.2715Z" fill="#FAF9F7"/>
<path id="side" d="M19.2069 21L1 31.5V71.5L19.2069 82" stroke="#423D33" stroke-width="2"/>
</g>
<g id="polygon" filter="url(#filter0_d)">
<path d="M285 10L321 30.7568V72.2703L285 93.027L249 72.2703V30.7568L285 10Z" fill="url(#paint3_radial)"/>
<path d="M250 31.3345L285 11.1543L320 31.3345V71.6925L285 91.8727L250 71.6925V31.3345Z" stroke="#423D33" stroke-width="2"/>
</g>
<g id="Subtract" filter="url(#filter1_d)">
<path fill-rule="evenodd" clip-rule="evenodd" d="M272.095 68.8594V51.6264L313.6 38.9371L312.396 35L272.095 47.3213V45.2043H256V68.8594H272.095ZM263.682 55.4466C265.231 55.4466 266.487 54.191 266.487 52.6422C266.487 51.0933 265.231 49.8377 263.682 49.8377C262.133 49.8377 260.878 51.0933 260.878 52.6422C260.878 54.191 262.133 55.4466 263.682 55.4466ZM278.923 45.692L280.874 45.0823L279.777 48.9842L277.704 49.5938L278.923 45.692ZM291.605 41.7901L289.654 42.3997L288.434 46.3016L290.507 45.692L291.605 41.7901ZM298.92 39.4733L300.871 38.8637L299.774 42.7655L297.701 43.3752L298.92 39.4733ZM310.382 35.9373L308.431 36.5469L307.212 40.4488L309.285 39.8391L310.382 35.9373Z" fill="#D80000"/>
</g>
</g>
<defs>
<filter id="filter0_d" x="239" y="0" width="92" height="103.027" filterUnits="userSpaceOnUse" color-interpolation-filters="sRGB">
<feFlood flood-opacity="0" result="BackgroundImageFix"/>
<feColorMatrix in="SourceAlpha" type="matrix" values="0 0 0 0 0 0 0 0 0 0 0 0 0 0 0 0 0 0 127 0"/>
<feOffset/>
<feGaussianBlur stdDeviation="5"/>
<feColorMatrix type="matrix" values="0 0 0 0 0 0 0 0 0 0 0 0 0 0 0 0 0 0 0.25 0"/>
<feBlend mode="normal" in2="BackgroundImageFix" result="effect1_dropShadow"/>
<feBlend mode="normal" in="SourceGraphic" in2="effect1_dropShadow" result="shape"/>
</filter>
<filter id="filter1_d" x="252" y="35" width="65.6001" height="41.8594" filterUnits="userSpaceOnUse" color-interpolation-filters="sRGB">
<feFlood flood-opacity="0" result="BackgroundImageFix"/>
<feColorMatrix in="SourceAlpha" type="matrix" values="0 0 0 0 0 0 0 0 0 0 0 0 0 0 0 0 0 0 127 0"/>
<feOffset dy="4"/>
<feGaussianBlur stdDeviation="2"/>
<feColorMatrix type="matrix" values="0 0 0 0 0 0 0 0 0 0 0 0 0 0 0 0 0 0 0.25 0"/>
<feBlend mode="normal" in2="BackgroundImageFix" result="effect1_dropShadow"/>
<feBlend mode="normal" in="SourceGraphic" in2="effect1_dropShadow" result="shape"/>
</filter>
<linearGradient id="paint0_linear" x1="124.908" y1="31" x2="124.908" y2="72" gradientUnits="userSpaceOnUse">
<stop stop-color="#D80000"/>
<stop offset="0.489342" stop-color="#DC9090" stop-opacity="0.510658"/>
<stop offset="1" stop-color="#D80000"/>
</linearGradient>
<linearGradient id="paint1_linear" x1="133.759" y1="22" x2="133.759" y2="31" gradientUnits="userSpaceOnUse">
<stop stop-color="white" stop-opacity="0"/>
<stop offset="1" stop-color="#D3CEC4"/>
</linearGradient>
<linearGradient id="paint2_linear" x1="134.011" y1="72" x2="134.011" y2="81" gradientUnits="userSpaceOnUse">
<stop stop-color="#D3CEC4"/>
<stop offset="1" stop-color="white" stop-opacity="0"/>
</linearGradient>
<radialGradient id="paint3_radial" cx="0" cy="0" r="1" gradientUnits="userSpaceOnUse" gradientTransform="translate(285 51.5135) rotate(90) scale(41.4865 35.9766)">
<stop stop-color="white" stop-opacity="0"/>
<stop offset="1" stop-color="#E8E6E1"/>
</radialGradient>
</defs>
</svg>
