<svg width="208" height="239" viewBox="0 0 208 239" fill="none" xmlns="http://www.w3.org/2000/svg">
<g filter="url(#filter0_dd)">
<path d="M6 58.8131L104 2.30863L202 58.8131V171.818L104 228.322L6 171.818V58.8131Z" stroke="#504A40" stroke-width="4"/>
<rect x="31.0271" y="104.054" width="18.018" height="61.7117" fill="#504A40"/>
<rect x="173.369" y="104.054" width="12" height="61.7117" fill="#504A40"/>
<rect x="17.5137" y="130.631" width="175.676" height="10" rx="4" transform="rotate(-25 17.5137 130.631)" fill="#504A40"/>
<rect x="53.5496" y="114.414" width="15.7658" height="8" transform="rotate(-25 53.5496 114.414)" fill="#F0B429"/>
<rect x="79.6758" y="102.158" width="15.7658" height="8" transform="rotate(-25 79.6758 102.158)" fill="#F0B429"/>
<rect x="105.802" y="89.9023" width="15.7658" height="8" transform="rotate(-25 105.802 89.9023)" fill="#F0B429"/>
<rect x="131.928" y="77.6464" width="15.7658" height="8" transform="rotate(-25 131.928 77.6464)" fill="#F0B429"/>
<rect x="158.054" y="65.3904" width="15.7658" height="8" transform="rotate(-25 158.054 65.3904)" fill="#F0B429"/>
<rect x="32" y="115" width="15.7658" height="8" fill="#F0B429"/>
<rect x="175" y="122.766" width="15.7658" height="8" transform="rotate(-90 175 122.766)" fill="#F0B429"/>
</g>
<defs>
<filter id="filter0_dd" x="0" y="0" width="208" height="238.631" filterUnits="userSpaceOnUse" color-interpolation-filters="sRGB">
<feFlood flood-opacity="0" result="BackgroundImageFix"/>
<feColorMatrix in="SourceAlpha" type="matrix" values="0 0 0 0 0 0 0 0 0 0 0 0 0 0 0 0 0 0 127 0"/>
<feOffset dy="4"/>
<feGaussianBlur stdDeviation="2"/>
<feColorMatrix type="matrix" values="0 0 0 0 0 0 0 0 0 0 0 0 0 0 0 0 0 0 0.25 0"/>
<feBlend mode="normal" in2="BackgroundImageFix" result="effect1_dropShadow"/>
<feColorMatrix in="SourceAlpha" type="matrix" values="0 0 0 0 0 0 0 0 0 0 0 0 0 0 0 0 0 0 127 0"/>
<feOffset dy="4"/>
<feGaussianBlur stdDeviation="2"/>
<feColorMatrix type="matrix" values="0 0 0 0 0 0 0 0 0 0 0 0 0 0 0 0 0 0 0.25 0"/>
<feBlend mode="normal" in2="effect1_dropShadow" result="effect2_dropShadow"/>
<feBlend mode="normal" in="SourceGraphic" in2="effect2_dropShadow" result="shape"/>
</filter>
</defs>
</svg>
