<svg width="331" height="104" viewBox="0 0 331 104" fill="none" xmlns="http://www.w3.org/2000/svg">
<g id="clever-home">
<g id="caption">
<g id="body">
<rect x="1" y="31" width="247.816" height="41" fill="#D80000"/>
<rect x="1" y="31" width="247.816" height="41" fill="url(#paint0_linear)"/>
</g>
<path id="top" d="M249.322 31L264.494 22H141.598H18.7011L3.02295 31H249.322Z" fill="url(#paint1_linear)"/>
<path id="bottom" d="M249.322 72H3.02295L18.7011 81H265L249.322 72Z" fill="url(#paint2_linear)"/>
<path id="text" d="M97.9877 52.6299L100.932 45.2031H102.892L98.3656 55.8643C98.0609 56.5439 97.7767 57.0273 97.513 57.3145C97.2494 57.5957 96.9388 57.8125 96.5814 57.9648C96.2298 58.1113 95.7875 58.1846 95.2543 58.1846C94.7914 58.1846 94.4955 58.1582 94.3666 58.1055L94.4193 56.7695L95.2191 56.8047C95.8343 56.8047 96.2914 56.5088 96.5902 55.917L96.8099 55.46L97.1439 54.6777L92.7845 45.2031H94.6742L97.9877 52.6299ZM107.093 45.2031L111.277 55.6445L115.46 45.2031H117.649V58H115.961V53.0166L116.119 47.6377L111.918 58H110.626L106.434 47.6641L106.601 53.0166V58H104.913V45.2031H107.093ZM130.463 58H128.767V52.085H122.316V58H120.628V45.2031H122.316V50.7051H128.767V45.2031H130.463V58ZM135.227 50.4238H138.409C139.744 50.4414 140.787 50.7842 141.537 51.4521C142.287 52.1201 142.662 53.0283 142.662 54.1768C142.662 55.3311 142.285 56.251 141.529 56.9365C140.773 57.6221 139.742 57.9766 138.435 58H133.539V45.2031H135.227V50.4238ZM135.227 51.8125V56.6201H138.312C139.15 56.6201 139.8 56.3975 140.263 55.9521C140.732 55.5068 140.966 54.9092 140.966 54.1592C140.966 53.4385 140.741 52.8701 140.289 52.4541C139.844 52.0381 139.208 51.8242 138.382 51.8125H135.227ZM145.897 58H144.209V45.2031H145.897V58ZM157.103 45.2031H158.79V58H157.103V48.1387L150.801 58H149.105V45.2031H150.801V55.0645L157.103 45.2031ZM156.628 42.0215C156.628 42.7305 156.385 43.3018 155.899 43.7354C155.418 44.1631 154.786 44.377 154 44.377C153.215 44.377 152.579 44.1602 152.093 43.7266C151.607 43.293 151.364 42.7246 151.364 42.0215H152.691C152.691 42.4316 152.802 42.7539 153.025 42.9883C153.247 43.2168 153.573 43.3311 154 43.3311C154.411 43.3311 154.73 43.2168 154.958 42.9883C155.193 42.7598 155.31 42.4375 155.31 42.0215H156.628ZM177.845 61.1377H176.166V58H166.982V61.1465H165.294L165.286 56.6201H166.331C166.882 55.999 167.319 55.167 167.641 54.124C167.969 53.0752 168.174 51.9268 168.256 50.6787L168.537 45.2031H176.193V56.6201H177.863L177.845 61.1377ZM168.256 56.6201H174.496V46.5918H170.163L169.979 50.3535C169.903 51.8242 169.706 53.0781 169.39 54.1152C169.079 55.1523 168.702 55.9873 168.256 56.6201ZM189.499 52.0146C189.499 53.2686 189.288 54.3643 188.867 55.3018C188.445 56.2334 187.847 56.9453 187.074 57.4375C186.3 57.9297 185.398 58.1758 184.367 58.1758C183.359 58.1758 182.465 57.9297 181.686 57.4375C180.907 56.9395 180.3 56.2334 179.867 55.3193C179.439 54.3994 179.219 53.3359 179.207 52.1289V51.2061C179.207 49.9756 179.421 48.8887 179.849 47.9453C180.277 47.002 180.88 46.2812 181.66 45.7832C182.445 45.2793 183.341 45.0273 184.349 45.0273C185.374 45.0273 186.277 45.2764 187.056 45.7744C187.841 46.2666 188.445 46.9844 188.867 47.9277C189.288 48.8652 189.499 49.958 189.499 51.2061V52.0146ZM187.821 51.1885C187.821 49.6709 187.516 48.5078 186.907 47.6992C186.297 46.8848 185.445 46.4775 184.349 46.4775C183.283 46.4775 182.442 46.8848 181.827 47.6992C181.217 48.5078 180.904 49.6328 180.886 51.0742V52.0146C180.886 53.4854 181.194 54.6426 181.809 55.4863C182.43 56.3242 183.283 56.7432 184.367 56.7432C185.456 56.7432 186.3 56.3477 186.898 55.5566C187.495 54.7598 187.803 53.6201 187.821 52.1377V51.1885ZM194.21 45.2031L198.394 55.6445L202.577 45.2031H204.766V58H203.078V53.0166L203.237 47.6377L199.036 58H197.744L193.551 47.6641L193.718 53.0166V58H192.031V45.2031H194.21Z" fill="#FAF9F7"/>
<path id="side" d="M19.2069 21L1 31.5V71.5L19.2069 82" stroke="#423D33" stroke-width="2"/>
</g>
<g id="polygon" filter="url(#filter0_d)">
<path d="M285 10L321 30.7568V72.2703L285 93.027L249 72.2703V30.7568L285 10Z" fill="url(#paint3_radial)"/>
<path d="M250 31.3345L285 11.1543L320 31.3345V71.6925L285 91.8727L250 71.6925V31.3345Z" stroke="#423D33" stroke-width="2"/>
</g>
<g id="dostup" filter="url(#filter1_d)">
<path fill-rule="evenodd" clip-rule="evenodd" d="M258.487 34.6654C258.487 32.6411 260.128 31 262.153 31C264.177 31 265.818 32.6411 265.818 34.6655V40.1636C265.818 40.2277 265.817 40.2914 265.813 40.3546L313.6 51.2909V61.8946L265.651 41.26C265.613 41.3825 265.569 41.5022 265.518 41.6188L313.207 69.0945L303.651 74.5927L265.126 42.3083C265.085 42.3639 265.044 42.4184 265.001 42.4716L298.153 77.8654L289.251 83.2327L264.234 43.1816C264.119 43.261 263.999 43.334 263.875 43.4001L282.705 84.8036L271.316 77.7346L262.932 43.746C262.815 43.7714 262.696 43.7911 262.575 43.805L265.949 74.9855L256 69.0946L261.344 43.7395C259.709 43.3712 258.487 41.9101 258.487 40.1636V34.6654ZM262.153 41.4727C262.876 41.4727 263.462 40.8866 263.462 40.1636C263.462 39.4406 262.876 38.8545 262.153 38.8545C261.43 38.8545 260.844 39.4406 260.844 40.1636C260.844 40.8866 261.43 41.4727 262.153 41.4727Z" fill="#D80000"/>
</g>
</g>
<defs>
<filter id="filter0_d" x="239" y="0" width="92" height="103.027" filterUnits="userSpaceOnUse" color-interpolation-filters="sRGB">
<feFlood flood-opacity="0" result="BackgroundImageFix"/>
<feColorMatrix in="SourceAlpha" type="matrix" values="0 0 0 0 0 0 0 0 0 0 0 0 0 0 0 0 0 0 127 0"/>
<feOffset/>
<feGaussianBlur stdDeviation="5"/>
<feColorMatrix type="matrix" values="0 0 0 0 0 0 0 0 0 0 0 0 0 0 0 0 0 0 0.25 0"/>
<feBlend mode="normal" in2="BackgroundImageFix" result="effect1_dropShadow"/>
<feBlend mode="normal" in="SourceGraphic" in2="effect1_dropShadow" result="shape"/>
</filter>
<filter id="filter1_d" x="252" y="31" width="65.6001" height="61.8036" filterUnits="userSpaceOnUse" color-interpolation-filters="sRGB">
<feFlood flood-opacity="0" result="BackgroundImageFix"/>
<feColorMatrix in="SourceAlpha" type="matrix" values="0 0 0 0 0 0 0 0 0 0 0 0 0 0 0 0 0 0 127 0"/>
<feOffset dy="4"/>
<feGaussianBlur stdDeviation="2"/>
<feColorMatrix type="matrix" values="0 0 0 0 0 0 0 0 0 0 0 0 0 0 0 0 0 0 0.25 0"/>
<feBlend mode="normal" in2="BackgroundImageFix" result="effect1_dropShadow"/>
<feBlend mode="normal" in="SourceGraphic" in2="effect1_dropShadow" result="shape"/>
</filter>
<linearGradient id="paint0_linear" x1="124.908" y1="31" x2="124.908" y2="72" gradientUnits="userSpaceOnUse">
<stop stop-color="#D80000"/>
<stop offset="0.489342" stop-color="#DC9090" stop-opacity="0.510658"/>
<stop offset="1" stop-color="#D80000"/>
</linearGradient>
<linearGradient id="paint1_linear" x1="133.759" y1="22" x2="133.759" y2="31" gradientUnits="userSpaceOnUse">
<stop stop-color="white" stop-opacity="0"/>
<stop offset="1" stop-color="#D3CEC4"/>
</linearGradient>
<linearGradient id="paint2_linear" x1="134.011" y1="72" x2="134.011" y2="81" gradientUnits="userSpaceOnUse">
<stop stop-color="#D3CEC4"/>
<stop offset="1" stop-color="white" stop-opacity="0"/>
</linearGradient>
<radialGradient id="paint3_radial" cx="0" cy="0" r="1" gradientUnits="userSpaceOnUse" gradientTransform="translate(285 51.5135) rotate(90) scale(41.4865 35.9766)">
<stop stop-color="white" stop-opacity="0"/>
<stop offset="1" stop-color="#E8E6E1"/>
</radialGradient>
</defs>
</svg>
