<svg width="331" height="104" viewBox="0 0 331 104" fill="none" xmlns="http://www.w3.org/2000/svg">
<g id="conditioner">
<g id="caption">
<g id="body">
<rect x="1" y="31" width="247.816" height="41" fill="#D80000"/>
<rect x="1" y="31" width="247.816" height="41" fill="url(#paint0_linear)"/>
</g>
<path id="top" d="M249.322 31L264.494 22H141.598H18.7011L3.02295 31H249.322Z" fill="url(#paint1_linear)"/>
<path id="bottom" d="M249.322 72H3.02295L18.7011 81H265L249.322 72Z" fill="url(#paint2_linear)"/>
<path id="text" d="M78.2826 52.252H76.7269V58H75.0394V45.2031H76.7269V50.8457H78.0453L82.5189 45.2031H84.6195L79.7328 51.4082L84.9798 58H82.9144L78.2826 52.252ZM96.0892 52.0146C96.0892 53.2686 95.8783 54.3643 95.4564 55.3018C95.0345 56.2334 94.4369 56.9453 93.6634 57.4375C92.89 57.9297 91.9877 58.1758 90.9564 58.1758C89.9486 58.1758 89.055 57.9297 88.2757 57.4375C87.4964 56.9395 86.89 56.2334 86.4564 55.3193C86.0287 54.3994 85.8089 53.3359 85.7972 52.1289V51.2061C85.7972 49.9756 86.0111 48.8887 86.4388 47.9453C86.8666 47.002 87.4701 46.2812 88.2494 45.7832C89.0345 45.2793 89.931 45.0273 90.9388 45.0273C91.9642 45.0273 92.8666 45.2764 93.6459 45.7744C94.431 46.2666 95.0345 46.9844 95.4564 47.9277C95.8783 48.8652 96.0892 49.958 96.0892 51.2061V52.0146ZM94.4105 51.1885C94.4105 49.6709 94.1058 48.5078 93.4964 47.6992C92.8871 46.8848 92.0345 46.4775 90.9388 46.4775C89.8724 46.4775 89.0316 46.8848 88.4164 47.6992C87.807 48.5078 87.4935 49.6328 87.4759 51.0742V52.0146C87.4759 53.4854 87.7836 54.6426 88.3988 55.4863C89.0199 56.3242 89.8724 56.7432 90.9564 56.7432C92.0462 56.7432 92.89 56.3477 93.4877 55.5566C94.0853 54.7598 94.3929 53.6201 94.4105 52.1377V51.1885ZM108.455 58H106.759V52.085H100.308V58H98.6205V45.2031H100.308V50.7051H106.759V45.2031H108.455V58ZM123.16 61.1377H121.481V58H112.296V61.1465H110.609L110.6 56.6201H111.646C112.197 55.999 112.633 55.167 112.955 54.124C113.284 53.0752 113.489 51.9268 113.571 50.6787L113.852 45.2031H121.507V56.6201H123.177L123.16 61.1377ZM113.571 56.6201H119.811V46.5918H115.478L115.293 50.3535C115.217 51.8242 115.021 53.0781 114.704 54.1152C114.394 55.1523 114.016 55.9873 113.571 56.6201ZM133.249 45.2031H134.937V58H133.249V48.1387L126.948 58H125.251V45.2031H126.948V55.0645L133.249 45.2031ZM138.066 45.2031H139.762V56.6201H146.073V45.2031H147.76V56.585H149.105L148.947 61.085H147.426V58H138.066V45.2031ZM159.247 45.2031H160.935V58H159.247V48.1387L152.946 58H151.249V45.2031H152.946V55.0645L159.247 45.2031ZM173.855 52.0146C173.855 53.2686 173.644 54.3643 173.222 55.3018C172.8 56.2334 172.202 56.9453 171.429 57.4375C170.656 57.9297 169.753 58.1758 168.722 58.1758C167.714 58.1758 166.821 57.9297 166.041 57.4375C165.262 56.9395 164.656 56.2334 164.222 55.3193C163.794 54.3994 163.575 53.3359 163.563 52.1289V51.2061C163.563 49.9756 163.777 48.8887 164.204 47.9453C164.632 47.002 165.236 46.2812 166.015 45.7832C166.8 45.2793 167.697 45.0273 168.704 45.0273C169.73 45.0273 170.632 45.2764 171.411 45.7744C172.197 46.2666 172.8 46.9844 173.222 47.9277C173.644 48.8652 173.855 49.958 173.855 51.2061V52.0146ZM172.176 51.1885C172.176 49.6709 171.871 48.5078 171.262 47.6992C170.653 46.8848 169.8 46.4775 168.704 46.4775C167.638 46.4775 166.797 46.8848 166.182 47.6992C165.573 48.5078 165.259 49.6328 165.242 51.0742V52.0146C165.242 53.4854 165.549 54.6426 166.164 55.4863C166.786 56.3242 167.638 56.7432 168.722 56.7432C169.812 56.7432 170.656 56.3477 171.253 55.5566C171.851 54.7598 172.159 53.6201 172.176 52.1377V51.1885ZM186.221 58H184.525V52.085H178.074V58H176.386V45.2031H178.074V50.7051H184.525V45.2031H186.221V58ZM196.452 52.085H190.906V56.6201H197.348V58H189.218V45.2031H197.26V46.5918H190.906V50.7051H196.452V52.085ZM201.136 52.9902V58H199.449V45.2031H204.168C205.569 45.2031 206.664 45.5605 207.455 46.2754C208.252 46.9902 208.651 47.9365 208.651 49.1143C208.651 50.3564 208.261 51.3145 207.482 51.9883C206.708 52.6562 205.598 52.9902 204.151 52.9902H201.136ZM201.136 51.6104H204.168C205.071 51.6104 205.762 51.3994 206.243 50.9775C206.723 50.5498 206.963 49.9346 206.963 49.1318C206.963 48.3701 206.723 47.7607 206.243 47.3037C205.762 46.8467 205.103 46.6094 204.265 46.5918H201.136V51.6104ZM212.571 50.4238H215.752C217.088 50.4414 218.131 50.7842 218.881 51.4521C219.631 52.1201 220.006 53.0283 220.006 54.1768C220.006 55.3311 219.628 56.251 218.872 56.9365C218.117 57.6221 217.085 57.9766 215.779 58H210.883V45.2031H212.571V50.4238ZM212.571 51.8125V56.6201H215.656C216.494 56.6201 217.144 56.3975 217.607 55.9521C218.076 55.5068 218.31 54.9092 218.31 54.1592C218.31 53.4385 218.084 52.8701 217.633 52.4541C217.188 52.0381 216.552 51.8242 215.726 51.8125H212.571ZM223.241 58H221.553V45.2031H223.241V58Z" fill="#FAF9F7"/>
<path id="side" d="M19.2069 21L1 31.5V71.5L19.2069 82" stroke="#423D33" stroke-width="2"/>
</g>
<g id="polygon" filter="url(#filter0_d)">
<path d="M285 10L321 30.7568V72.2703L285 93.027L249 72.2703V30.7568L285 10Z" fill="url(#paint3_radial)"/>
<path d="M250 31.3345L285 11.1543L320 31.3345V71.6925L285 91.8727L250 71.6925V31.3345Z" stroke="#423D33" stroke-width="2"/>
</g>
<g id="fun" filter="url(#filter1_d)">
<path id="Subtract" fill-rule="evenodd" clip-rule="evenodd" d="M258 34C256.895 34 256 34.8954 256 36V48.8774C256 49.982 256.895 50.8774 258 50.8774H311.6C312.705 50.8774 313.6 49.982 313.6 48.8774V36C313.6 34.8954 312.705 34 311.6 34H258ZM297.103 35.2387C296.551 35.2387 296.103 35.6864 296.103 36.2387V39.9678C296.103 40.52 296.551 40.9678 297.103 40.9678H311.361C311.913 40.9678 312.361 40.52 312.361 39.9678V36.2387C312.361 35.6864 311.913 35.2387 311.361 35.2387H297.103Z" fill="#D80000"/>
<rect id="Rectangle 25" x="256.774" y="41.5871" width="56.2065" height="8.36129" rx="1" fill="#504A40"/>
<path id="Rectangle 26" d="M257.315 43.1211C257.36 42.6038 257.792 42.2065 258.312 42.2065H311.443C311.963 42.2065 312.395 42.6038 312.44 43.1211L312.733 46.5404C312.783 47.1242 312.322 47.6258 311.736 47.6258H258.018C257.432 47.6258 256.972 47.1242 257.022 46.5404L257.315 43.1211Z" fill="#D80000"/>
<path id="Ellipse 9" d="M309.436 56.4616C309.715 56.5249 309.793 56.8815 309.559 57.0467C307.099 58.7832 303.636 60.2355 299.481 61.2678C294.991 62.3836 289.862 62.9666 284.643 62.9547C279.424 62.9427 274.31 62.3362 269.849 61.2C265.726 60.1498 262.303 58.6833 259.888 56.9378C259.655 56.7689 259.736 56.4112 260.018 56.349V56.349C260.119 56.3268 260.224 56.3511 260.306 56.4146C262.654 58.2413 266.122 59.7731 270.355 60.8512C274.665 61.949 279.605 62.535 284.648 62.5465C289.691 62.558 294.646 61.9947 298.985 60.9167C303.248 59.8575 306.757 58.3406 309.153 56.5233C309.234 56.462 309.337 56.4391 309.436 56.4616V56.4616Z" fill="#D80000"/>
<path id="Ellipse 10" d="M309.436 60.797C309.715 60.8603 309.793 61.217 309.559 61.3821C307.099 63.1186 303.636 64.571 299.481 65.6033C294.991 66.719 289.862 67.3021 284.643 67.2901C279.424 67.2782 274.31 66.6717 269.849 65.5355C265.726 64.4852 262.303 63.0188 259.888 61.2733C259.655 61.1044 259.736 60.7467 260.018 60.6845V60.6845C260.119 60.6622 260.224 60.6866 260.306 60.75C262.654 62.5768 266.122 64.1086 270.355 65.1866C274.665 66.2844 279.605 66.8704 284.648 66.882C289.691 66.8935 294.646 66.3301 298.985 65.2521C303.248 64.193 306.757 62.6761 309.153 60.8588C309.234 60.7975 309.337 60.7746 309.436 60.797V60.797Z" fill="#D64545"/>
<path id="Ellipse 11" d="M309.436 65.1325C309.715 65.1959 309.793 65.5525 309.559 65.7177C307.099 67.4541 303.636 68.9065 299.481 69.9388C294.991 71.0545 289.862 71.6376 284.643 71.6256C279.424 71.6137 274.31 71.0072 269.849 69.871C265.726 68.8207 262.303 67.3543 259.888 65.6088C259.655 65.4399 259.736 65.0822 260.018 65.02V65.02C260.119 64.9977 260.224 65.0221 260.306 65.0855C262.654 66.9123 266.122 68.4441 270.355 69.5222C274.665 70.6199 279.605 71.2059 284.648 71.2175C289.691 71.229 294.646 70.6657 298.985 69.5876C303.248 68.5285 306.757 67.0116 309.153 65.1943C309.234 65.133 309.337 65.1101 309.436 65.1325V65.1325Z" fill="#D80000"/>
</g>
</g>
<defs>
<filter id="filter0_d" x="239" y="0" width="92" height="103.027" filterUnits="userSpaceOnUse" color-interpolation-filters="sRGB">
<feFlood flood-opacity="0" result="BackgroundImageFix"/>
<feColorMatrix in="SourceAlpha" type="matrix" values="0 0 0 0 0 0 0 0 0 0 0 0 0 0 0 0 0 0 127 0"/>
<feOffset/>
<feGaussianBlur stdDeviation="5"/>
<feColorMatrix type="matrix" values="0 0 0 0 0 0 0 0 0 0 0 0 0 0 0 0 0 0 0.25 0"/>
<feBlend mode="normal" in2="BackgroundImageFix" result="effect1_dropShadow"/>
<feBlend mode="normal" in="SourceGraphic" in2="effect1_dropShadow" result="shape"/>
</filter>
<filter id="filter1_d" x="252" y="34" width="65.6" height="45.6258" filterUnits="userSpaceOnUse" color-interpolation-filters="sRGB">
<feFlood flood-opacity="0" result="BackgroundImageFix"/>
<feColorMatrix in="SourceAlpha" type="matrix" values="0 0 0 0 0 0 0 0 0 0 0 0 0 0 0 0 0 0 127 0"/>
<feOffset dy="4"/>
<feGaussianBlur stdDeviation="2"/>
<feColorMatrix type="matrix" values="0 0 0 0 0 0 0 0 0 0 0 0 0 0 0 0 0 0 0.25 0"/>
<feBlend mode="normal" in2="BackgroundImageFix" result="effect1_dropShadow"/>
<feBlend mode="normal" in="SourceGraphic" in2="effect1_dropShadow" result="shape"/>
</filter>
<linearGradient id="paint0_linear" x1="124.908" y1="31" x2="124.908" y2="72" gradientUnits="userSpaceOnUse">
<stop stop-color="#D80000"/>
<stop offset="0.489342" stop-color="#DC9090" stop-opacity="0.510658"/>
<stop offset="1" stop-color="#D80000"/>
</linearGradient>
<linearGradient id="paint1_linear" x1="133.759" y1="22" x2="133.759" y2="31" gradientUnits="userSpaceOnUse">
<stop stop-color="white" stop-opacity="0"/>
<stop offset="1" stop-color="#D3CEC4"/>
</linearGradient>
<linearGradient id="paint2_linear" x1="134.011" y1="72" x2="134.011" y2="81" gradientUnits="userSpaceOnUse">
<stop stop-color="#D3CEC4"/>
<stop offset="1" stop-color="white" stop-opacity="0"/>
</linearGradient>
<radialGradient id="paint3_radial" cx="0" cy="0" r="1" gradientUnits="userSpaceOnUse" gradientTransform="translate(285 51.5135) rotate(90) scale(41.4865 35.9766)">
<stop stop-color="white" stop-opacity="0"/>
<stop offset="1" stop-color="#E8E6E1"/>
</radialGradient>
</defs>
</svg>
