<svg width="261" height="85" viewBox="0 0 261 85" fill="none" xmlns="http://www.w3.org/2000/svg">
<g id="information">
<g id="caption">
<g id="body">
<rect x="1" y="26.4062" width="193.606" height="32.0312" fill="#D80000"/>
<rect x="1" y="26.4062" width="193.606" height="32.0312" fill="url(#paint0_linear)"/>
</g>
<path id="top" d="M195.001 26.4062L206.855 19.375H110.842H14.829L2.58044 26.4062H195.001Z" fill="url(#paint1_linear)"/>
<path id="bottom" d="M195.001 58.4375H2.58044L14.829 65.4688H207.25L195.001 58.4375Z" fill="url(#paint2_linear)"/>
<path id="text" d="M56.8518 39.7031H58.1643V49.6562H56.8518V41.9863L51.9504 49.6562H50.6311V39.7031H51.9504V47.373L56.8518 39.7031ZM65.4719 40.7012H65.6838C66.4357 40.7057 67.1216 40.8812 67.7414 41.2275C68.3612 41.5739 68.842 42.0524 69.1838 42.6631C69.5301 43.2692 69.7033 43.9482 69.7033 44.7002C69.7033 45.4567 69.5301 46.1426 69.1838 46.7578C68.8374 47.373 68.3589 47.8538 67.7482 48.2002C67.1376 48.542 66.4585 48.7174 65.7111 48.7266H65.4719V50.0664H64.2004V48.7266H64.009C63.2479 48.7266 62.5552 48.5534 61.9309 48.207C61.3111 47.8607 60.828 47.3822 60.4816 46.7715C60.1398 46.1608 59.9689 45.4749 59.9689 44.7139C59.9689 43.9528 60.1398 43.2669 60.4816 42.6562C60.828 42.0456 61.3111 41.5671 61.9309 41.2207C62.5552 40.8743 63.2479 40.7012 64.009 40.7012H64.2004V39.293H65.4719V40.7012ZM64.009 41.7334C63.1522 41.7334 62.4732 41.9977 61.9719 42.5264C61.4751 43.0505 61.2268 43.7796 61.2268 44.7139C61.2268 45.6527 61.4751 46.3841 61.9719 46.9082C62.4686 47.4277 63.1522 47.6875 64.0227 47.6875H64.2004V41.7334H64.009ZM65.4719 41.7334V47.6875H65.6633C66.5337 47.6875 67.2128 47.4209 67.7004 46.8877C68.1926 46.3499 68.4387 45.6208 68.4387 44.7002C68.4387 43.7887 68.1926 43.0664 67.7004 42.5332C67.2128 42 66.5246 41.7334 65.6359 41.7334H65.4719ZM79.0139 45.001C79.0139 45.9762 78.8498 46.8285 78.5217 47.5576C78.1936 48.2822 77.7287 48.8359 77.1271 49.2188C76.5256 49.6016 75.8238 49.793 75.0217 49.793C74.2378 49.793 73.5428 49.6016 72.9367 49.2188C72.3306 48.8314 71.8589 48.2822 71.5217 47.5713C71.189 46.8558 71.0181 46.0286 71.009 45.0898V44.3721C71.009 43.415 71.1753 42.5697 71.508 41.8359C71.8407 41.1022 72.3101 40.5417 72.9162 40.1543C73.5269 39.7624 74.2241 39.5664 75.008 39.5664C75.8055 39.5664 76.5074 39.7601 77.1135 40.1475C77.7241 40.5303 78.1936 41.0885 78.5217 41.8223C78.8498 42.5514 79.0139 43.4014 79.0139 44.3721V45.001ZM77.7082 44.3584C77.7082 43.1781 77.4712 42.2734 76.9973 41.6445C76.5233 41.0111 75.8602 40.6943 75.008 40.6943C74.1786 40.6943 73.5246 41.0111 73.0461 41.6445C72.5721 42.2734 72.3283 43.1484 72.3146 44.2695V45.001C72.3146 46.1449 72.5539 47.0449 73.0324 47.7012C73.5155 48.3529 74.1786 48.6787 75.0217 48.6787C75.8693 48.6787 76.5256 48.3711 76.9904 47.7559C77.4553 47.1361 77.6945 46.2497 77.7082 45.0967V44.3584ZM82.2951 45.7598V49.6562H80.9826V39.7031H84.6535C85.7427 39.7031 86.5949 39.9811 87.2102 40.5371C87.8299 41.0931 88.1398 41.8291 88.1398 42.7451C88.1398 43.7113 87.8368 44.4564 87.2307 44.9805C86.6291 45.5 85.7655 45.7598 84.6398 45.7598H82.2951ZM82.2951 44.6865H84.6535C85.3553 44.6865 85.8931 44.5225 86.2668 44.1943C86.6405 43.8617 86.8273 43.3831 86.8273 42.7588C86.8273 42.1663 86.6405 41.6924 86.2668 41.3369C85.8931 40.9814 85.3804 40.7969 84.7287 40.7832H82.2951V44.6865ZM91.51 39.7031L94.7639 47.8242L98.0178 39.7031H99.7199V49.6562H98.4074V45.7803L98.5305 41.5967L95.2629 49.6562H94.258L90.9973 41.6172L91.1271 45.7803V49.6562H89.8146V39.7031H91.51ZM107.656 47.0586H103.487L102.55 49.6562H101.196L104.997 39.7031H106.146L109.953 49.6562H108.607L107.656 47.0586ZM103.883 45.9785H107.267L105.571 41.3232L103.883 45.9785ZM111.334 39.7031H112.654V48.583H117.562V39.7031H118.874V48.5557H119.92L119.797 52.0557H118.614V49.6562H111.334V39.7031ZM127.809 39.7031H129.121V49.6562H127.809V41.9863L122.907 49.6562H121.588V39.7031H122.907V47.373L127.809 39.7031ZM136.723 49.6562V45.7803H134.426L132.368 49.6562H130.967L133.278 45.418C131.992 44.9121 131.35 44.0075 131.35 42.7041C131.35 41.7562 131.66 41.0202 132.279 40.4961C132.904 39.9674 133.77 39.7031 134.877 39.7031H138.042V49.6562H136.723ZM132.662 42.7041C132.662 43.3057 132.849 43.7887 133.223 44.1533C133.601 44.5179 134.125 44.7025 134.795 44.707H136.723V40.7832H134.857C134.146 40.7832 133.601 40.9518 133.223 41.2891C132.849 41.6263 132.662 42.098 132.662 42.7041ZM151.557 45.001C151.557 45.9762 151.393 46.8285 151.065 47.5576C150.737 48.2822 150.272 48.8359 149.67 49.2188C149.069 49.6016 148.367 49.793 147.565 49.793C146.781 49.793 146.086 49.6016 145.48 49.2188C144.874 48.8314 144.402 48.2822 144.065 47.5713C143.732 46.8558 143.561 46.0286 143.552 45.0898V44.3721C143.552 43.415 143.718 42.5697 144.051 41.8359C144.384 41.1022 144.853 40.5417 145.459 40.1543C146.07 39.7624 146.767 39.5664 147.551 39.5664C148.348 39.5664 149.05 39.7601 149.656 40.1475C150.267 40.5303 150.737 41.0885 151.065 41.8223C151.393 42.5514 151.557 43.4014 151.557 44.3721V45.001ZM150.251 44.3584C150.251 43.1781 150.014 42.2734 149.54 41.6445C149.066 41.0111 148.403 40.6943 147.551 40.6943C146.722 40.6943 146.068 41.0111 145.589 41.6445C145.115 42.2734 144.871 43.1484 144.858 44.2695V45.001C144.858 46.1449 145.097 47.0449 145.575 47.7012C146.058 48.3529 146.722 48.6787 147.565 48.6787C148.412 48.6787 149.069 48.3711 149.533 47.7559C149.998 47.1361 150.237 46.2497 150.251 45.0967V44.3584ZM164.648 49.6562H163.328V45.0557H158.311V49.6562H156.998V39.7031H158.311V43.9824H163.328V39.7031H164.648V49.6562ZM172.598 47.0586H168.428L167.491 49.6562H166.138L169.939 39.7031H171.087L174.895 49.6562H173.548L172.598 47.0586ZM168.824 45.9785H172.208L170.513 41.3232L168.824 45.9785ZM183.474 46.498C183.351 47.5508 182.961 48.3643 182.305 48.9385C181.653 49.5081 180.785 49.793 179.7 49.793C178.525 49.793 177.581 49.3714 176.87 48.5283C176.164 47.6852 175.811 46.5573 175.811 45.1445V44.1875C175.811 43.2624 175.975 42.4489 176.303 41.7471C176.636 41.0452 177.105 40.5075 177.711 40.1338C178.317 39.7555 179.019 39.5664 179.817 39.5664C180.874 39.5664 181.722 39.8626 182.36 40.4551C182.998 41.043 183.369 41.8587 183.474 42.9023H182.154C182.041 42.1094 181.792 41.5352 181.409 41.1797C181.031 40.8242 180.5 40.6465 179.817 40.6465C178.978 40.6465 178.32 40.9564 177.841 41.5762C177.367 42.196 177.13 43.0778 177.13 44.2217V45.1855C177.13 46.2656 177.356 47.1247 177.807 47.7627C178.258 48.4007 178.889 48.7197 179.7 48.7197C180.43 48.7197 180.988 48.5557 181.375 48.2275C181.767 47.8949 182.027 47.3184 182.154 46.498H183.474Z" fill="#FAF9F7"/>
<path id="side" d="M15.2241 18.5938L1 26.7969V58.0469L15.2241 66.25" stroke="#423D33" stroke-width="2"/>
</g>
<g id="polygon" filter="url(#filter0_d)">
<path d="M222.875 10L251 26.2162V58.6486L222.875 74.8649L194.75 58.6486V26.2162L222.875 10Z" fill="url(#paint3_radial)"/>
<path d="M195.75 26.794L222.875 11.1543L250 26.794V58.0709L222.875 73.7105L195.75 58.0709V26.794Z" stroke="#423D33" stroke-width="2"/>
</g>
<g id="info">
<g id="Vector 12" filter="url(#filter1_d)">
<path d="M217.5 48L216 47C217 45.5 217 45 218.5 41L218.5 40.999C219 39.5 219 39.4997 219 38C219 36.5 219.5 34.5 221 33.5C223 33 224.5 32 224 36.5C222 52.5 223 57.5 225 58C226.5 58 229.5 56 233.5 46L235 47C234 50 228 62.5 223.5 62C219.5 61.5 217.5 57 218.5 46L217.5 48Z" fill="#D80000"/>
</g>
<g id="Ellipse 18" filter="url(#filter2_d)">
<circle cx="223" cy="26" r="3" fill="#D80000"/>
</g>
</g>
</g>
<defs>
<filter id="filter0_d" x="184.75" y="0" width="76.25" height="84.8649" filterUnits="userSpaceOnUse" color-interpolation-filters="sRGB">
<feFlood flood-opacity="0" result="BackgroundImageFix"/>
<feColorMatrix in="SourceAlpha" type="matrix" values="0 0 0 0 0 0 0 0 0 0 0 0 0 0 0 0 0 0 127 0"/>
<feOffset/>
<feGaussianBlur stdDeviation="5"/>
<feColorMatrix type="matrix" values="0 0 0 0 0 0 0 0 0 0 0 0 0 0 0 0 0 0 0.25 0"/>
<feBlend mode="normal" in2="BackgroundImageFix" result="effect1_dropShadow"/>
<feBlend mode="normal" in="SourceGraphic" in2="effect1_dropShadow" result="shape"/>
</filter>
<filter id="filter1_d" x="212" y="33.0426" width="27" height="36.972" filterUnits="userSpaceOnUse" color-interpolation-filters="sRGB">
<feFlood flood-opacity="0" result="BackgroundImageFix"/>
<feColorMatrix in="SourceAlpha" type="matrix" values="0 0 0 0 0 0 0 0 0 0 0 0 0 0 0 0 0 0 127 0"/>
<feOffset dy="4"/>
<feGaussianBlur stdDeviation="2"/>
<feColorMatrix type="matrix" values="0 0 0 0 0 0 0 0 0 0 0 0 0 0 0 0 0 0 0.25 0"/>
<feBlend mode="normal" in2="BackgroundImageFix" result="effect1_dropShadow"/>
<feBlend mode="normal" in="SourceGraphic" in2="effect1_dropShadow" result="shape"/>
</filter>
<filter id="filter2_d" x="216" y="23" width="14" height="14" filterUnits="userSpaceOnUse" color-interpolation-filters="sRGB">
<feFlood flood-opacity="0" result="BackgroundImageFix"/>
<feColorMatrix in="SourceAlpha" type="matrix" values="0 0 0 0 0 0 0 0 0 0 0 0 0 0 0 0 0 0 127 0"/>
<feOffset dy="4"/>
<feGaussianBlur stdDeviation="2"/>
<feColorMatrix type="matrix" values="0 0 0 0 0 0 0 0 0 0 0 0 0 0 0 0 0 0 0.25 0"/>
<feBlend mode="normal" in2="BackgroundImageFix" result="effect1_dropShadow"/>
<feBlend mode="normal" in="SourceGraphic" in2="effect1_dropShadow" result="shape"/>
</filter>
<linearGradient id="paint0_linear" x1="97.8032" y1="26.4062" x2="97.8032" y2="58.4375" gradientUnits="userSpaceOnUse">
<stop stop-color="#D80000"/>
<stop offset="0.489342" stop-color="#DC9090" stop-opacity="0.510658"/>
<stop offset="1" stop-color="#D80000"/>
</linearGradient>
<linearGradient id="paint1_linear" x1="104.718" y1="19.375" x2="104.718" y2="26.4062" gradientUnits="userSpaceOnUse">
<stop stop-color="white" stop-opacity="0"/>
<stop offset="1" stop-color="#D3CEC4"/>
</linearGradient>
<linearGradient id="paint2_linear" x1="104.915" y1="58.4375" x2="104.915" y2="65.4688" gradientUnits="userSpaceOnUse">
<stop stop-color="#D3CEC4"/>
<stop offset="1" stop-color="white" stop-opacity="0"/>
</linearGradient>
<radialGradient id="paint3_radial" cx="0" cy="0" r="1" gradientUnits="userSpaceOnUse" gradientTransform="translate(222.875 42.4324) rotate(90) scale(32.4113 28.1067)">
<stop stop-color="white" stop-opacity="0"/>
<stop offset="1" stop-color="#E8E6E1"/>
</radialGradient>
</defs>
</svg>
