<svg width="67" height="43" viewBox="0 0 67 43" fill="none" xmlns="http://www.w3.org/2000/svg">
<g filter="url(#filter0_d)">
<path fill-rule="evenodd" clip-rule="evenodd" d="M20.7352 34.3394V17.1064L62.2402 4.41708L61.0365 0.48L20.7352 12.8013V10.6843H4.64001V34.3394H20.7352ZM12.322 20.9266C13.8709 20.9266 15.1265 19.671 15.1265 18.1222C15.1265 16.5733 13.8709 15.3177 12.322 15.3177C10.7732 15.3177 9.51758 16.5733 9.51758 18.1222C9.51758 19.671 10.7732 20.9266 12.322 20.9266ZM27.5633 11.172L29.5143 10.5623L28.4169 14.4642L26.344 15.0738L27.5633 11.172ZM40.2447 7.27008L38.2938 7.87975L37.0745 11.7816L39.1473 11.172L40.2447 7.27008ZM47.5603 4.95334L49.5112 4.34367L48.4138 8.24554L46.3409 8.85521L47.5603 4.95334ZM59.0223 1.41727L57.0714 2.02693L55.8521 5.9288L57.9249 5.31914L59.0223 1.41727Z" fill="#D80000"/>
</g>
<defs>
<filter id="filter0_d" x="0.640015" y="0.48" width="65.6001" height="41.8594" filterUnits="userSpaceOnUse" color-interpolation-filters="sRGB">
<feFlood flood-opacity="0" result="BackgroundImageFix"/>
<feColorMatrix in="SourceAlpha" type="matrix" values="0 0 0 0 0 0 0 0 0 0 0 0 0 0 0 0 0 0 127 0"/>
<feOffset dy="4"/>
<feGaussianBlur stdDeviation="2"/>
<feColorMatrix type="matrix" values="0 0 0 0 0 0 0 0 0 0 0 0 0 0 0 0 0 0 0.25 0"/>
<feBlend mode="normal" in2="BackgroundImageFix" result="effect1_dropShadow"/>
<feBlend mode="normal" in="SourceGraphic" in2="effect1_dropShadow" result="shape"/>
</filter>
</defs>
</svg>
