<svg width="67" height="48" viewBox="0 0 67 48" fill="none" xmlns="http://www.w3.org/2000/svg">
<g filter="url(#filter0_d)">
<path fill-rule="evenodd" clip-rule="evenodd" d="M60.2838 18.4164C61.3989 18.4164 61.6773 16.8672 60.632 16.4789L18.8944 0.976411C18.3746 0.783327 17.7969 1.05012 17.6068 1.57107L14.7777 9.32479C14.6622 9.6415 14.714 9.99512 14.9155 10.2654L19.8892 16.9346C20.0049 17.0897 20.1631 17.208 20.3447 17.2749L29.2404 20.5573C29.101 20.8942 29.024 21.2636 29.024 21.6509C29.024 22.4459 29.3483 23.1652 29.8718 23.6838L27.4524 29.9865C27.4371 29.9863 27.4218 29.9862 27.4065 29.9862C26.1298 29.9862 25.0485 30.8222 24.68 31.9767H9.11852V30.7326C9.11852 30.0455 8.56153 29.4885 7.87445 29.4885C7.59445 29.4885 7.33605 29.581 7.12815 29.7371V28.4934C7.12815 27.8063 6.57116 27.2493 5.88408 27.2493C5.197 27.2493 4.64001 27.8063 4.64001 28.4934V37.9483C4.64001 38.6353 5.197 39.1923 5.88408 39.1923C6.57116 39.1923 7.12815 38.6353 7.12815 37.9483V36.7043C7.33605 36.8604 7.59445 36.9529 7.87445 36.9529C8.56153 36.9529 9.11852 36.3959 9.11852 35.7089V34.216H24.893C25.3783 35.1055 26.3219 35.7089 27.4065 35.7089C28.9868 35.7089 30.2678 34.4278 30.2678 32.8475C30.2678 32.0422 29.9351 31.3146 29.3997 30.7946L31.8116 24.5113C31.8361 24.5119 31.8607 24.5122 31.8854 24.5122C33.1562 24.5122 34.2336 23.6838 34.6068 22.5374L42.9514 25.6165C43.1946 25.7062 43.4631 25.698 43.7004 25.5936L52.2425 21.8351C52.5083 21.7181 52.7101 21.4914 52.7955 21.2139L53.4391 19.1223C53.5682 18.7027 53.9558 18.4164 54.3948 18.4164H60.2838ZM58.1345 19.0384H54.2779L53.407 22.273L44.4497 26.254L54.1534 29.9862L55.3975 26.5028L56.766 27.1248L59.0053 21.2777L57.5124 20.7801L58.1345 19.0384ZM60.125 20.6557L62.2399 21.4021L59.3786 29.2398L57.2636 28.3689L60.125 20.6557ZM51.2927 19.8564C51.6362 19.8564 51.9147 19.5222 51.9147 19.1099C51.9147 18.6977 51.6362 18.3635 51.2927 18.3635C50.9491 18.3635 50.6706 18.6977 50.6706 19.1099C50.6706 19.5222 50.9491 19.8564 51.2927 19.8564Z" fill="#D80000"/>
</g>
<defs>
<filter id="filter0_d" x="0.640015" y="0.913559" width="65.5999" height="46.2788" filterUnits="userSpaceOnUse" color-interpolation-filters="sRGB">
<feFlood flood-opacity="0" result="BackgroundImageFix"/>
<feColorMatrix in="SourceAlpha" type="matrix" values="0 0 0 0 0 0 0 0 0 0 0 0 0 0 0 0 0 0 127 0"/>
<feOffset dy="4"/>
<feGaussianBlur stdDeviation="2"/>
<feColorMatrix type="matrix" values="0 0 0 0 0 0 0 0 0 0 0 0 0 0 0 0 0 0 0.25 0"/>
<feBlend mode="normal" in2="BackgroundImageFix" result="effect1_dropShadow"/>
<feBlend mode="normal" in="SourceGraphic" in2="effect1_dropShadow" result="shape"/>
</filter>
</defs>
</svg>
