<svg width="80" height="82" viewBox="0 0 80 82" fill="none" xmlns="http://www.w3.org/2000/svg">
<g filter="url(#filter0_d)">
<path fill-rule="evenodd" clip-rule="evenodd" d="M54.3674 12.9981L50.0704 23.2751C51.5086 24.245 52.8666 25.3374 54.1282 26.5428L43.1318 44.8439C41.9277 43.6935 40.6359 42.646 39.2702 41.7096L37.0494 45.4056C39.3193 47.1177 41.0795 49.3165 42.0423 51.6798C42.8763 53.7269 43.0632 55.778 42.6113 57.6034C40.1633 55.691 36.7992 53.3829 32.9546 51.0238L26.375 59.5031C26.7086 59.7804 26.827 60.2138 26.6347 60.5337C26.4178 60.8947 25.8877 60.9744 25.4506 60.7118C25.0135 60.4492 24.835 59.9436 25.0519 59.5826C25.2472 59.2576 25.6964 59.1606 26.103 59.3362L30.3166 49.4425C26.6619 47.3029 23.2582 45.5238 20.5322 44.2922C21.9289 43.0516 23.8162 42.2635 25.9996 42.0403C28.446 41.7904 31.1053 42.266 33.6017 43.3751L35.8303 39.6661C34.4462 38.9611 33.0069 38.3599 31.524 37.8692L34.1111 33.5637L28.3961 25.1481L18.2824 24.0529L24.5661 13.5951L34.6797 14.6903L40.3948 23.1059L42.5205 19.5681C44.1299 20.1006 45.688 20.7635 47.18 21.5478L54.3674 12.9981ZM33.3668 15.6805L24.5441 14.8272L23.4444 16.6573L32.2672 17.5106L33.3668 15.6805ZM39.3175 23.704L34.4221 16.3146L33.3224 18.1447L38.2179 25.5341L39.3175 23.704ZM31.4816 18.8178L22.6588 17.9645L21.5592 19.7946L30.3819 20.6479L31.4816 18.8178ZM37.4323 26.8413L32.5368 19.4519L31.4372 21.282L36.3326 28.6714L37.4323 26.8413ZM29.5965 21.9551L20.7737 21.1018L19.6741 22.9319L28.4968 23.7853L29.5965 21.9551ZM35.5472 29.9787L30.6517 22.5892L29.5521 24.4194L34.4475 31.8088L35.5472 29.9787ZM52.0025 30.0805L62.1161 31.1757L67.8312 39.5913L61.5475 50.0491L55.8325 41.6335L45.7189 40.5383L52.0025 30.0805ZM51.9802 31.3126L60.8029 32.1659L59.7033 33.996L50.8806 33.1427L51.9802 31.3126ZM61.8583 32.8L66.7538 40.1894L65.6541 42.0195L60.7587 34.6301L61.8583 32.8ZM50.0951 34.4499L58.9178 35.3032L57.8182 37.1333L48.9955 36.28L50.0951 34.4499ZM59.9732 35.9373L64.8687 43.3267L63.769 45.1568L58.8736 37.7674L59.9732 35.9373ZM48.21 37.5872L57.0328 38.4405L55.9331 40.2706L47.1104 39.4173L48.21 37.5872ZM58.088 39.0747L62.9834 46.4641L61.8838 48.2942L56.9883 40.9048L58.088 39.0747Z" fill="#D80000"/>
</g>
<defs>
<filter id="filter0_d" x="-0.00012207" y="0" width="80" height="81.8192" filterUnits="userSpaceOnUse" color-interpolation-filters="sRGB">
<feFlood flood-opacity="0" result="BackgroundImageFix"/>
<feColorMatrix in="SourceAlpha" type="matrix" values="0 0 0 0 0 0 0 0 0 0 0 0 0 0 0 0 0 0 127 0"/>
<feOffset dy="4"/>
<feGaussianBlur stdDeviation="2"/>
<feColorMatrix type="matrix" values="0 0 0 0 0 0 0 0 0 0 0 0 0 0 0 0 0 0 0.25 0"/>
<feBlend mode="normal" in2="BackgroundImageFix" result="effect1_dropShadow"/>
<feBlend mode="normal" in="SourceGraphic" in2="effect1_dropShadow" result="shape"/>
</filter>
</defs>
</svg>
