<svg width="66" height="61" viewBox="0 0 66 61" fill="none" xmlns="http://www.w3.org/2000/svg">
<g filter="url(#filter0_d)">
<path fill-rule="evenodd" clip-rule="evenodd" d="M44.7695 13.9401C43.7566 15.7065 42.7322 17.4928 42.7322 20.2262C42.7322 21.6526 43.7118 23.8923 44.8879 26.5813C48.2502 34.2687 53.2184 45.6279 41.4937 52.1529C69.1198 48.5495 61.5412 26.0495 58.5479 17.1626C58.4547 16.8858 58.3659 16.6223 58.2828 16.3729C58.2828 29.4824 54.8769 29.6907 53.4279 29.7794C53.2037 29.7931 53.0264 29.8039 52.9158 29.8592C47.4695 29.8592 48.808 25.5977 50.4171 20.4749C51.3287 17.5724 52.3272 14.3934 52.2277 11.5564C51.8974 5.39122 48.5121 2.47377 44.9341 0.959999C48.1177 8.10152 46.4595 10.9931 44.7695 13.9401ZM31.5854 1.78573L20.4386 13.8959V6.46466H14.2459V19.4005L4.19995 29.584H14.2459V52.0154H30.4845C22.3627 45.634 25.7201 40.2009 28.7143 35.3554C30.6921 32.1548 32.5114 29.2107 30.7597 26.4189C36.4589 27.6453 35.3129 31.5569 34.2805 35.0806C33.3436 38.2786 32.5002 41.1571 36.9524 41.419C42.4318 41.419 41.0088 37.7002 39.1336 32.7993C36.8643 26.8685 33.9326 19.2065 41.769 14.3087V12.5197L31.5854 1.78573Z" fill="#D80000"/>
</g>
<defs>
<filter id="filter0_d" x="0.199951" y="0.959999" width="65.6" height="59.1929" filterUnits="userSpaceOnUse" color-interpolation-filters="sRGB">
<feFlood flood-opacity="0" result="BackgroundImageFix"/>
<feColorMatrix in="SourceAlpha" type="matrix" values="0 0 0 0 0 0 0 0 0 0 0 0 0 0 0 0 0 0 127 0"/>
<feOffset dy="4"/>
<feGaussianBlur stdDeviation="2"/>
<feColorMatrix type="matrix" values="0 0 0 0 0 0 0 0 0 0 0 0 0 0 0 0 0 0 0.25 0"/>
<feBlend mode="normal" in2="BackgroundImageFix" result="effect1_dropShadow"/>
<feBlend mode="normal" in="SourceGraphic" in2="effect1_dropShadow" result="shape"/>
</filter>
</defs>
</svg>
