<svg width="55" height="56" viewBox="0 0 55 56" fill="none" xmlns="http://www.w3.org/2000/svg">
<g filter="url(#filter0_d)">
<path fill-rule="evenodd" clip-rule="evenodd" d="M10.5168 4.92018L17.4141 13.14C17.9564 13.7863 19.0416 13.4808 19.4091 12.7214C24.7188 1.74783 51.5718 33.75 39.8434 37.0741C39.0317 37.3041 38.5425 38.3198 39.0847 38.966L45.9821 47.186C46.2449 47.4992 46.7013 47.6169 47.0776 47.4568C63.9563 40.2749 20.4438 -11.5812 10.4403 3.79429C10.2173 4.13703 10.254 4.60695 10.5168 4.92018ZM4.52197 42.0246H6.77197V24.9621H4.52197V42.0246ZM11.947 42.0246V35.3449H15.9665C17.8962 35.3449 19.3767 34.8996 20.4079 34.009C21.447 33.1105 21.9665 31.8332 21.9665 30.1769C21.9665 28.6066 21.4353 27.3449 20.3728 26.3918C19.3181 25.4387 17.8571 24.9621 15.9899 24.9621H9.69697V42.0246H11.947ZM15.9899 33.5051H11.947V26.8137H16.1188C17.236 26.8371 18.1149 27.1535 18.7556 27.7629C19.3962 28.3723 19.7165 29.1848 19.7165 30.2004C19.7165 31.2707 19.3962 32.091 18.7556 32.6613C18.1149 33.2238 17.1931 33.5051 15.9899 33.5051Z" fill="#D80000"/>
</g>
<defs>
<filter id="filter0_d" x="0.521973" y="0.959991" width="54.404" height="54.5682" filterUnits="userSpaceOnUse" color-interpolation-filters="sRGB">
<feFlood flood-opacity="0" result="BackgroundImageFix"/>
<feColorMatrix in="SourceAlpha" type="matrix" values="0 0 0 0 0 0 0 0 0 0 0 0 0 0 0 0 0 0 127 0"/>
<feOffset dy="4"/>
<feGaussianBlur stdDeviation="2"/>
<feColorMatrix type="matrix" values="0 0 0 0 0 0 0 0 0 0 0 0 0 0 0 0 0 0 0.25 0"/>
<feBlend mode="normal" in2="BackgroundImageFix" result="effect1_dropShadow"/>
<feBlend mode="normal" in="SourceGraphic" in2="effect1_dropShadow" result="shape"/>
</filter>
</defs>
</svg>
