<svg width="66" height="46" viewBox="0 0 66 46" fill="none" xmlns="http://www.w3.org/2000/svg">
<g filter="url(#filter0_d)">
<path fill-rule="evenodd" clip-rule="evenodd" d="M6.19995 0.0400085C5.09538 0.0400085 4.19995 0.935438 4.19995 2.04001V14.9174C4.19995 16.022 5.09538 16.9174 6.19995 16.9174H59.7999C60.9045 16.9174 61.7999 16.022 61.7999 14.9174V2.04001C61.7999 0.935439 60.9045 0.0400085 59.7999 0.0400085H6.19995ZM45.3031 1.27874C44.7508 1.27874 44.3031 1.72645 44.3031 2.27874V6.00777C44.3031 6.56005 44.7508 7.00777 45.3031 7.00777H59.5611C60.1134 7.00777 60.5611 6.56006 60.5611 6.00777V2.27874C60.5611 1.72645 60.1134 1.27874 59.5611 1.27874H45.3031Z" fill="#D80000"/>
<rect x="4.97437" y="7.62709" width="56.2065" height="8.36129" rx="1" fill="#504A40"/>
<path d="M5.51515 9.16106C5.55949 8.64378 5.99232 8.24646 6.5115 8.24646H59.6433C60.1625 8.24646 60.5953 8.64377 60.6397 9.16106L60.9328 12.5804C60.9828 13.1643 60.5224 13.6658 59.9364 13.6658H6.21841C5.63243 13.6658 5.17202 13.1643 5.22206 12.5804L5.51515 9.16106Z" fill="#D80000"/>
<path d="M57.6357 22.5016C57.9151 22.5649 57.9932 22.9215 57.7591 23.0867C55.2988 24.8232 51.8355 26.2755 47.681 27.3078C43.1908 28.4236 38.062 29.0066 32.8428 28.9947C27.6237 28.9827 22.5103 28.3763 18.0494 27.2401C13.9258 26.1898 10.503 24.7233 8.08834 22.9778C7.85469 22.8089 7.93641 22.4512 8.21794 22.389C8.31887 22.3668 8.4239 22.3911 8.50548 22.4546C10.8537 24.2814 14.3221 25.8131 18.5547 26.8912C22.8649 27.989 27.8054 28.575 32.8481 28.5865C37.8909 28.598 42.8464 28.0347 47.1848 26.9567C51.4475 25.8975 54.9571 24.3806 57.3528 22.5633C57.4336 22.502 57.5368 22.4791 57.6357 22.5016Z" fill="#D80000"/>
<path d="M57.6357 26.837C57.9151 26.9004 57.9932 27.257 57.7591 27.4222C55.2988 29.1586 51.8355 30.611 47.681 31.6433C43.1908 32.759 38.062 33.3421 32.8428 33.3301C27.6237 33.3182 22.5103 32.7117 18.0494 31.5755C13.9258 30.5252 10.503 29.0588 8.08834 27.3133C7.85469 27.1444 7.93641 26.7867 8.21794 26.7245C8.31887 26.7022 8.4239 26.7266 8.50548 26.79C10.8537 28.6168 14.3221 30.1486 18.5547 31.2266C22.8649 32.3244 27.8054 32.9104 32.8481 32.922C37.8909 32.9335 42.8464 32.3702 47.1848 31.2921C51.4475 30.233 54.9571 28.7161 57.3528 26.8988C57.4336 26.8375 57.5368 26.8146 57.6357 26.837Z" fill="#D64545"/>
<path d="M57.6357 31.1725C57.9151 31.2359 57.9932 31.5925 57.7591 31.7577C55.2988 33.4941 51.8355 34.9465 47.681 35.9788C43.1908 37.0945 38.062 37.6776 32.8428 37.6656C27.6237 37.6537 22.5103 37.0472 18.0494 35.911C13.9258 34.8607 10.503 33.3943 8.08834 31.6488C7.85469 31.4799 7.93641 31.1222 8.21794 31.06C8.31887 31.0377 8.4239 31.0621 8.50548 31.1255C10.8537 32.9523 14.3221 34.4841 18.5547 35.5622C22.8649 36.66 27.8054 37.2459 32.8481 37.2575C37.8909 37.269 42.8464 36.7057 47.1848 35.6277C51.4475 34.5685 54.9571 33.0516 57.3528 31.2343C57.4336 31.173 57.5368 31.1501 57.6357 31.1725Z" fill="#D80000"/>
</g>
<defs>
<filter id="filter0_d" x="0.199951" y="0.0400085" width="65.6" height="45.6258" filterUnits="userSpaceOnUse" color-interpolation-filters="sRGB">
<feFlood flood-opacity="0" result="BackgroundImageFix"/>
<feColorMatrix in="SourceAlpha" type="matrix" values="0 0 0 0 0 0 0 0 0 0 0 0 0 0 0 0 0 0 127 0"/>
<feOffset dy="4"/>
<feGaussianBlur stdDeviation="2"/>
<feColorMatrix type="matrix" values="0 0 0 0 0 0 0 0 0 0 0 0 0 0 0 0 0 0 0.25 0"/>
<feBlend mode="normal" in2="BackgroundImageFix" result="effect1_dropShadow"/>
<feBlend mode="normal" in="SourceGraphic" in2="effect1_dropShadow" result="shape"/>
</filter>
</defs>
</svg>
