<svg width="331" height="104" viewBox="0 0 331 104" fill="none" xmlns="http://www.w3.org/2000/svg">
<g id="phone-system">
<g id="caption">
<g id="body">
<rect x="1" y="31" width="247.816" height="41" fill="#D80000"/>
<rect x="1" y="31" width="247.816" height="41" fill="url(#paint0_linear)"/>
</g>
<path id="top" d="M249.322 31L264.494 22H141.598H18.7011L3.02295 31H249.322Z" fill="url(#paint1_linear)"/>
<path id="bottom" d="M249.322 72H3.02295L18.7011 81H265L249.322 72Z" fill="url(#paint2_linear)"/>
<path id="text" d="M105.845 46.5918H101.732V58H100.053V46.5918H95.9486V45.2031H105.845V46.5918ZM114.977 52.085H109.431V56.6201H115.873V58H107.744V45.2031H115.786V46.5918H109.431V50.7051H114.977V52.085ZM127.651 45.2031V58H125.963V46.5918H121.375L121.147 51.6631C121.059 53.3623 120.883 54.6396 120.619 55.4951C120.362 56.3506 119.981 56.9805 119.477 57.3848C118.973 57.7832 118.299 57.9883 117.455 58H116.902V56.6201L117.253 56.6025C117.798 56.5615 118.217 56.3857 118.51 56.0752C118.803 55.7588 119.026 55.2578 119.178 54.5723C119.33 53.8867 119.439 52.832 119.503 51.4082L119.767 45.2031H127.651ZM137.952 52.085H132.406V56.6201H138.848V58H130.718V45.2031H138.76V46.5918H132.406V50.7051H137.952V52.085ZM147.268 46.4863H147.54C148.507 46.4922 149.389 46.7178 150.186 47.1631C150.983 47.6084 151.601 48.2236 152.04 49.0088C152.486 49.7881 152.708 50.6611 152.708 51.6279C152.708 52.6006 152.486 53.4824 152.04 54.2734C151.595 55.0645 150.98 55.6826 150.195 56.1279C149.41 56.5674 148.536 56.793 147.576 56.8047H147.268V58.5273H145.633V56.8047H145.387C144.409 56.8047 143.518 56.582 142.715 56.1367C141.918 55.6914 141.297 55.0762 140.852 54.291C140.412 53.5059 140.193 52.624 140.193 51.6455C140.193 50.667 140.412 49.7852 140.852 49C141.297 48.2148 141.918 47.5996 142.715 47.1543C143.518 46.709 144.409 46.4863 145.387 46.4863H145.633V44.6758H147.268V46.4863ZM145.387 47.8135C144.286 47.8135 143.412 48.1533 142.768 48.833C142.129 49.5068 141.81 50.4443 141.81 51.6455C141.81 52.8525 142.129 53.793 142.768 54.4668C143.407 55.1348 144.286 55.4688 145.405 55.4688H145.633V47.8135H145.387ZM147.268 47.8135V55.4688H147.514C148.633 55.4688 149.506 55.126 150.133 54.4404C150.766 53.749 151.082 52.8115 151.082 51.6279C151.082 50.4561 150.766 49.5273 150.133 48.8418C149.506 48.1562 148.621 47.8135 147.479 47.8135H147.268ZM164.679 52.0146C164.679 53.2686 164.468 54.3643 164.046 55.3018C163.624 56.2334 163.027 56.9453 162.253 57.4375C161.48 57.9297 160.577 58.1758 159.546 58.1758C158.538 58.1758 157.645 57.9297 156.866 57.4375C156.086 56.9395 155.48 56.2334 155.046 55.3193C154.619 54.3994 154.399 53.3359 154.387 52.1289V51.2061C154.387 49.9756 154.601 48.8887 155.029 47.9453C155.456 47.002 156.06 46.2812 156.839 45.7832C157.624 45.2793 158.521 45.0273 159.529 45.0273C160.554 45.0273 161.456 45.2764 162.236 45.7744C163.021 46.2666 163.624 46.9844 164.046 47.9277C164.468 48.8652 164.679 49.958 164.679 51.2061V52.0146ZM163 51.1885C163 49.6709 162.696 48.5078 162.086 47.6992C161.477 46.8848 160.624 46.4775 159.529 46.4775C158.462 46.4775 157.621 46.8848 157.006 47.6992C156.397 48.5078 156.083 49.6328 156.066 51.0742V52.0146C156.066 53.4854 156.373 54.6426 156.989 55.4863C157.61 56.3242 158.462 56.7432 159.546 56.7432C160.636 56.7432 161.48 56.3477 162.077 55.5566C162.675 54.7598 162.983 53.6201 163 52.1377V51.1885ZM177.045 58H175.349V52.085H168.898V58H167.21V45.2031H168.898V50.7051H175.349V45.2031H177.045V58ZM188.111 45.2031H189.798V58H188.111V48.1387L181.809 58H180.113V45.2031H181.809V55.0645L188.111 45.2031ZM199.572 58V53.0166H196.619L193.973 58H192.171L195.142 52.5508C193.49 51.9004 192.663 50.7373 192.663 49.0615C192.663 47.8428 193.062 46.8965 193.859 46.2227C194.661 45.543 195.775 45.2031 197.199 45.2031H201.268V58H199.572ZM194.351 49.0615C194.351 49.835 194.591 50.4561 195.072 50.9248C195.558 51.3936 196.232 51.6309 197.093 51.6367H199.572V46.5918H197.172C196.258 46.5918 195.558 46.8086 195.072 47.2422C194.591 47.6758 194.351 48.2822 194.351 49.0615Z" fill="#FAF9F7"/>
<path id="side" d="M19.2069 21L1 31.5V71.5L19.2069 82" stroke="#423D33" stroke-width="2"/>
</g>
<g id="polygon" filter="url(#filter0_d)">
<path d="M285 10L321 30.7568V72.2703L285 93.027L249 72.2703V30.7568L285 10Z" fill="url(#paint3_radial)"/>
<path d="M250 31.3345L285 11.1543L320 31.3345V71.6925L285 91.8727L250 71.6925V31.3345Z" stroke="#423D33" stroke-width="2"/>
</g>
<g id="phone" filter="url(#filter1_d)">
<path fill-rule="evenodd" clip-rule="evenodd" d="M270.995 28.9602L277.892 37.18C278.434 37.8263 279.52 37.5208 279.887 36.7614C285.197 25.7878 312.05 57.79 300.321 61.1141C299.51 61.3441 299.02 62.3598 299.563 63.0061L306.46 71.226C306.723 71.5392 307.179 71.657 307.556 71.4969C324.434 64.3149 280.922 12.4588 270.918 27.8343C270.695 28.177 270.732 28.647 270.995 28.9602ZM265 66.0646H267.25V49.0021H265V66.0646ZM272.425 66.0646V59.3849H276.445C278.374 59.3849 279.855 58.9396 280.886 58.049C281.925 57.1505 282.445 55.8732 282.445 54.217C282.445 52.6466 281.913 51.3849 280.851 50.4318C279.796 49.4787 278.335 49.0021 276.468 49.0021H270.175V66.0646H272.425ZM276.468 57.5451H272.425V50.8537H276.597C277.714 50.8771 278.593 51.1935 279.234 51.8029C279.874 52.4123 280.195 53.2248 280.195 54.2404C280.195 55.3107 279.874 56.131 279.234 56.7013C278.593 57.2638 277.671 57.5451 276.468 57.5451Z" fill="#D80000"/>
</g>
</g>
<defs>
<filter id="filter0_d" x="239" y="0" width="92" height="103.027" filterUnits="userSpaceOnUse" color-interpolation-filters="sRGB">
<feFlood flood-opacity="0" result="BackgroundImageFix"/>
<feColorMatrix in="SourceAlpha" type="matrix" values="0 0 0 0 0 0 0 0 0 0 0 0 0 0 0 0 0 0 127 0"/>
<feOffset/>
<feGaussianBlur stdDeviation="5"/>
<feColorMatrix type="matrix" values="0 0 0 0 0 0 0 0 0 0 0 0 0 0 0 0 0 0 0.25 0"/>
<feBlend mode="normal" in2="BackgroundImageFix" result="effect1_dropShadow"/>
<feBlend mode="normal" in="SourceGraphic" in2="effect1_dropShadow" result="shape"/>
</filter>
<filter id="filter1_d" x="261" y="25" width="54.404" height="54.5682" filterUnits="userSpaceOnUse" color-interpolation-filters="sRGB">
<feFlood flood-opacity="0" result="BackgroundImageFix"/>
<feColorMatrix in="SourceAlpha" type="matrix" values="0 0 0 0 0 0 0 0 0 0 0 0 0 0 0 0 0 0 127 0"/>
<feOffset dy="4"/>
<feGaussianBlur stdDeviation="2"/>
<feColorMatrix type="matrix" values="0 0 0 0 0 0 0 0 0 0 0 0 0 0 0 0 0 0 0.25 0"/>
<feBlend mode="normal" in2="BackgroundImageFix" result="effect1_dropShadow"/>
<feBlend mode="normal" in="SourceGraphic" in2="effect1_dropShadow" result="shape"/>
</filter>
<linearGradient id="paint0_linear" x1="124.908" y1="31" x2="124.908" y2="72" gradientUnits="userSpaceOnUse">
<stop stop-color="#D80000"/>
<stop offset="0.489342" stop-color="#DC9090" stop-opacity="0.510658"/>
<stop offset="1" stop-color="#D80000"/>
</linearGradient>
<linearGradient id="paint1_linear" x1="133.759" y1="22" x2="133.759" y2="31" gradientUnits="userSpaceOnUse">
<stop stop-color="white" stop-opacity="0"/>
<stop offset="1" stop-color="#D3CEC4"/>
</linearGradient>
<linearGradient id="paint2_linear" x1="134.011" y1="72" x2="134.011" y2="81" gradientUnits="userSpaceOnUse">
<stop stop-color="#D3CEC4"/>
<stop offset="1" stop-color="white" stop-opacity="0"/>
</linearGradient>
<radialGradient id="paint3_radial" cx="0" cy="0" r="1" gradientUnits="userSpaceOnUse" gradientTransform="translate(285 51.5135) rotate(90) scale(41.4865 35.9766)">
<stop stop-color="white" stop-opacity="0"/>
<stop offset="1" stop-color="#E8E6E1"/>
</radialGradient>
</defs>
</svg>
