<svg width="331" height="104" viewBox="0 0 331 104" fill="none" xmlns="http://www.w3.org/2000/svg">
<g id="signalization">
<g id="caption">
<g id="body">
<rect x="1" y="31" width="247.816" height="41" fill="#D80000"/>
<rect x="1" y="31" width="247.816" height="41" fill="url(#paint0_linear)"/>
</g>
<path id="top" d="M249.322 31L264.494 22H141.598H18.7011L3.02295 31H249.322Z" fill="url(#paint1_linear)"/>
<path id="bottom" d="M249.322 72H3.02295L18.7011 81H265L249.322 72Z" fill="url(#paint2_linear)"/>
<path id="text" d="M87.6166 53.9395C87.4584 55.293 86.9574 56.3389 86.1136 57.0771C85.2757 57.8096 84.1595 58.1758 82.765 58.1758C81.2533 58.1758 80.0404 57.6338 79.1263 56.5498C78.2181 55.4658 77.764 54.0156 77.764 52.1992V50.9688C77.764 49.7793 77.975 48.7334 78.3968 47.8311C78.8246 46.9287 79.4281 46.2373 80.2074 45.7568C80.9867 45.2705 81.889 45.0273 82.9144 45.0273C84.2738 45.0273 85.3636 45.4082 86.1839 46.1699C87.0043 46.9258 87.4818 47.9746 87.6166 49.3164H85.9203C85.7738 48.2969 85.4545 47.5586 84.9623 47.1016C84.4759 46.6445 83.7933 46.416 82.9144 46.416C81.8363 46.416 80.9896 46.8145 80.3744 47.6113C79.765 48.4082 79.4603 49.542 79.4603 51.0127V52.252C79.4603 53.6406 79.7504 54.7451 80.3304 55.5654C80.9105 56.3857 81.722 56.7959 82.765 56.7959C83.7025 56.7959 84.4203 56.585 84.9183 56.1631C85.4222 55.7354 85.7562 54.9941 85.9203 53.9395H87.6166ZM97.9964 45.2031H99.6839V58H97.9964V48.1387L91.6947 58H89.9984V45.2031H91.6947V55.0645L97.9964 45.2031ZM110.697 46.5918H104.527V58H102.83V45.2031H110.697V46.5918ZM122.615 58H120.918V52.085H114.467V58H112.78V45.2031H114.467V50.7051H120.918V45.2031H122.615V58ZM132.836 54.6602H127.475L126.271 58H124.531L129.417 45.2031H130.894L135.789 58H134.058L132.836 54.6602ZM127.985 53.2715H132.335L130.156 47.2861L127.985 53.2715ZM147.347 45.2031V58H145.66V46.5918H141.072L140.843 51.6631C140.755 53.3623 140.579 54.6396 140.316 55.4951C140.058 56.3506 139.677 56.9805 139.173 57.3848C138.669 57.7832 137.995 57.9883 137.152 58H136.598V56.6201L136.95 56.6025C137.494 56.5615 137.913 56.3857 138.206 56.0752C138.499 55.7588 138.722 55.2578 138.874 54.5723C139.027 53.8867 139.135 52.832 139.2 51.4082L139.463 45.2031H147.347ZM158.483 45.2031H160.17V58H158.483V48.1387L152.181 58H150.485V45.2031H152.181V55.0645L158.483 45.2031ZM169.812 48.6396C169.812 47.96 169.563 47.4209 169.065 47.0225C168.573 46.6182 167.878 46.416 166.982 46.416C166.232 46.416 165.602 46.624 165.092 47.04C164.588 47.4502 164.336 47.96 164.336 48.5693H162.649C162.649 47.8896 162.833 47.2803 163.202 46.7412C163.577 46.2021 164.099 45.7832 164.767 45.4844C165.435 45.1797 166.173 45.0273 166.982 45.0273C168.411 45.0273 169.522 45.3496 170.313 45.9941C171.104 46.6328 171.499 47.5234 171.499 48.666C171.499 49.2578 171.318 49.7969 170.954 50.2832C170.591 50.7695 170.084 51.1533 169.434 51.4346C170.94 51.9385 171.693 52.9375 171.693 54.4316C171.693 55.5801 171.265 56.4912 170.41 57.165C169.554 57.8389 168.411 58.1758 166.982 58.1758C166.132 58.1758 165.359 58.0264 164.661 57.7275C163.97 57.4229 163.431 56.9922 163.044 56.4355C162.658 55.8789 162.464 55.2168 162.464 54.4492H164.152C164.152 55.123 164.418 55.6855 164.952 56.1367C165.485 56.582 166.161 56.8047 166.982 56.8047C167.902 56.8047 168.634 56.5908 169.179 56.1631C169.73 55.7354 170.005 55.1699 170.005 54.4668C170.005 52.9668 169.077 52.2021 167.219 52.1729H165.637V50.7842H167.21C168.066 50.7666 168.713 50.5732 169.153 50.2041C169.592 49.835 169.812 49.3135 169.812 48.6396ZM181 54.6602H175.639L174.435 58H172.695L177.581 45.2031H179.058L183.953 58H182.222L181 54.6602ZM176.149 53.2715H180.499L178.32 47.2861L176.149 53.2715ZM185.729 45.2031H187.425V56.6201H193.736V45.2031H195.423V56.585H196.768L196.61 61.085H195.089V58H185.729V45.2031ZM206.911 45.2031H208.598V58H206.911V48.1387L200.609 58H198.912V45.2031H200.609V55.0645L206.911 45.2031ZM218.371 58V53.0166H215.418L212.773 58H210.971L213.942 52.5508C212.289 51.9004 211.463 50.7373 211.463 49.0615C211.463 47.8428 211.862 46.8965 212.659 46.2227C213.461 45.543 214.575 45.2031 215.998 45.2031H220.068V58H218.371ZM213.151 49.0615C213.151 49.835 213.391 50.4561 213.871 50.9248C214.358 51.3936 215.032 51.6309 215.893 51.6367H218.371V46.5918H215.972C215.058 46.5918 214.358 46.8086 213.871 47.2422C213.391 47.6758 213.151 48.2822 213.151 49.0615Z" fill="#FAF9F7"/>
<path id="side" d="M19.2069 21L1 31.5V71.5L19.2069 82" stroke="#423D33" stroke-width="2"/>
</g>
<g id="polygon" filter="url(#filter0_d)">
<path d="M285 10L321 30.7568V72.2703L285 93.027L249 72.2703V30.7568L285 10Z" fill="url(#paint3_radial)"/>
<path d="M250 31.3345L285 11.1543L320 31.3345V71.6925L285 91.8727L250 71.6925V31.3345Z" stroke="#423D33" stroke-width="2"/>
</g>
<g id="fire-home" filter="url(#filter1_d)">
<path fill-rule="evenodd" clip-rule="evenodd" d="M296.57 34.9801C295.557 36.7465 294.532 38.5328 294.532 41.2662C294.532 42.6926 295.512 44.9323 296.688 47.6213C300.05 55.3087 305.018 66.6679 293.294 73.1929C320.92 69.5895 313.341 47.0895 310.348 38.2026C310.255 37.9258 310.166 37.6623 310.083 37.4129C310.083 50.5224 306.677 50.7307 305.228 50.8194C305.004 50.8331 304.826 50.8439 304.716 50.8992C299.27 50.8992 300.608 46.6377 302.217 41.5149C303.129 38.6124 304.127 35.4334 304.028 32.5964C303.697 26.4312 300.312 23.5138 296.734 22C299.918 29.1415 298.26 32.0331 296.57 34.9801ZM283.385 22.8257L272.239 34.9359V27.5047H266.046V40.4405L256 50.624H266.046V73.0554H282.285C274.163 66.674 277.52 61.2409 280.514 56.3954C282.492 53.1948 284.311 50.2507 282.56 47.4589C288.259 48.6853 287.113 52.5969 286.081 56.1206C285.144 59.3186 284.3 62.1971 288.752 62.459C294.232 62.459 292.809 58.7402 290.934 53.8393C288.664 47.9085 285.733 40.2465 293.569 35.3487V33.5597L283.385 22.8257Z" fill="#D80000"/>
</g>
</g>
<defs>
<filter id="filter0_d" x="239" y="0" width="92" height="103.027" filterUnits="userSpaceOnUse" color-interpolation-filters="sRGB">
<feFlood flood-opacity="0" result="BackgroundImageFix"/>
<feColorMatrix in="SourceAlpha" type="matrix" values="0 0 0 0 0 0 0 0 0 0 0 0 0 0 0 0 0 0 127 0"/>
<feOffset/>
<feGaussianBlur stdDeviation="5"/>
<feColorMatrix type="matrix" values="0 0 0 0 0 0 0 0 0 0 0 0 0 0 0 0 0 0 0.25 0"/>
<feBlend mode="normal" in2="BackgroundImageFix" result="effect1_dropShadow"/>
<feBlend mode="normal" in="SourceGraphic" in2="effect1_dropShadow" result="shape"/>
</filter>
<filter id="filter1_d" x="252" y="22" width="65.6" height="59.1929" filterUnits="userSpaceOnUse" color-interpolation-filters="sRGB">
<feFlood flood-opacity="0" result="BackgroundImageFix"/>
<feColorMatrix in="SourceAlpha" type="matrix" values="0 0 0 0 0 0 0 0 0 0 0 0 0 0 0 0 0 0 127 0"/>
<feOffset dy="4"/>
<feGaussianBlur stdDeviation="2"/>
<feColorMatrix type="matrix" values="0 0 0 0 0 0 0 0 0 0 0 0 0 0 0 0 0 0 0.25 0"/>
<feBlend mode="normal" in2="BackgroundImageFix" result="effect1_dropShadow"/>
<feBlend mode="normal" in="SourceGraphic" in2="effect1_dropShadow" result="shape"/>
</filter>
<linearGradient id="paint0_linear" x1="124.908" y1="31" x2="124.908" y2="72" gradientUnits="userSpaceOnUse">
<stop stop-color="#D80000"/>
<stop offset="0.489342" stop-color="#DC9090" stop-opacity="0.510658"/>
<stop offset="1" stop-color="#D80000"/>
</linearGradient>
<linearGradient id="paint1_linear" x1="133.759" y1="22" x2="133.759" y2="31" gradientUnits="userSpaceOnUse">
<stop stop-color="white" stop-opacity="0"/>
<stop offset="1" stop-color="#D3CEC4"/>
</linearGradient>
<linearGradient id="paint2_linear" x1="134.011" y1="72" x2="134.011" y2="81" gradientUnits="userSpaceOnUse">
<stop stop-color="#D3CEC4"/>
<stop offset="1" stop-color="white" stop-opacity="0"/>
</linearGradient>
<radialGradient id="paint3_radial" cx="0" cy="0" r="1" gradientUnits="userSpaceOnUse" gradientTransform="translate(285 51.5135) rotate(90) scale(41.4865 35.9766)">
<stop stop-color="white" stop-opacity="0"/>
<stop offset="1" stop-color="#E8E6E1"/>
</radialGradient>
</defs>
</svg>
