<svg width="223" height="239" viewBox="0 0 223 239" fill="none" xmlns="http://www.w3.org/2000/svg">
<g filter="url(#filter0_d)">
<path d="M14 58.8131L112 2.30863L210 58.8131V171.818L112 228.322L14 171.818V58.8131Z" stroke="#504A40" stroke-width="4"/>
</g>
<g filter="url(#filter1_d)">
<path fill-rule="evenodd" clip-rule="evenodd" d="M151.938 49.7706C153.127 50.2493 154.42 49.9531 154.988 49.0066C155.633 47.9333 155.103 46.4301 153.803 45.6491C152.503 44.8682 150.927 45.1053 150.282 46.1786C149.72 47.1136 150.05 48.3749 151.004 49.2007L131.965 71.8488C127.528 69.5166 122.896 67.5458 118.11 65.9624L111.789 76.4818L94.7958 51.4584L64.7234 48.2019L46.0392 79.2975L76.1116 82.5541L93.105 107.577L85.4126 120.38C89.8218 121.839 94.1013 123.626 98.2169 125.723L91.5903 136.751C84.1673 133.453 76.2604 132.039 68.9863 132.782C62.4939 133.446 56.882 135.789 52.7291 139.478C60.8345 143.14 70.9554 148.43 81.8223 154.792L67.8403 187.622L89.6661 159.494C101.098 166.509 111.101 173.372 118.38 179.059C119.724 173.631 119.168 167.532 116.688 161.445C113.826 154.417 108.591 147.879 101.842 142.789L108.445 131.799C112.506 134.583 116.347 137.698 119.928 141.119L152.625 86.7011C148.873 83.1171 144.836 79.8688 140.559 76.9848L151.938 49.7706ZM86.4478 157.538C86.3479 157.478 86.2479 157.418 86.1479 157.358C86.0478 157.298 85.9478 157.238 85.8478 157.178L86.4478 157.538ZM64.6576 51.8653L90.8916 54.4026L87.6219 59.8444L61.3879 57.3071L64.6576 51.8653ZM94.0294 56.2881L108.586 78.2601L105.316 83.7019L90.7596 61.7298L94.0294 56.2881ZM59.0522 61.194L85.2861 63.7312L82.0164 69.173L55.7824 66.6357L59.0522 61.194ZM88.4239 65.6167L102.98 87.5887L99.7106 93.0305L85.1542 71.0584L88.4239 65.6167ZM53.4469 70.5227L79.6809 73.06L76.4112 78.5017L50.1772 75.9644L53.4469 70.5227ZM82.8184 74.9454L97.3748 96.9175L94.1051 102.359L79.5487 80.3872L82.8184 74.9454ZM176.377 100.477L146.304 97.2204L127.62 128.316L157.692 131.573L174.686 156.596L193.37 125.5L176.377 100.477ZM172.472 103.421L146.238 100.884L142.969 106.326L169.203 108.863L172.472 103.421ZM190.167 127.279L175.61 105.307L172.341 110.748L186.897 132.721L190.167 127.279ZM166.867 112.75L140.633 110.213L137.363 115.654L163.597 118.192L166.867 112.75ZM184.561 136.607L170.005 114.635L166.735 120.077L181.291 142.049L184.561 136.607ZM161.262 122.079L135.028 119.541L131.758 124.983L157.992 127.52L161.262 122.079ZM178.956 145.936L164.399 123.964L161.13 129.406L175.686 151.378L178.956 145.936Z" fill="#857F72"/>
</g>
<defs>
<filter id="filter0_d" x="8" y="0" width="208" height="238.631" filterUnits="userSpaceOnUse" color-interpolation-filters="sRGB">
<feFlood flood-opacity="0" result="BackgroundImageFix"/>
<feColorMatrix in="SourceAlpha" type="matrix" values="0 0 0 0 0 0 0 0 0 0 0 0 0 0 0 0 0 0 127 0"/>
<feOffset dy="4"/>
<feGaussianBlur stdDeviation="2"/>
<feColorMatrix type="matrix" values="0 0 0 0 0 0 0 0 0 0 0 0 0 0 0 0 0 0 0.25 0"/>
<feBlend mode="normal" in2="BackgroundImageFix" result="effect1_dropShadow"/>
<feBlend mode="normal" in="SourceGraphic" in2="effect1_dropShadow" result="shape"/>
</filter>
<filter id="filter1_d" x="0" y="7" width="222.127" height="227.561" filterUnits="userSpaceOnUse" color-interpolation-filters="sRGB">
<feFlood flood-opacity="0" result="BackgroundImageFix"/>
<feColorMatrix in="SourceAlpha" type="matrix" values="0 0 0 0 0 0 0 0 0 0 0 0 0 0 0 0 0 0 127 0"/>
<feOffset dy="4"/>
<feGaussianBlur stdDeviation="2"/>
<feColorMatrix type="matrix" values="0 0 0 0 0 0 0 0 0 0 0 0 0 0 0 0 0 0 0.25 0"/>
<feBlend mode="normal" in2="BackgroundImageFix" result="effect1_dropShadow"/>
<feBlend mode="normal" in="SourceGraphic" in2="effect1_dropShadow" result="shape"/>
</filter>
</defs>
</svg>
