<svg width="331" height="104" viewBox="0 0 331 104" fill="none" xmlns="http://www.w3.org/2000/svg">
<g id="tv-system">
<g id="caption">
<g id="body">
<rect x="1" y="31" width="247.816" height="41" fill="#D80000"/>
<rect x="1" y="31" width="247.816" height="41" fill="url(#paint0_linear)"/>
</g>
<path id="top" d="M249.322 31L264.494 22H141.598H18.7011L3.02295 31H249.322Z" fill="url(#paint1_linear)"/>
<path id="bottom" d="M249.322 72H3.02295L18.7011 81H265L249.322 72Z" fill="url(#paint2_linear)"/>
<path id="text" d="M82.0795 53.9395C81.9212 55.293 81.4203 56.3389 80.5765 57.0771C79.7386 57.8096 78.6224 58.1758 77.2279 58.1758C75.7162 58.1758 74.5033 57.6338 73.5892 56.5498C72.681 55.4658 72.2269 54.0156 72.2269 52.1992V50.9688C72.2269 49.7793 72.4379 48.7334 72.8597 47.8311C73.2875 46.9287 73.891 46.2373 74.6703 45.7568C75.4496 45.2705 76.3519 45.0273 77.3773 45.0273C78.7367 45.0273 79.8265 45.4082 80.6468 46.1699C81.4671 46.9258 81.9447 47.9746 82.0795 49.3164H80.3832C80.2367 48.2969 79.9173 47.5586 79.4252 47.1016C78.9388 46.6445 78.2562 46.416 77.3773 46.416C76.2992 46.416 75.4525 46.8145 74.8373 47.6113C74.2279 48.4082 73.9232 49.542 73.9232 51.0127V52.252C73.9232 53.6406 74.2132 54.7451 74.7933 55.5654C75.3734 56.3857 76.1849 56.7959 77.2279 56.7959C78.1654 56.7959 78.8832 56.585 79.3812 56.1631C79.8851 55.7354 80.2191 54.9941 80.3832 53.9395H82.0795ZM94.1644 58H92.4681V46.5918H86.1576V58H84.4701V45.2031H94.1644V58ZM101.635 52.6299L104.579 45.2031H106.539L102.013 55.8643C101.708 56.5439 101.424 57.0273 101.161 57.3145C100.897 57.5957 100.586 57.8125 100.229 57.9648C99.8773 58.1113 99.4349 58.1846 98.9017 58.1846C98.4388 58.1846 98.1429 58.1582 98.014 58.1055L98.0668 56.7695L98.8666 56.8047C99.4818 56.8047 99.9388 56.5088 100.238 55.917L100.457 55.46L100.791 54.6777L96.432 45.2031H98.3216L101.635 52.6299ZM117.561 46.5918H113.448V58H111.769V46.5918H107.664V45.2031H117.561V46.5918ZM129.294 58H127.598V52.085H121.147V58H119.459V45.2031H121.147V50.7051H127.598V45.2031H129.294V58ZM140.36 45.2031H142.047V58H140.36V48.1387L134.058 58H132.362V45.2031H134.058V55.0645L140.36 45.2031ZM148.446 52.252H146.89V58H145.202V45.2031H146.89V50.8457H148.208L152.682 45.2031H154.783L149.896 51.4082L155.143 58H153.077L148.446 52.252ZM166.252 52.0146C166.252 53.2686 166.041 54.3643 165.619 55.3018C165.198 56.2334 164.6 56.9453 163.827 57.4375C163.053 57.9297 162.151 58.1758 161.119 58.1758C160.112 58.1758 159.218 57.9297 158.439 57.4375C157.66 56.9395 157.053 56.2334 156.619 55.3193C156.192 54.3994 155.972 53.3359 155.96 52.1289V51.2061C155.96 49.9756 156.174 48.8887 156.602 47.9453C157.03 47.002 157.633 46.2812 158.412 45.7832C159.198 45.2793 160.094 45.0273 161.102 45.0273C162.127 45.0273 163.03 45.2764 163.809 45.7744C164.594 46.2666 165.198 46.9844 165.619 47.9277C166.041 48.8652 166.252 49.958 166.252 51.2061V52.0146ZM164.574 51.1885C164.574 49.6709 164.269 48.5078 163.66 47.6992C163.05 46.8848 162.198 46.4775 161.102 46.4775C160.036 46.4775 159.195 46.8848 158.579 47.6992C157.97 48.5078 157.657 49.6328 157.639 51.0742V52.0146C157.639 53.4854 157.947 54.6426 158.562 55.4863C159.183 56.3242 160.036 56.7432 161.119 56.7432C162.209 56.7432 163.053 56.3477 163.651 55.5566C164.248 54.7598 164.556 53.6201 164.574 52.1377V51.1885ZM168.784 58V45.2031H172.967C174.356 45.2031 175.399 45.4902 176.096 46.0645C176.799 46.6387 177.151 47.4883 177.151 48.6133C177.151 49.2109 176.981 49.7412 176.641 50.2041C176.301 50.6611 175.838 51.0156 175.252 51.2676C175.944 51.4609 176.489 51.8301 176.887 52.375C177.291 52.9141 177.494 53.5586 177.494 54.3086C177.494 55.457 177.121 56.3594 176.377 57.0156C175.633 57.6719 174.581 58 173.222 58H168.784ZM170.471 52.0146V56.6201H173.257C174.042 56.6201 174.661 56.418 175.112 56.0137C175.569 55.6035 175.797 55.041 175.797 54.3262C175.797 52.7852 174.959 52.0146 173.284 52.0146H170.471ZM170.471 50.6611H173.02C173.758 50.6611 174.347 50.4766 174.786 50.1074C175.232 49.7383 175.454 49.2373 175.454 48.6045C175.454 47.9014 175.249 47.3916 174.839 47.0752C174.429 46.7529 173.805 46.5918 172.967 46.5918H170.471V50.6611ZM189.842 52.0146C189.842 53.2686 189.631 54.3643 189.209 55.3018C188.787 56.2334 188.19 56.9453 187.416 57.4375C186.643 57.9297 185.741 58.1758 184.709 58.1758C183.702 58.1758 182.808 57.9297 182.029 57.4375C181.249 56.9395 180.643 56.2334 180.209 55.3193C179.782 54.3994 179.562 53.3359 179.55 52.1289V51.2061C179.55 49.9756 179.764 48.8887 180.192 47.9453C180.619 47.002 181.223 46.2812 182.002 45.7832C182.787 45.2793 183.684 45.0273 184.692 45.0273C185.717 45.0273 186.619 45.2764 187.399 45.7744C188.184 46.2666 188.787 46.9844 189.209 47.9277C189.631 48.8652 189.842 49.958 189.842 51.2061V52.0146ZM188.163 51.1885C188.163 49.6709 187.859 48.5078 187.249 47.6992C186.64 46.8848 185.787 46.4775 184.692 46.4775C183.625 46.4775 182.785 46.8848 182.169 47.6992C181.56 48.5078 181.246 49.6328 181.229 51.0742V52.0146C181.229 53.4854 181.536 54.6426 182.152 55.4863C182.773 56.3242 183.625 56.7432 184.709 56.7432C185.799 56.7432 186.643 56.3477 187.241 55.5566C187.838 54.7598 188.146 53.6201 188.163 52.1377V51.1885ZM199.607 52.085H194.061V56.6201H200.503V58H192.373V45.2031H200.415V46.5918H194.061V50.7051H199.607V52.085ZM215.559 46.5918H211.446V58H209.767V46.5918H205.662V45.2031H215.559V46.5918ZM217.457 58V45.2031H221.641C223.03 45.2031 224.073 45.4902 224.77 46.0645C225.473 46.6387 225.825 47.4883 225.825 48.6133C225.825 49.2109 225.655 49.7412 225.315 50.2041C224.975 50.6611 224.512 51.0156 223.926 51.2676C224.618 51.4609 225.162 51.8301 225.561 52.375C225.965 52.9141 226.167 53.5586 226.167 54.3086C226.167 55.457 225.795 56.3594 225.051 57.0156C224.307 57.6719 223.255 58 221.896 58H217.457ZM219.145 52.0146V56.6201H221.931C222.716 56.6201 223.334 56.418 223.786 56.0137C224.243 55.6035 224.471 55.041 224.471 54.3262C224.471 52.7852 223.633 52.0146 221.957 52.0146H219.145ZM219.145 50.6611H221.694C222.432 50.6611 223.021 50.4766 223.46 50.1074C223.906 49.7383 224.128 49.2373 224.128 48.6045C224.128 47.9014 223.923 47.3916 223.513 47.0752C223.103 46.7529 222.479 46.5918 221.641 46.5918H219.145V50.6611Z" fill="#FAF9F7"/>
<path id="side" d="M19.2069 21L1 31.5V71.5L19.2069 82" stroke="#423D33" stroke-width="2"/>
</g>
<g id="polygon" filter="url(#filter0_d)">
<path d="M285 10L321 30.7568V72.2703L285 93.027L249 72.2703V30.7568L285 10Z" fill="url(#paint3_radial)"/>
<path d="M250 31.3345L285 11.1543L320 31.3345V71.6925L285 91.8727L250 71.6925V31.3345Z" stroke="#423D33" stroke-width="2"/>
</g>
<g id="tv" filter="url(#filter1_d)">
<path fill-rule="evenodd" clip-rule="evenodd" d="M299.367 26.9981L295.07 37.2751C296.509 38.245 297.867 39.3374 299.128 40.5428L288.132 58.8439C286.928 57.6935 285.636 56.646 284.27 55.7096L282.049 59.4056C284.319 61.1177 286.08 63.3165 287.042 65.6798C287.876 67.7269 288.063 69.778 287.611 71.6034C285.163 69.691 281.799 67.3829 277.955 65.0238L271.375 73.5031C271.709 73.7804 271.827 74.2138 271.635 74.5337C271.418 74.8947 270.888 74.9744 270.451 74.7118C270.013 74.4492 269.835 73.9436 270.052 73.5826C270.247 73.2576 270.696 73.1606 271.103 73.3362L275.317 63.4425C271.662 61.3029 268.258 59.5238 265.532 58.2922C266.929 57.0516 268.816 56.2635 271 56.0403C273.446 55.7904 276.105 56.266 278.602 57.3751L280.83 53.6661C279.446 52.9611 278.007 52.3599 276.524 51.8692L279.111 47.5637L273.396 39.1481L263.282 38.0529L269.566 27.5951L279.68 28.6903L285.395 37.1059L287.52 33.5681C289.13 34.1006 290.688 34.7635 292.18 35.5478L299.367 26.9981ZM278.367 29.6805L269.544 28.8272L268.444 30.6573L277.267 31.5106L278.367 29.6805ZM284.318 37.704L279.422 30.3146L278.322 32.1447L283.218 39.5341L284.318 37.704ZM276.482 32.8178L267.659 31.9645L266.559 33.7946L275.382 34.6479L276.482 32.8178ZM282.432 40.8413L277.537 33.4519L276.437 35.282L281.333 42.6714L282.432 40.8413ZM274.596 35.9551L265.774 35.1018L264.674 36.9319L273.497 37.7853L274.596 35.9551ZM280.547 43.9787L275.652 36.5892L274.552 38.4194L279.448 45.8088L280.547 43.9787ZM297.003 44.0805L307.116 45.1757L312.831 53.5913L306.548 64.0491L300.832 55.6335L290.719 54.5383L297.003 44.0805ZM296.98 45.3126L305.803 46.1659L304.703 47.996L295.881 47.1427L296.98 45.3126ZM306.858 46.8L311.754 54.1894L310.654 56.0195L305.759 48.6301L306.858 46.8ZM295.095 48.4499L303.918 49.3032L302.818 51.1333L293.995 50.28L295.095 48.4499ZM304.973 49.9373L309.869 57.3267L308.769 59.1568L303.874 51.7674L304.973 49.9373ZM293.21 51.5872L302.033 52.4405L300.933 54.2706L292.11 53.4173L293.21 51.5872ZM303.088 53.0747L307.983 60.4641L306.884 62.2942L301.988 54.9048L303.088 53.0747Z" fill="#D80000"/>
</g>
</g>
<defs>
<filter id="filter0_d" x="239" y="0" width="92" height="103.027" filterUnits="userSpaceOnUse" color-interpolation-filters="sRGB">
<feFlood flood-opacity="0" result="BackgroundImageFix"/>
<feColorMatrix in="SourceAlpha" type="matrix" values="0 0 0 0 0 0 0 0 0 0 0 0 0 0 0 0 0 0 127 0"/>
<feOffset/>
<feGaussianBlur stdDeviation="5"/>
<feColorMatrix type="matrix" values="0 0 0 0 0 0 0 0 0 0 0 0 0 0 0 0 0 0 0.25 0"/>
<feBlend mode="normal" in2="BackgroundImageFix" result="effect1_dropShadow"/>
<feBlend mode="normal" in="SourceGraphic" in2="effect1_dropShadow" result="shape"/>
</filter>
<filter id="filter1_d" x="245" y="14" width="80" height="81.8192" filterUnits="userSpaceOnUse" color-interpolation-filters="sRGB">
<feFlood flood-opacity="0" result="BackgroundImageFix"/>
<feColorMatrix in="SourceAlpha" type="matrix" values="0 0 0 0 0 0 0 0 0 0 0 0 0 0 0 0 0 0 127 0"/>
<feOffset dy="4"/>
<feGaussianBlur stdDeviation="2"/>
<feColorMatrix type="matrix" values="0 0 0 0 0 0 0 0 0 0 0 0 0 0 0 0 0 0 0.25 0"/>
<feBlend mode="normal" in2="BackgroundImageFix" result="effect1_dropShadow"/>
<feBlend mode="normal" in="SourceGraphic" in2="effect1_dropShadow" result="shape"/>
</filter>
<linearGradient id="paint0_linear" x1="124.908" y1="31" x2="124.908" y2="72" gradientUnits="userSpaceOnUse">
<stop stop-color="#D80000"/>
<stop offset="0.489342" stop-color="#DC9090" stop-opacity="0.510658"/>
<stop offset="1" stop-color="#D80000"/>
</linearGradient>
<linearGradient id="paint1_linear" x1="133.759" y1="22" x2="133.759" y2="31" gradientUnits="userSpaceOnUse">
<stop stop-color="white" stop-opacity="0"/>
<stop offset="1" stop-color="#D3CEC4"/>
</linearGradient>
<linearGradient id="paint2_linear" x1="134.011" y1="72" x2="134.011" y2="81" gradientUnits="userSpaceOnUse">
<stop stop-color="#D3CEC4"/>
<stop offset="1" stop-color="white" stop-opacity="0"/>
</linearGradient>
<radialGradient id="paint3_radial" cx="0" cy="0" r="1" gradientUnits="userSpaceOnUse" gradientTransform="translate(285 51.5135) rotate(90) scale(41.4865 35.9766)">
<stop stop-color="white" stop-opacity="0"/>
<stop offset="1" stop-color="#E8E6E1"/>
</radialGradient>
</defs>
</svg>
