<svg width="328" height="104" viewBox="0 0 328 104" fill="none" xmlns="http://www.w3.org/2000/svg">
<g id="video-watch">
<g id="caption">
<g id="body">
<rect x="1" y="31" width="245" height="41" fill="#D80000"/>
<rect x="1" y="31" width="245" height="41" fill="url(#paint0_linear)"/>
</g>
<path id="top" d="M246.5 31L261.5 22H140H18.5L3 31H246.5Z" fill="url(#paint1_linear)"/>
<path id="bottom" d="M246.5 72H3L18.5 81H262L246.5 72Z" fill="url(#paint2_linear)"/>
<path id="text" d="M56.6387 58V45.2031H60.8223C62.2109 45.2031 63.2539 45.4902 63.9512 46.0645C64.6543 46.6387 65.0059 47.4883 65.0059 48.6133C65.0059 49.2109 64.8359 49.7412 64.4961 50.2041C64.1562 50.6611 63.6934 51.0156 63.1074 51.2676C63.7988 51.4609 64.3438 51.8301 64.7422 52.375C65.1465 52.9141 65.3486 53.5586 65.3486 54.3086C65.3486 55.457 64.9766 56.3594 64.2324 57.0156C63.4883 57.6719 62.4365 58 61.0771 58H56.6387ZM58.3262 52.0146V56.6201H61.1123C61.8975 56.6201 62.5156 56.418 62.9668 56.0137C63.4238 55.6035 63.6523 55.041 63.6523 54.3262C63.6523 52.7852 62.8145 52.0146 61.1387 52.0146H58.3262ZM58.3262 50.6611H60.875C61.6133 50.6611 62.2021 50.4766 62.6416 50.1074C63.0869 49.7383 63.3096 49.2373 63.3096 48.6045C63.3096 47.9014 63.1045 47.3916 62.6943 47.0752C62.2842 46.7529 61.6602 46.5918 60.8223 46.5918H58.3262V50.6611ZM75.9219 45.2031H77.6094V58H75.9219V48.1387L69.6201 58H67.9238V45.2031H69.6201V55.0645L75.9219 45.2031ZM92.3926 61.1377H90.7139V58H81.5293V61.1465H79.8418L79.833 56.6201H80.8789C81.4297 55.999 81.8662 55.167 82.1885 54.124C82.5166 53.0752 82.7217 51.9268 82.8037 50.6787L83.085 45.2031H90.7402V56.6201H92.4102L92.3926 61.1377ZM82.8037 56.6201H89.0439V46.5918H84.7109L84.5264 50.3535C84.4502 51.8242 84.2539 53.0781 83.9375 54.1152C83.627 55.1523 83.249 55.9873 82.8037 56.6201ZM101.647 52.085H96.1016V56.6201H102.544V58H94.4141V45.2031H102.456V46.5918H96.1016V50.7051H101.647V52.085ZM114.488 52.0146C114.488 53.2686 114.277 54.3643 113.855 55.3018C113.434 56.2334 112.836 56.9453 112.062 57.4375C111.289 57.9297 110.387 58.1758 109.355 58.1758C108.348 58.1758 107.454 57.9297 106.675 57.4375C105.896 56.9395 105.289 56.2334 104.855 55.3193C104.428 54.3994 104.208 53.3359 104.196 52.1289V51.2061C104.196 49.9756 104.41 48.8887 104.838 47.9453C105.266 47.002 105.869 46.2812 106.648 45.7832C107.434 45.2793 108.33 45.0273 109.338 45.0273C110.363 45.0273 111.266 45.2764 112.045 45.7744C112.83 46.2666 113.434 46.9844 113.855 47.9277C114.277 48.8652 114.488 49.958 114.488 51.2061V52.0146ZM112.81 51.1885C112.81 49.6709 112.505 48.5078 111.896 47.6992C111.286 46.8848 110.434 46.4775 109.338 46.4775C108.271 46.4775 107.431 46.8848 106.815 47.6992C106.206 48.5078 105.893 49.6328 105.875 51.0742V52.0146C105.875 53.4854 106.183 54.6426 106.798 55.4863C107.419 56.3242 108.271 56.7432 109.355 56.7432C110.445 56.7432 111.289 56.3477 111.887 55.5566C112.484 54.7598 112.792 53.6201 112.81 52.1377V51.1885ZM126.854 58H125.158V52.085H118.707V58H117.02V45.2031H118.707V50.7051H125.158V45.2031H126.854V58ZM137.076 54.6602H131.715L130.511 58H128.771L133.657 45.2031H135.134L140.029 58H138.298L137.076 54.6602ZM132.225 53.2715H136.575L134.396 47.2861L132.225 53.2715ZM149.557 46.5918H143.387V50.4238H146.568C147.904 50.4414 148.947 50.7842 149.697 51.4521C150.447 52.1201 150.822 53.0283 150.822 54.1768C150.822 55.3311 150.444 56.251 149.688 56.9365C148.933 57.6221 147.901 57.9766 146.595 58H141.69V45.2031H149.557V46.5918ZM143.387 51.8125V56.6201H146.472C147.31 56.6201 147.96 56.3975 148.423 55.9521C148.892 55.5068 149.126 54.9092 149.126 54.1592C149.126 53.4385 148.9 52.8701 148.449 52.4541C148.004 52.0381 147.368 51.8242 146.542 51.8125H143.387ZM162.784 45.2031V58H161.097V46.5918H156.509L156.28 51.6631C156.192 53.3623 156.017 54.6396 155.753 55.4951C155.495 56.3506 155.114 56.9805 154.61 57.3848C154.106 57.7832 153.433 57.9883 152.589 58H152.035V56.6201L152.387 56.6025C152.932 56.5615 153.351 56.3857 153.644 56.0752C153.937 55.7588 154.159 55.2578 154.312 54.5723C154.464 53.8867 154.572 52.832 154.637 51.4082L154.9 45.2031H162.784ZM179.782 52.0146C179.782 53.2686 179.571 54.3643 179.149 55.3018C178.728 56.2334 178.13 56.9453 177.356 57.4375C176.583 57.9297 175.681 58.1758 174.649 58.1758C173.677 58.1758 172.804 57.9414 172.03 57.4727C171.263 57.0039 170.659 56.333 170.22 55.46C169.786 54.5869 169.546 53.5674 169.499 52.4014H167.662V58H165.975V45.2031H167.662V51.0742H169.49C169.508 49.8672 169.728 48.8096 170.149 47.9014C170.571 46.9873 171.172 46.2812 171.951 45.7832C172.73 45.2793 173.624 45.0273 174.632 45.0273C175.657 45.0273 176.56 45.2764 177.339 45.7744C178.124 46.2666 178.728 46.9844 179.149 47.9277C179.571 48.8652 179.782 49.958 179.782 51.2061V52.0146ZM178.104 51.1885C178.104 49.6709 177.799 48.5078 177.189 47.6992C176.58 46.8848 175.728 46.4775 174.632 46.4775C173.565 46.4775 172.725 46.8848 172.109 47.6992C171.5 48.5078 171.187 49.6328 171.169 51.0742V52.0146C171.169 53.4854 171.477 54.6426 172.092 55.4863C172.713 56.3242 173.565 56.7432 174.649 56.7432C175.739 56.7432 176.583 56.3477 177.181 55.5566C177.778 54.7598 178.086 53.6201 178.104 52.1377V51.1885ZM193.186 61.1377H191.507V58H182.322V61.1465H180.635L180.626 56.6201H181.672C182.223 55.999 182.659 55.167 182.981 54.124C183.31 53.0752 183.515 51.9268 183.597 50.6787L183.878 45.2031H191.533V56.6201H193.203L193.186 61.1377ZM183.597 56.6201H189.837V46.5918H185.504L185.319 50.3535C185.243 51.8242 185.047 53.0781 184.73 54.1152C184.42 55.1523 184.042 55.9873 183.597 56.6201ZM202.44 52.085H196.895V56.6201H203.337V58H195.207V45.2031H203.249V46.5918H196.895V50.7051H202.44V52.085ZM215.272 58H213.576V52.085H207.125V58H205.438V45.2031H207.125V50.7051H213.576V45.2031H215.272V58ZM226.338 45.2031H228.025V58H226.338V48.1387L220.036 58H218.34V45.2031H220.036V55.0645L226.338 45.2031ZM238.335 52.085H232.789V56.6201H239.231V58H231.102V45.2031H239.144V46.5918H232.789V50.7051H238.335V52.085Z" fill="#FAF9F7"/>
<path id="side" d="M19 21L1 31.5V71.5L19 82" stroke="#423D33" stroke-width="2"/>
</g>
<g id="polygon" filter="url(#filter0_d)">
<path d="M282 10L318 30.7568V72.2703L282 93.027L246 72.2703V30.7568L282 10Z" fill="url(#paint3_radial)"/>
<path d="M247 31.3345L282 11.1543L317 31.3345V71.6925L282 91.8727L247 71.6925V31.3345Z" stroke="#423D33" stroke-width="2"/>
</g>
<g id="camera" filter="url(#filter1_d)">
<path fill-rule="evenodd" clip-rule="evenodd" d="M310.284 50.4164C311.399 50.4164 311.677 48.8672 310.632 48.4789L268.894 32.9764C268.375 32.7833 267.797 33.0501 267.607 33.5711L264.778 41.3248C264.662 41.6415 264.714 41.9951 264.916 42.2654L269.889 48.9346C270.005 49.0897 270.163 49.208 270.345 49.2749L279.24 52.5573C279.101 52.8942 279.024 53.2636 279.024 53.6509C279.024 54.4459 279.348 55.1652 279.872 55.6838L277.452 61.9865C277.444 61.9864 277.436 61.9863 277.428 61.9862C277.421 61.9862 277.414 61.9862 277.406 61.9862C276.13 61.9862 275.048 62.8222 274.68 63.9767H259.119V62.7326C259.119 62.0455 258.562 61.4885 257.874 61.4885C257.594 61.4885 257.336 61.581 257.128 61.7371V60.4934C257.128 59.8063 256.571 59.2493 255.884 59.2493C255.197 59.2493 254.64 59.8063 254.64 60.4934V69.9483C254.64 70.6353 255.197 71.1923 255.884 71.1923C256.571 71.1923 257.128 70.6353 257.128 69.9483V68.7043C257.336 68.8604 257.594 68.9529 257.874 68.9529C258.562 68.9529 259.119 68.3959 259.119 67.7089V66.216H274.893C275.378 67.1055 276.322 67.7089 277.406 67.7089C278.987 67.7089 280.268 66.4278 280.268 64.8475C280.268 64.0422 279.935 63.3146 279.4 62.7946L281.812 56.5113C281.836 56.5119 281.861 56.5122 281.885 56.5122C283.156 56.5122 284.234 55.6838 284.607 54.5374L292.951 57.6165C293.195 57.7062 293.463 57.698 293.7 57.5936L302.242 53.8351C302.508 53.7181 302.71 53.4914 302.795 53.2139L303.439 51.1223C303.568 50.7027 303.956 50.4164 304.395 50.4164H310.284ZM308.134 51.0384H304.278L303.407 54.273L294.45 58.254L304.153 61.9862L305.398 58.5028L306.766 59.1248L309.005 53.2777L307.512 52.7801L308.134 51.0384ZM310.125 52.6557L312.24 53.4021L309.379 61.2398L307.264 60.3689L310.125 52.6557ZM301.293 51.8564C301.636 51.8564 301.915 51.5222 301.915 51.1099C301.915 50.6977 301.636 50.3635 301.293 50.3635C300.949 50.3635 300.671 50.6977 300.671 51.1099C300.671 51.5222 300.949 51.8564 301.293 51.8564Z" fill="#D80000"/>
</g>
</g>
<defs>
<filter id="filter0_d" x="236" y="0" width="92" height="103.027" filterUnits="userSpaceOnUse" color-interpolation-filters="sRGB">
<feFlood flood-opacity="0" result="BackgroundImageFix"/>
<feColorMatrix in="SourceAlpha" type="matrix" values="0 0 0 0 0 0 0 0 0 0 0 0 0 0 0 0 0 0 127 0"/>
<feOffset/>
<feGaussianBlur stdDeviation="5"/>
<feColorMatrix type="matrix" values="0 0 0 0 0 0 0 0 0 0 0 0 0 0 0 0 0 0 0.25 0"/>
<feBlend mode="normal" in2="BackgroundImageFix" result="effect1_dropShadow"/>
<feBlend mode="normal" in="SourceGraphic" in2="effect1_dropShadow" result="shape"/>
</filter>
<filter id="filter1_d" x="250.64" y="32.9136" width="65.5999" height="46.2788" filterUnits="userSpaceOnUse" color-interpolation-filters="sRGB">
<feFlood flood-opacity="0" result="BackgroundImageFix"/>
<feColorMatrix in="SourceAlpha" type="matrix" values="0 0 0 0 0 0 0 0 0 0 0 0 0 0 0 0 0 0 127 0"/>
<feOffset dy="4"/>
<feGaussianBlur stdDeviation="2"/>
<feColorMatrix type="matrix" values="0 0 0 0 0 0 0 0 0 0 0 0 0 0 0 0 0 0 0.25 0"/>
<feBlend mode="normal" in2="BackgroundImageFix" result="effect1_dropShadow"/>
<feBlend mode="normal" in="SourceGraphic" in2="effect1_dropShadow" result="shape"/>
</filter>
<linearGradient id="paint0_linear" x1="123.5" y1="31" x2="123.5" y2="72" gradientUnits="userSpaceOnUse">
<stop stop-color="#D80000"/>
<stop offset="0.489342" stop-color="#DC9090" stop-opacity="0.510658"/>
<stop offset="1" stop-color="#D80000"/>
</linearGradient>
<linearGradient id="paint1_linear" x1="132.25" y1="22" x2="132.25" y2="31" gradientUnits="userSpaceOnUse">
<stop stop-color="white" stop-opacity="0"/>
<stop offset="1" stop-color="#D3CEC4"/>
</linearGradient>
<linearGradient id="paint2_linear" x1="132.5" y1="72" x2="132.5" y2="81" gradientUnits="userSpaceOnUse">
<stop stop-color="#D3CEC4"/>
<stop offset="1" stop-color="white" stop-opacity="0"/>
</linearGradient>
<radialGradient id="paint3_radial" cx="0" cy="0" r="1" gradientUnits="userSpaceOnUse" gradientTransform="translate(282 51.5135) rotate(90) scale(41.4865 35.9766)">
<stop stop-color="white" stop-opacity="0"/>
<stop offset="1" stop-color="#E8E6E1"/>
</radialGradient>
</defs>
</svg>
